<mxfile host="Electron" modified="2024-08-01T18:11:16.082Z" agent="Mozilla/5.0 (Macintosh; Intel Mac OS X 10_15_7) AppleWebKit/537.36 (KHTML, like Gecko) draw.io/22.1.16 Chrome/120.0.6099.109 Electron/28.1.0 Safari/537.36" etag="csjGcLle8_l54b2p_Mgv" version="22.1.16" type="device">
  <diagram name="Page-1" id="XyvESQKUlL8QjPjvROn5">
    <mxGraphModel dx="2258" dy="1596" grid="1" gridSize="10" guides="1" tooltips="1" connect="1" arrows="1" fold="1" page="1" pageScale="1" pageWidth="827" pageHeight="1169" math="0" shadow="0">
      <root>
        <mxCell id="0" />
        <mxCell id="1" parent="0" />
        <mxCell id="_TrwOz8sSUQ42wElkxMV-58" style="edgeStyle=orthogonalEdgeStyle;rounded=0;orthogonalLoop=1;jettySize=auto;html=1;entryX=0;entryY=0.5;entryDx=0;entryDy=0;" parent="1" source="_TrwOz8sSUQ42wElkxMV-1" target="_TrwOz8sSUQ42wElkxMV-7" edge="1">
          <mxGeometry relative="1" as="geometry" />
        </mxCell>
        <mxCell id="_TrwOz8sSUQ42wElkxMV-1" value="Chapter 1&lt;br&gt;&lt;b&gt;Introduction&lt;/b&gt;" style="rounded=0;whiteSpace=wrap;html=1;" parent="1" vertex="1">
          <mxGeometry x="10" y="360" width="100" height="40" as="geometry" />
        </mxCell>
        <mxCell id="_TrwOz8sSUQ42wElkxMV-51" value="Chapter 5&lt;br&gt;&lt;b&gt;Conclusion&lt;/b&gt;" style="rounded=0;whiteSpace=wrap;html=1;" parent="1" vertex="1">
          <mxGeometry x="790" y="360" width="100" height="40" as="geometry" />
        </mxCell>
        <mxCell id="_TrwOz8sSUQ42wElkxMV-53" value="" style="group" parent="1" vertex="1" connectable="0">
          <mxGeometry x="147" y="200" width="120" height="360" as="geometry" />
        </mxCell>
        <mxCell id="_TrwOz8sSUQ42wElkxMV-7" value="" style="rounded=0;whiteSpace=wrap;html=1;container=0;" parent="_TrwOz8sSUQ42wElkxMV-53" vertex="1">
          <mxGeometry width="120" height="360" as="geometry" />
        </mxCell>
        <mxCell id="_TrwOz8sSUQ42wElkxMV-8" value="Chapter 2&lt;br&gt;&lt;b&gt;Background&lt;/b&gt;" style="text;html=1;strokeColor=none;fillColor=none;align=center;verticalAlign=middle;whiteSpace=wrap;rounded=0;container=0;" parent="_TrwOz8sSUQ42wElkxMV-53" vertex="1">
          <mxGeometry x="30" y="10" width="60" height="30" as="geometry" />
        </mxCell>
        <mxCell id="_TrwOz8sSUQ42wElkxMV-10" value="§2.1, §2.2&lt;br&gt;&lt;b&gt;Relevant Metrics&lt;/b&gt;" style="rounded=0;whiteSpace=wrap;html=1;fillColor=#dae8fc;strokeColor=#6c8ebf;container=0;" parent="_TrwOz8sSUQ42wElkxMV-53" vertex="1">
          <mxGeometry x="10" y="60" width="100" height="50" as="geometry" />
        </mxCell>
        <mxCell id="_TrwOz8sSUQ42wElkxMV-11" value="§2.3&lt;br&gt;&lt;b&gt;Datacenter Simulation&lt;/b&gt;" style="rounded=0;whiteSpace=wrap;html=1;fillColor=#dae8fc;strokeColor=#6c8ebf;container=0;" parent="_TrwOz8sSUQ42wElkxMV-53" vertex="1">
          <mxGeometry x="10" y="120" width="100" height="50" as="geometry" />
        </mxCell>
        <mxCell id="_TrwOz8sSUQ42wElkxMV-12" value="§2.4&lt;br&gt;&lt;b&gt;Terminology&lt;/b&gt;" style="rounded=0;whiteSpace=wrap;html=1;fillColor=#dae8fc;strokeColor=#6c8ebf;container=0;" parent="_TrwOz8sSUQ42wElkxMV-53" vertex="1">
          <mxGeometry x="10" y="180" width="100" height="50" as="geometry" />
        </mxCell>
        <mxCell id="_TrwOz8sSUQ42wElkxMV-25" value="§2.5, §2.6&lt;br&gt;&lt;b&gt;Energy and &lt;br&gt;CO2 models&lt;/b&gt;" style="rounded=0;whiteSpace=wrap;html=1;fillColor=#dae8fc;strokeColor=#6c8ebf;" parent="_TrwOz8sSUQ42wElkxMV-53" vertex="1">
          <mxGeometry x="10" y="240" width="100" height="50" as="geometry" />
        </mxCell>
        <mxCell id="_TrwOz8sSUQ42wElkxMV-26" value="§2.7&lt;br&gt;&lt;b&gt;Multi-Model Simulation&lt;/b&gt;" style="rounded=0;whiteSpace=wrap;html=1;fillColor=#dae8fc;strokeColor=#6c8ebf;" parent="_TrwOz8sSUQ42wElkxMV-53" vertex="1">
          <mxGeometry x="10" y="300" width="100" height="50" as="geometry" />
        </mxCell>
        <mxCell id="_TrwOz8sSUQ42wElkxMV-54" value="" style="group" parent="1" vertex="1" connectable="0">
          <mxGeometry x="307" y="170" width="120" height="420" as="geometry" />
        </mxCell>
        <mxCell id="_TrwOz8sSUQ42wElkxMV-27" value="" style="rounded=0;whiteSpace=wrap;html=1;container=0;" parent="_TrwOz8sSUQ42wElkxMV-54" vertex="1">
          <mxGeometry width="120" height="420" as="geometry" />
        </mxCell>
        <mxCell id="_TrwOz8sSUQ42wElkxMV-28" value="Chapter 3&lt;br&gt;&lt;b&gt;Multi-Model&lt;/b&gt;" style="text;html=1;strokeColor=none;fillColor=none;align=center;verticalAlign=middle;whiteSpace=wrap;rounded=0;container=0;" parent="_TrwOz8sSUQ42wElkxMV-54" vertex="1">
          <mxGeometry x="10" y="10" width="100" height="30" as="geometry" />
        </mxCell>
        <mxCell id="_TrwOz8sSUQ42wElkxMV-29" value="§3.2&lt;br&gt;&lt;b&gt;Requirements Analysis&lt;/b&gt;" style="rounded=0;whiteSpace=wrap;html=1;fillColor=#fff2cc;strokeColor=#d6b656;container=0;" parent="_TrwOz8sSUQ42wElkxMV-54" vertex="1">
          <mxGeometry x="10" y="60" width="100" height="50" as="geometry" />
        </mxCell>
        <mxCell id="_TrwOz8sSUQ42wElkxMV-30" value="§3.3&lt;br&gt;&lt;b&gt;Design Choices&lt;/b&gt;" style="rounded=0;whiteSpace=wrap;html=1;fillColor=#fff2cc;strokeColor=#d6b656;container=0;" parent="_TrwOz8sSUQ42wElkxMV-54" vertex="1">
          <mxGeometry x="10" y="120" width="100" height="50" as="geometry" />
        </mxCell>
        <mxCell id="_TrwOz8sSUQ42wElkxMV-31" value="§3.4&lt;br&gt;&lt;b&gt;Overview&lt;/b&gt;" style="rounded=0;whiteSpace=wrap;html=1;fillColor=#fff2cc;strokeColor=#d6b656;container=0;" parent="_TrwOz8sSUQ42wElkxMV-54" vertex="1">
          <mxGeometry x="10" y="180" width="100" height="50" as="geometry" />
        </mxCell>
        <mxCell id="_TrwOz8sSUQ42wElkxMV-32" value="§3.5&lt;br&gt;&lt;b&gt;Multi-Model Process&lt;/b&gt;" style="rounded=0;whiteSpace=wrap;html=1;fillColor=#fff2cc;strokeColor=#d6b656;" parent="_TrwOz8sSUQ42wElkxMV-54" vertex="1">
          <mxGeometry x="10" y="240" width="100" height="50" as="geometry" />
        </mxCell>
        <mxCell id="_TrwOz8sSUQ42wElkxMV-33" value="§3.6&lt;br&gt;&lt;b&gt;Window&lt;br&gt;analysis&lt;/b&gt;" style="rounded=0;whiteSpace=wrap;html=1;fillColor=#fff2cc;strokeColor=#d6b656;" parent="_TrwOz8sSUQ42wElkxMV-54" vertex="1">
          <mxGeometry x="10" y="300" width="100" height="50" as="geometry" />
        </mxCell>
        <mxCell id="_TrwOz8sSUQ42wElkxMV-34" value="§3.7&amp;nbsp;&lt;br&gt;&lt;b&gt;Requirements Addressal&lt;/b&gt;" style="rounded=0;whiteSpace=wrap;html=1;fillColor=#fff2cc;strokeColor=#d6b656;" parent="_TrwOz8sSUQ42wElkxMV-54" vertex="1">
          <mxGeometry x="10" y="360" width="100" height="50" as="geometry" />
        </mxCell>
        <mxCell id="_TrwOz8sSUQ42wElkxMV-55" value="" style="group" parent="1" vertex="1" connectable="0">
          <mxGeometry x="467" y="170" width="120" height="420" as="geometry" />
        </mxCell>
        <mxCell id="_TrwOz8sSUQ42wElkxMV-35" value="" style="rounded=0;whiteSpace=wrap;html=1;container=0;" parent="_TrwOz8sSUQ42wElkxMV-55" vertex="1">
          <mxGeometry width="120" height="420" as="geometry" />
        </mxCell>
        <mxCell id="_TrwOz8sSUQ42wElkxMV-36" value="Chapter 4&lt;br&gt;&lt;b&gt;Meta-Model&lt;/b&gt;" style="text;html=1;strokeColor=none;fillColor=none;align=center;verticalAlign=middle;whiteSpace=wrap;rounded=0;container=0;" parent="_TrwOz8sSUQ42wElkxMV-55" vertex="1">
          <mxGeometry x="10" y="10" width="100" height="30" as="geometry" />
        </mxCell>
        <mxCell id="_TrwOz8sSUQ42wElkxMV-37" value="§4.2&lt;br&gt;&lt;b&gt;Requirements Analysis&lt;/b&gt;" style="rounded=0;whiteSpace=wrap;html=1;fillColor=#fff2cc;strokeColor=#d6b656;container=0;" parent="_TrwOz8sSUQ42wElkxMV-55" vertex="1">
          <mxGeometry x="10" y="60" width="100" height="50" as="geometry" />
        </mxCell>
        <mxCell id="_TrwOz8sSUQ42wElkxMV-38" value="§4.3&lt;br&gt;&lt;b&gt;Overview&lt;/b&gt;" style="rounded=0;whiteSpace=wrap;html=1;fillColor=#fff2cc;strokeColor=#d6b656;container=0;" parent="_TrwOz8sSUQ42wElkxMV-55" vertex="1">
          <mxGeometry x="10" y="120" width="100" height="50" as="geometry" />
        </mxCell>
        <mxCell id="_TrwOz8sSUQ42wElkxMV-39" value="§4.4&lt;br&gt;&lt;b&gt;Meta-Model Process&lt;/b&gt;" style="rounded=0;whiteSpace=wrap;html=1;fillColor=#fff2cc;strokeColor=#d6b656;container=0;" parent="_TrwOz8sSUQ42wElkxMV-55" vertex="1">
          <mxGeometry x="10" y="180" width="100" height="50" as="geometry" />
        </mxCell>
        <mxCell id="_TrwOz8sSUQ42wElkxMV-40" value="§4.5&lt;br&gt;&lt;b&gt;Accuracy&lt;/b&gt;" style="rounded=0;whiteSpace=wrap;html=1;fillColor=#fff2cc;strokeColor=#d6b656;" parent="_TrwOz8sSUQ42wElkxMV-55" vertex="1">
          <mxGeometry x="10" y="240" width="100" height="50" as="geometry" />
        </mxCell>
        <mxCell id="_TrwOz8sSUQ42wElkxMV-41" value="§4.6&lt;br&gt;&lt;b&gt;Meta-Functions&lt;/b&gt;" style="rounded=0;whiteSpace=wrap;html=1;fillColor=#fff2cc;strokeColor=#d6b656;" parent="_TrwOz8sSUQ42wElkxMV-55" vertex="1">
          <mxGeometry x="10" y="300" width="100" height="50" as="geometry" />
        </mxCell>
        <mxCell id="_TrwOz8sSUQ42wElkxMV-42" value="§4.7&amp;nbsp;&lt;br&gt;&lt;b&gt;Requirements Addressal&lt;/b&gt;" style="rounded=0;whiteSpace=wrap;html=1;fillColor=#fff2cc;strokeColor=#d6b656;" parent="_TrwOz8sSUQ42wElkxMV-55" vertex="1">
          <mxGeometry x="10" y="360" width="100" height="50" as="geometry" />
        </mxCell>
        <mxCell id="_TrwOz8sSUQ42wElkxMV-56" value="" style="group" parent="1" vertex="1" connectable="0">
          <mxGeometry x="630" y="200" width="120" height="360" as="geometry" />
        </mxCell>
        <mxCell id="_TrwOz8sSUQ42wElkxMV-43" value="" style="rounded=0;whiteSpace=wrap;html=1;container=0;" parent="_TrwOz8sSUQ42wElkxMV-56" vertex="1">
          <mxGeometry width="120" height="360" as="geometry" />
        </mxCell>
        <mxCell id="_TrwOz8sSUQ42wElkxMV-44" value="Chapter 4&lt;br&gt;&lt;b&gt;Evaluation&lt;/b&gt;" style="text;html=1;strokeColor=none;fillColor=none;align=center;verticalAlign=middle;whiteSpace=wrap;rounded=0;container=0;" parent="_TrwOz8sSUQ42wElkxMV-56" vertex="1">
          <mxGeometry x="10" y="10" width="100" height="30" as="geometry" />
        </mxCell>
        <mxCell id="_TrwOz8sSUQ42wElkxMV-45" value="§5.2&lt;br&gt;&lt;b&gt;Tool Integration&lt;/b&gt;" style="rounded=0;whiteSpace=wrap;html=1;fillColor=#f8cecc;strokeColor=#b85450;container=0;" parent="_TrwOz8sSUQ42wElkxMV-56" vertex="1">
          <mxGeometry x="10" y="60" width="100" height="50" as="geometry" />
        </mxCell>
        <mxCell id="_TrwOz8sSUQ42wElkxMV-46" value="§5.3&lt;br&gt;&lt;b&gt;Performance Validation&lt;/b&gt;" style="rounded=0;whiteSpace=wrap;html=1;fillColor=#f8cecc;strokeColor=#b85450;container=0;" parent="_TrwOz8sSUQ42wElkxMV-56" vertex="1">
          <mxGeometry x="10" y="120" width="100" height="50" as="geometry" />
        </mxCell>
        <mxCell id="_TrwOz8sSUQ42wElkxMV-47" value="§5.4&lt;br&gt;&lt;b&gt;Accuracy Validation&lt;/b&gt;" style="rounded=0;whiteSpace=wrap;html=1;fillColor=#f8cecc;strokeColor=#b85450;container=0;" parent="_TrwOz8sSUQ42wElkxMV-56" vertex="1">
          <mxGeometry x="10" y="180" width="100" height="50" as="geometry" />
        </mxCell>
        <mxCell id="_TrwOz8sSUQ42wElkxMV-48" value="§5.5&lt;br&gt;&lt;b&gt;Usability Evaluation&lt;/b&gt;" style="rounded=0;whiteSpace=wrap;html=1;fillColor=#f8cecc;strokeColor=#b85450;" parent="_TrwOz8sSUQ42wElkxMV-56" vertex="1">
          <mxGeometry x="10" y="240" width="100" height="50" as="geometry" />
        </mxCell>
        <mxCell id="_TrwOz8sSUQ42wElkxMV-49" value="§5.6&lt;br&gt;&lt;b style=&quot;border-color: var(--border-color);&quot;&gt;Universality Evaluation&lt;/b&gt;" style="rounded=0;whiteSpace=wrap;html=1;fillColor=#f8cecc;strokeColor=#b85450;" parent="_TrwOz8sSUQ42wElkxMV-56" vertex="1">
          <mxGeometry x="10" y="300" width="100" height="50" as="geometry" />
        </mxCell>
        <mxCell id="_TrwOz8sSUQ42wElkxMV-59" style="edgeStyle=orthogonalEdgeStyle;rounded=0;orthogonalLoop=1;jettySize=auto;html=1;entryX=0;entryY=0.5;entryDx=0;entryDy=0;" parent="1" source="_TrwOz8sSUQ42wElkxMV-7" target="_TrwOz8sSUQ42wElkxMV-27" edge="1">
          <mxGeometry relative="1" as="geometry" />
        </mxCell>
        <mxCell id="_TrwOz8sSUQ42wElkxMV-60" style="edgeStyle=orthogonalEdgeStyle;rounded=0;orthogonalLoop=1;jettySize=auto;html=1;entryX=0;entryY=0.5;entryDx=0;entryDy=0;" parent="1" source="_TrwOz8sSUQ42wElkxMV-27" target="_TrwOz8sSUQ42wElkxMV-35" edge="1">
          <mxGeometry relative="1" as="geometry" />
        </mxCell>
        <mxCell id="_TrwOz8sSUQ42wElkxMV-61" style="edgeStyle=orthogonalEdgeStyle;rounded=0;orthogonalLoop=1;jettySize=auto;html=1;entryX=0;entryY=0.5;entryDx=0;entryDy=0;" parent="1" source="_TrwOz8sSUQ42wElkxMV-35" target="_TrwOz8sSUQ42wElkxMV-43" edge="1">
          <mxGeometry relative="1" as="geometry" />
        </mxCell>
        <mxCell id="_TrwOz8sSUQ42wElkxMV-62" style="edgeStyle=orthogonalEdgeStyle;rounded=0;orthogonalLoop=1;jettySize=auto;html=1;entryX=0;entryY=0.5;entryDx=0;entryDy=0;" parent="1" source="_TrwOz8sSUQ42wElkxMV-43" target="_TrwOz8sSUQ42wElkxMV-51" edge="1">
          <mxGeometry relative="1" as="geometry" />
        </mxCell>
        <mxCell id="RUVO_MGkrx11-9R1T5CR-1" value="&lt;font style=&quot;font-size: 11px;&quot;&gt;&lt;br&gt;&lt;br&gt;&lt;br&gt;You are here&lt;/font&gt;" style="shape=callout;whiteSpace=wrap;html=1;perimeter=calloutPerimeter;size=20;position=0;base=80;position2=0.5;" vertex="1" parent="1">
          <mxGeometry x="30" y="270" width="60" height="80" as="geometry" />
        </mxCell>
        <mxCell id="RUVO_MGkrx11-9R1T5CR-4" value="" style="shape=image;verticalLabelPosition=bottom;labelBackgroundColor=default;verticalAlign=top;aspect=fixed;imageAspect=0;image=data:image/png,iVBORw0KGgoAAAANSUhEUgAABHYAAAVSCAYAAABje3wUAAAMQGlDQ1BJQ0MgUHJvZmlsZQAASImVVwdYU8kWnluSkEBoAQSkhN4EESkBpITQQu8IohKSAKHEGAgqdnRRwbWLCNjQVREFKyAWFLGzKPa+WFBQ1sWCXXmTArruK9+b75s7//3nzH/OnJlbBgC1ExyRKAdVByBXmC+OCfKjj09KppN6AAHoAAqwBEYcbp6IGRUVBmAZav9e3t0AiLS9ai/V+mf/fy0aPH4eFwAkCuI0Xh43F+KDAOBVXJE4HwCilDebli+SYliBlhgGCPFiKc6Q4yopTpPjvTKbuBgWxG0AKKlwOOIMAFQvQ55ewM2AGqr9EDsKeQIhAGp0iL1zc6fwIE6F2BraiCCW6jPSftDJ+Jtm2rAmh5MxjOVzkRUlf0GeKIcz4/9Mx/8uuTmSIR+WsKpkioNjpHOGebuVPSVUilUg7hOmRURCrAnxBwFPZg8xSsmUBMfL7VEDbh4L5gyuNEAdeRz/UIgNIA4U5kSEKfi0dEEgG2K4Q9Dpgnx2HMS6EC/m5wXEKmw2i6fEKHyhDeliFlPBn+OIZX6lvh5IsuOZCv3XmXy2Qh9TLcyMS4SYArF5gSAhAmJViB3ysmNDFTbjCjNZEUM2YkmMNH5ziGP4wiA/uT5WkC4OjFHYl+TmDc0X25wpYEco8P78zLhgeX6wNi5HFj+cC3aZL2TGD+nw88aHDc2Fx/cPkM8d6+EL42MVOh9E+X4x8rE4RZQTpbDHTfk5QVLeFGLnvIJYxVg8IR9uSLk+ni7Kj4qTx4kXZnFCouTx4CtAGGABf0AHEljTwBSQBQQdfY198E7eEwg4QAwyAB/YK5ihEYmyHiG8xoJC8CdEfJA3PM5P1ssHBZD/OszKr/YgXdZbIBuRDZ5CnAtCQQ68l8hGCYe9JYAnkBH8wzsHVi6MNwdWaf+/54fY7wwTMmEKRjLkka42ZEkMIPoTg4mBRBtcH/fGPfEwePWF1Qln4O5D8/huT3hK6CQ8IlwndBFuTxYUiX+KMhx0Qf1ARS7SfswFbgk1XXA/3AuqQ2VcB9cH9rgz9MPEfaBnF8iyFHFLs0L/SftvM/hhNRR2ZEcySh5B9iVb/zxS1VbVZVhFmusf8yOPNW0436zhnp/9s37IPg+2oT9bYouxA9hZ7CR2HjuKNQI61oI1Ye3YMSke3l1PZLtryFuMLJ5sqCP4h7+hlZVmMs+x1rHX8Yu8L58/XfqOBqwpohliQUZmPp0Jvwh8OlvIdRhFd3J0cgZA+n2Rv77eRMu+G4hO+3duwR8AeLUMDg4e+c6FtACwzw0+/oe/c9YM+OlQBuDcYa5EXCDncOmFAN8SavBJ0wNGwAxYw/k4AVfgCXxBAAgBkSAOJIFJMPpMuM/FYBqYBeaDYlAKVoC1oAJsAlvBTrAH7AeN4Cg4Cc6Ai+AyuA7uwt3TDV6AfvAOfEYQhIRQERqihxgjFogd4oQwEG8kAAlDYpAkJBXJQISIBJmFLEBKkVVIBbIFqUH2IYeRk8h5pBO5jTxEepHXyCcUQ1VQLdQQtURHowyUiYaicehENAOdihaiC9FlaDlaje5GG9CT6EX0OtqFvkAHMIApYzqYCWaPMTAWFoklY+mYGJuDlWBlWDVWhzXDdb6KdWF92EeciNNwOm4Pd3AwHo9z8an4HHwpXoHvxBvwNvwq/hDvx78RqAQDgh3Bg8AmjCdkEKYRigllhO2EQ4TT8FnqJrwjEok6RCuiG3wWk4hZxJnEpcQNxHriCWIn8TFxgEQi6ZHsSF6kSBKHlE8qJq0n7Sa1kK6QukkflJSVjJWclAKVkpWESkVKZUq7lI4rXVF6pvSZrE62IHuQI8k88gzycvI2cjP5Ermb/JmiQbGieFHiKFmU+ZRySh3lNOUe5Y2ysrKpsrtytLJAeZ5yufJe5XPKD5U/qmiq2KqwVFJUJCrLVHaonFC5rfKGSqVaUn2pydR86jJqDfUU9QH1gypN1UGVrcpTnataqdqgekX1pRpZzUKNqTZJrVCtTO2A2iW1PnWyuqU6S52jPke9Uv2w+k31AQ2axhiNSI1cjaUauzTOa/RokjQtNQM0eZoLNbdqntJ8TMNoZjQWjUtbQNtGO03r1iJqWWmxtbK0SrX2aHVo9WtrajtrJ2hP167UPqbdpYPpWOqwdXJ0luvs17mh82mE4QjmCP6IJSPqRlwZ8V53pK6vLl+3RLde97ruJz26XoBett5KvUa9+/q4vq1+tP40/Y36p/X7RmqN9BzJHVkycv/IOwaoga1BjMFMg60G7QYDhkaGQYYiw/WGpwz7jHSMfI2yjNYYHTfqNaYZexsLjNcYtxg/p2vTmfQcejm9jd5vYmASbCIx2WLSYfLZ1Mo03rTItN70vhnFjGGWbrbGrNWs39zYPNx8lnmt+R0LsgXDItNincVZi/eWVpaJlossGy17rHSt2FaFVrVW96yp1j7WU62rra/ZEG0YNtk2G2wu26K2LraZtpW2l+xQO1c7gd0Gu85RhFHuo4SjqkfdtFexZ9oX2NfaP3TQcQhzKHJodHg52nx08uiVo8+O/ubo4pjjuM3x7hjNMSFjisY0j3ntZOvEdap0ujaWOjZw7NyxTWNfOds58503Ot9yobmEuyxyaXX56urmKnatc+11M3dLdatyu8nQYkQxljLOuRPc/dznuh91/+jh6pHvsd/jL097z2zPXZ4946zG8cdtG/fYy9SL47XFq8ub7p3qvdm7y8fEh+NT7fPI18yX57vd9xnThpnF3M186efoJ/Y75Pee5cGazTrhj/kH+Zf4dwRoBsQHVAQ8CDQNzAisDewPcgmaGXQimBAcGrwy+CbbkM1l17D7Q9xCZoe0haqExoZWhD4Ksw0ThzWHo+Eh4avD70VYRAgjGiNBJDtydeT9KKuoqVFHoonRUdGV0U9jxsTMijkbS4udHLsr9l2cX9zyuLvx1vGS+NYEtYSUhJqE94n+iasSu8aPHj97/MUk/SRBUlMyKTkheXvywISACWsndKe4pBSn3JhoNXH6xPOT9CflTDo2WW0yZ/KBVEJqYuqu1C+cSE41ZyCNnVaV1s9lcddxX/B8eWt4vXwv/ir+s3Sv9FXpPRleGaszejN9Mssy+wQsQYXgVVZw1qas99mR2TuyB3MSc+pzlXJTcw8LNYXZwrYpRlOmT+kU2YmKRV1TPaaundovDhVvz0PyJuY15WvBH/l2ibXkF8nDAu+CyoIP0xKmHZiuMV04vX2G7YwlM54VBhb+NhOfyZ3ZOstk1vxZD2czZ2+Zg8xJm9M612zuwrnd84Lm7ZxPmZ89//cix6JVRW8XJC5oXmi4cN7Cx78E/VJbrFosLr65yHPRpsX4YsHijiVjl6xf8q2EV3Kh1LG0rPTLUu7SC7+O+bX818Fl6cs6lrsu37iCuEK44sZKn5U7V2msKlz1eHX46oY19DUla96unbz2fJlz2aZ1lHWSdV3lYeVN683Xr1j/pSKz4nqlX2V9lUHVkqr3G3gbrmz03Vi3yXBT6aZPmwWbb20J2tJQbVldtpW4tWDr020J287+xvitZrv+9tLtX3cId3TtjNnZVuNWU7PLYNfyWrRWUtu7O2X35T3+e5rq7Ou21OvUl+4FeyV7n+9L3Xdjf+j+1gOMA3UHLQ5WHaIdKmlAGmY09DdmNnY1JTV1Hg453Nrs2XzoiMORHUdNjlYe0z62/Djl+MLjgy2FLQMnRCf6TmacfNw6ufXuqfGnrrVFt3WcDj197kzgmVNnmWdbznmdO3re4/zhC4wLjRddLza0u7Qf+t3l90Mdrh0Nl9wuNV12v9zcOa7z+BWfKyev+l89c4197eL1iOudN+Jv3LqZcrPrFu9Wz+2c26/uFNz5fHfePcK9kvvq98seGDyo/sPmj/ou165jD/0ftj+KfXT3Mffxiyd5T750L3xKfVr2zPhZTY9Tz9HewN7Lzyc8734hevG5r/hPjT+rXlq/PPiX71/t/eP7u1+JXw2+XvpG782Ot85vWweiBh68y333+X3JB70POz8yPp79lPjp2edpX0hfyr/afG3+Fvrt3mDu4KCII+bIfgUwWNH0dABe7wCAmgQADZ7PKBPk5z9ZQeRnVhkC/wnLz4iy4gpAHfx/j+6Dfzc3Adi7DR6/oL5aCgBRVADi3AE6duxwHTqryc6V0kKE54DNUV/TctPAvynyM+cPcf/cAqmqM/i5/Rf1g3x13viS/wAAAIplWElmTU0AKgAAAAgABAEaAAUAAAABAAAAPgEbAAUAAAABAAAARgEoAAMAAAABAAIAAIdpAAQAAAABAAAATgAAAAAAAACQAAAAAQAAAJAAAAABAAOShgAHAAAAEgAAAHigAgAEAAAAAQAABHagAwAEAAAAAQAABVIAAAAAQVNDSUkAAABTY3JlZW5zaG90HHKWCwAAAAlwSFlzAAAWJQAAFiUBSVIk8AAAAdhpVFh0WE1MOmNvbS5hZG9iZS54bXAAAAAAADx4OnhtcG1ldGEgeG1sbnM6eD0iYWRvYmU6bnM6bWV0YS8iIHg6eG1wdGs9IlhNUCBDb3JlIDYuMC4wIj4KICAgPHJkZjpSREYgeG1sbnM6cmRmPSJodHRwOi8vd3d3LnczLm9yZy8xOTk5LzAyLzIyLXJkZi1zeW50YXgtbnMjIj4KICAgICAgPHJkZjpEZXNjcmlwdGlvbiByZGY6YWJvdXQ9IiIKICAgICAgICAgICAgeG1sbnM6ZXhpZj0iaHR0cDovL25zLmFkb2JlLmNvbS9leGlmLzEuMC8iPgogICAgICAgICA8ZXhpZjpQaXhlbFlEaW1lbnNpb24+MTM2MjwvZXhpZjpQaXhlbFlEaW1lbnNpb24+CiAgICAgICAgIDxleGlmOlBpeGVsWERpbWVuc2lvbj4xMTQyPC9leGlmOlBpeGVsWERpbWVuc2lvbj4KICAgICAgICAgPGV4aWY6VXNlckNvbW1lbnQ+U2NyZWVuc2hvdDwvZXhpZjpVc2VyQ29tbWVudD4KICAgICAgPC9yZGY6RGVzY3JpcHRpb24+CiAgIDwvcmRmOlJERj4KPC94OnhtcG1ldGE+CpQL0zAAAAAcaURPVAAAAAIAAAAAAAACqQAAACgAAAKpAAACqQAA131XgEdmAABAAElEQVR4AezdB3hU1fbw4ZWQkAChgyC9SJfepUiVDgKBK0gHKSL10kSlI72KFAu9CAgCUgQuItKE0KR3lF4EQXqA5Pvvcz+4tIRMOXPabz/PPJnMnLP3Wu8eNa45Z2+/yP9rQkMAAQQQQAABBBBAAAEEEEAAAQQQsJyAH4Udy80ZASOAAAIIIIAAAggggAACCCCAAAKaAIUdPggIIIAAAggggAACCCCAAAIIIICARQUo7Fh04ggbAQQQQAABBBBAAAEEEEAAAQQQoLDDZwABBBBAAAEEEEAAAQQQQAABBBCwqACFHYtOHGEjgAACCCCAAAIIIIAAAggggAACFHb4DCCAAAIIIIAAAggggAACCCCAAAIWFaCwY9GJI2wEEEAAAQQQQAABBBBAAAEEEECAwg6fAQQQQAABBBBAAAEEEEAAAQQQQMCiAhR2LDpxhI0AAggggAACCCCAAAIIIIAAAghQ2OEzgAACCCCAAAIIIIAAAggggAACCFhUgMKORSeOsBFAAAEEEEAAAQQQQAABBBBAAAEKO3wGEEAAAQQQQAABBBBAAAEEEEAAAYsKUNix6MQRNgIIIIAAAggggAACCCCAAAIIIEBhh88AAggggAACCCCAAAIIIIAAAgggYFEBCjsWnTjCRgABBBBAAAEEEEAAAQQQQAABBCjs8BlAAAEEEEAAAQQQQAABBBBAAAEELCpAYceiE0fYCCCAAAIIIIAAAggggAACCCCAAIUdPgMIIIAAAggggAACCCCAAAIIIICARQUo7Fh04ggbAQQQQAABBBBAAAEEEEAAAQQQoLDDZwABBBBAAAEEEEAAAQQQQAABBBCwqACFHYtOHGEjgAACCCCAAAIIIIAAAggggAACFHb4DCCAAAIIIIAAAggggAACCCCAAAIWFaCwY9GJI2wEEEAAAQQQQAABBBBAAAEEEECAwg6fAQQQQAABBBBAAAEEEEAAAQQQQMCiAhR2LDpxhI0AAggggAACCCCAAAIIIIAAAghQ2OEzgAACCCCAAAIIIIAAAggggAACCFhUgMKORSeOsBFAAAEEEEAAAQQQQAABBBBAAAEKO3wGEEAAAQQQQAABBBBAAAEEEEAAAYsKUNix6MQRNgIIIIAAAggggAACCCCAAAIIIEBhh88AAggggAACCCCAAAIIIIAAAgggYFEBCjsWnTjCRgABBBBAAAEEEEAAAQQQQAABBCjs8BlAAAEEEEAAAQQQQAABBBBAAAEELCpAYceiE0fYCCCAAAIIIIAAAggggAACCCCAAIUdPgMIIIAAAggggAACCCCAAAIIIICARQUo7Fh04ggbAQQQQAABBBBAAAEEEEAAAQQQoLDDZwABBBBAAAEEEEAAAQQQQAABBBCwqACFHYtOHGEjgAACCCCAAAIIIIAAAggggAACFHb4DCCAAAIIIIAAAggggAACCCCAAAIWFaCwY9GJI2wEEEAAAQQQQAABBBBAAAEEEECAwg6fAQQQQAABBBBAAAEEEEAAAQQQQMCiAhR2LDpxhI0AAggggAACCCCAAAIIIIAAAghQ2OEzgAACCCCAAAIIIIAAAggggAACCFhUgMKORSeOsBFAAAEEEEAAAQQQQAABBBBAAAEKO3wGEEAAAQQQQAABBBBAAAEEEEAAAYsKUNix6MQRNgIIIIAAAggggAACCCCAAAIIIEBhh88AAggggAACCCCAAAIIIIAAAgggYFEBCjsWnTjCRgABBBBAAAEEEEAAAQQQQAABBCjs8BlAAAEEEEAAAQQQQAABBBBAAAEELCpAYceiE0fYCCCAAAII6CUQGRkpt27dkhs3bsj169e1n+q5ety+fVvu3Lkjd+/ejfJx//59efjwoTx69CjKR0REhPj5+UmsWLGifcSOHVvixInz5BE3btwnzx+/rl5LmDDhC48ECRJIQECAXkz0iwACCCCAAAIImEKAwo4ppoEgEEAAAQQQ0E/g77//litXrsjly5e1n+r5yx6Pizj//POPVpDRLyLf9KwKR/HixXtS8EmWLJkkT578yeO111578vzp11WxiYYAAggggAACCFhFgMKOVWaKOBFAAAEEEHhOQF0Vc+HCBTl37tyTx9mzZ588f/y6urqGFjMBVdRJmTKlpE6dWtKkSaP9VM+f/11dJURDAAEEEEAAAQTMIEBhxwyzQAwIIIAAAghEIfDXX3/JyZMn5dSpU09+Pn5+5swZefDgQRRn8rJeAupKoBQpUkjGjBklU6ZM2s+nn6uCEFf96KVPvwgggAACCCDwvACFnedF+B0BBBBAAAEfC6j1bI4ePSqHDx+WI0eOPPmpCjo3b970cTQM56lAYGCgpE+fXrJmzSrZsmWT7NmzP/mpCkI0BBBAAAEEEEDAmwIUdrypSV8IIIAAAghEI3Dt2jXZt2+f7N+/XyvePC7kqNun1ILFNPsLJE6c+EmRRxV9cuXKJblz59YKQepKIBoCCCCAAAIIIOCqAIUdV8U4HgEEEEAAgVcIqNuj1JU3qoizd+/eJw9VwKEh8DIBtauXKvCoR548ebTHm2++KWpnLxoCCCCAAAIIIBCdAIWd6HR4DwEEEEAAgVcI3Lt3Tyvc7NixQ9Rj9+7dcujQIVFbftMQ8ERAXcGTIUMGyZcvnxQsWFAKFy6s/UyaNKkn3XIuAggggAACCNhMgMKOzSaUdBBAAAEE9BNQV+Ko26geF3HUT3VVDgsY62dOzy8KqIWaCxUq9OShij7qih8aAggggAACCDhTgMKOM+edrBFAAAEEYiBw8eJF2bJly5OHuhpHXaFDQ8BMAurKHrVQ81tvvfXkkSNHDmHNHjPNErEggAACCCCgnwCFHf1s6RkBBBBAwEICERERcuDAAdm8efOTQs6JEycslAGhIvA/gSRJkkjx4sWfFHqKFCkicePG/d8BPEMAAQQQQAAB2whQ2LHNVJIIAggggIArAo8ePZKdO3fKL7/8IuvXr5etW7fKjRs3XOmCYxGwjIDagl2t1VOmTBntUapUKYkfP75l4idQBBBAAAEEEIhagMJO1Da8gwACCCBgIwF1Rc6ePXu0Io4q5mzcuJFCjo3ml1RcEwgICNDW6FGFnrJly0qJEiUkXrx4rnXC0QgggAACCCBgCgEKO6aYBoJAAAEEENBD4PDhw7JmzRqtmLNhwwb5+++/9RiGPhGwvEDs2LG1XbdUkadixYrabVzqKh8aAggggAACCJhfgMKO+eeICBFAAAEEYiigbqX6+eef5aeffpLVq1fLn3/+GcMzOQwBBJ4WSJAggZQrV04qVaoklStX1rZdf/p9niOAAAIIIICAeQQo7JhnLogEAQQQQMBFAXV71a5du7QijirkqHVyHj586GIvHI4AAq8SyJYtm1bgUYWet99+m4WYXwXG+wgggAACCPhQgMKOD7EZCgEEEEDAc4Fbt27J2rVrZdmyZbJy5Uq5fPmy553SAwIIxFggODhYW5enZs2aUr16dUmTJk2Mz+VABBBAAAEEEPC+AIUd75vSIwIIIICAlwXOnTsny5cv14o56lare/fueXkEukMAAXcE/Pz8pECBAqKKPDVq1NB23lKv0RBAAAEEEEDAdwIUdnxnzUgIIIAAAi4I/P7771ohR12Zo7Ylj4yMdOFsDkUAASME0qVLpxV4VKFH7bilFmWmIYAAAggggIC+AhR29PWldwQQQAABFwRUAef777/XHsePH3fhTA5FAAGzCSRKlEhq1aoloaGh2k5bQUFBZguReBBAAAEEELCFAIUdW0wjSSCAAALWFFBX4ahizsKFC7VizsmTJ62ZCFEjgEC0AgkTJtRu11JFHrUAM0WeaLl4EwEEEEAAAZcEKOy4xMXBCCCAAAKeCqhiTlhYmFbMWbRokZw6dcrTLjkfAQQsJKC2Ulfr8dSrV08r8qjFmGkIIIAAAggg4L4AhR337TgTAQQQQMAFgaNHj8qcOXNk7ty5wm1WLsBxKAI2FlC3a9WtW1fef/99bRt1f39/G2dLaggggAACCOgjQGFHH1d6RQABBBD4P4FLly7J/PnztYLO9u3bMUEAAQSiFFDbpjds2FAr8uTJkyfK43gDAQQQQAABBJ4VoLDzrAe/IYAAAgh4KHDr1i1ZsmSJVsz5z3/+Iw8fPvSwR05HAAGnCeTOnVsr8DRo0EDUTls0BBBAAAEEEIhagMJO1Da8gwACCCAQQwG1bs6mTZtk6tSp2to5t2/fjuGZHIYAAghELaBuzSpbtqy0aNFCateuLXHixIn6YN5BAAEEEEDAoQIUdhw68aSNAAIIeEPg/PnzMnPmTJk2bZqoNXRoCCCAgF4Caj0edauWKvIULFhQr2HoFwEEEEAAAcsJUNix3JQRMAIIIGCswIMHD2T58uXa1Tk//fQTt1oZOx2MjoAjBfLmzasVeNSiy0mTJnWkAUkjgAACCCDwWIDCzmMJfiKAAAIIRCtw7NgxmTJlisyaNUsuX74c7bG8iQACCPhCICgoSGrVqiWtW7eWcuXKiZ+fny+GZQwEEEAAAQRMJUBhx1TTQTAIIICAuQTUwsc//vijTJo0SdRCyGotHRoCCCBgRoFs2bJJ27ZtpWnTppI4cWIzhkhMCCCAAAII6CJAYUcXVjpFAAEErC2g1s755ptv5Ouvv5azZ89aOxmiRwABRwnEjRtX3nvvPWnXrp0UKlTIUbmTLAIIIICAMwUo7Dhz3skaAQQQeEFAXY2zfv167eqcpUuXilpLh4YAAghYWaBw4cJagUcVethRy8ozSewIIIAAAtEJUNiJTof3EEAAAQcI3LlzR9vZavz48XLo0CEHZEyKCCDgNIEkSZJIq1at5KOPPpK0adM6LX3yRQABBBCwuQCFHZtPMOkhgAACUQmcO3dOvvzyS/nqq6/k6tWrUR3G6wgggIBtBAICAiQ0NFQ6d+4sRYsWtU1eJIIAAggg4GwBCjvOnn+yRwABBwqEhYXJ2LFjZeHChdxu5cD5J2UEEPivQPHixbUCT506dUQVfGgIIIAAAghYVYDCjlVnjrgRQAABFwQePXokS5Ys0Qo6mzZtcuFMDkUAAQTsLZAuXTrp0KGDdqtWokSJ7J0s2SGAAAII2FKAwo4tp5WkEEAAgf8K3L17V6ZPny4jR46UkydPwoIAAgggEIVA/PjxpXXr1tKlSxdJnTp1FEfxMgIIIIAAAuYToLBjvjkhIgQQQMBjgevXr2u7W40bN04uXbrkcX90gAACCDhFIHbs2NK4cWPp3r27ZMuWzSlpkycCCCCAgIUFKOxYePIIHQEEEHhe4MKFC9rtVpMnT5Z//vnn+bf5HQEEEEAghgL+/v5Su3Zt6dmzp6ht02kIIIAAAgiYVYDCjllnhrgQQAABFwSOHz8uI0aMkBkzZsj9+/ddOJNDEUAAAQReJVC+fHmtwFOxYsVXHcr7CCCAAAII+FyAwo7PyRkQAQQQ8J7AoUOHZODAgbJgwQJRCyTTEEAAAQT0E1BX7vTp00eqVasmfn5++g1EzwgggAACCLggQGHHBSwORQABBMwicPDgwScFnYiICLOERRwIIICAIwQKFSqkFXiqV69OgccRM06SCCCAgLkFKOyYe36IDgEEEHhG4MCBA1pBZ+HChUJB5xkafkEAAQR8LlCwYEGtwFOjRg0KPD7XZ0AEEEAAgccCFHYeS/ATAQQQMLGAKugMGDBAvv/+ewo6Jp4nQkMAAWcKFChQQCvw1KxZkwKPMz8CZI0AAggYKkBhx1B+BkcAAQSiFzh8+LD07duXgk70TLyLAAIImEIgf/78WhFe3aJFQwABBBBAwFcCFHZ8Jc04CCCAgAsCp0+flv79+2u7XLEosgtwHIoAAgiYQKBEiRLy+eefS+nSpU0QDSEggAACCNhdgMKO3WeY/BBAwFICV65c0f5nYNKkSWxbbqmZI1gEEEDgRYEqVarI4MGDRV3JQ0MAAQQQQEAvAQo7esnSLwIIIOCCwD///COjR4/WHjdv3nThTA5FAAEEEDCzgNoWvX79+totWlmzZjVzqMSGAAIIIGBRAQo7Fp04wkYAAXsI3Lt3TyZOnChDhgyRv/76yx5JkQUCCCCAwAsCAQEB0rx5c22R5TRp0rzwPi8ggAACCCDgrgCFHXflOA8BBBDwQCAyMlLmzp0rvXv3FrWeDg0BBBBAwBkCceLEka5du0rPnj0lfvz4zkiaLBFAAAEEdBWgsKMrL50jgAACLwps3LhR/v3vf0tYWNiLb/IKAggggIAjBFKkSKHdntWyZUuJFSuWI3ImSQQQQAABfQQo7OjjSq8IIIDACwLHjx/XvqFdvHjxC+/xAgIIIICAMwXefPNNGTFihFSuXNmZAGSNAAIIIOCxAIUdjwnpAAEEEIhe4Nq1azJw4EBtLZ3w8PDoD+ZdBBBAAAFHCrzzzjsycuRIyZ07tyPzJ2kEEEAAAfcFKOy4b8eZCCCAQLQCDx48kAkTJsigQYNEFXdoCCCAAAIIRCegbslSCyyrLwNSpkwZ3aG8hwACCCCAwBMBCjtPKHiCAAIIeE9gzZo10qlTJzl8+LD3OqUnBBBAAAFHCCRMmFDbPatDhw4SGBjoiJxJEgEEEEDAfQEKO+7bcSYCCCDwgsAff/yh7Xbyww8/vPAeLyCAAAIIIOCKQM6cOWXcuHFSoUIFV07jWAQQQAABhwlQ2HHYhJMuAgjoI3D37l0ZNmyYDB8+XNRzGgIIIIAAAt4SqFu3rowaNUrSp0/vrS7pBwEEEEDARgIUdmw0maSCAALGCKhdrtT25epqHRoCCCCAAAJ6CMSNG1fbWbFHjx4SHBysxxD0iQACCCBgUQEKOxadOMJGAAHjBdT6OR07dpS1a9caHwwRIIAAAgg4QiBjxowyZswYqVWrliPyJUkEEEAAgVcLUNh5tRFHIIAAAs8I3Lt3Tz7//HPt1iu2L3+Ghl8QQAABBHwkoAo748ePl3Tp0vloRIZBAAEEEDCrAIUds84McSGAgCkF/vOf/8iHH34ox44dM2V8BIUAAggg4ByBkJAQ6d+/v3b1aEBAgHMSJ1MEEEAAgWcEKOw8w8EvCCCAwMsFLl++rO12NWfOnJcfwKsIIIAAAggYJJA/f36ZMmWKFC5c2KAIGBYBBBBAwEgBCjtG6jM2AgiYXiAyMlK++eYb6dWrl1y7ds308RIgAggggIAzBWLFiiXt2rWTwYMHS4IECZyJQNYIIICAQwUo7Dh04kkbAQReLbB//35p27atbN68+dUHcwQCCCCAAAImEEiVKpWMGzdOQkNDTRANISCAAAII+EKAwo4vlBkDAQQsJaAWRB4yZIi2QDKLI1tq6ggWAQQQQOD/C7z77rsyceJEef311zFBAAEEELC5AIUdm08w6SGAgGsCO3fulBYtWsjevXtdO5GjEUAAAQQQMJlA4sSJZfTo0dKsWTOTRUY4CCCAAALeFKCw401N+kIAAcsKqC3M1c4iI0eOlIcPH1o2DwJHAAEEEEDgeYHKlStriyuzNfrzMvyOAAII2EOAwo495pEsEEDAA4EtW7ZIy5Yt5fDhwx70wqkIIIAAAgiYV0AtqDx8+HBp3bq1+Pn5mTdQIkMAAQQQcFmAwo7LZJyAAAJ2Ebhz54588sknMn78eImIiLBLWuSBAAIIIIBAlAJly5bVdnvMlClTlMfwBgIIIICAtQQo7FhrvogWAQS8JLBp0yZtzYETJ054qUe6QQABBBBAwBoC8eLFk6FDh0r79u25escaU0aUCCCAQLQCFHai5eFNBBCwm8D9+/elb9++2lo6jx49slt65IMAAggggECMBSpWrChTp06VNGnSxPgcDkQAAQQQMJ8AhR3zzQkRIYCATgJqp6vGjRuz45VOvnSLAAIIIGA9AbVz1oQJE6Rhw4bWC56IEUAAAQQ0AQo7fBAQQMD2Amr9HLXbVZ8+fURdsUNDAAEEEEAAgWcF6tevL5MmTZIkSZI8+wa/IYAAAgiYXoDCjumniAARQMATgZMnT2pr6WzcuNGTbjgXAQQQQAAB2wukSpVKvv32W1Hbo9MQQAABBKwjQGHHOnNFpAgg4KLAN998I127dpWbN2+6eCaHI4AAAggg4EwBtRV627ZtZcSIEaIWWaYhgAACCJhfgMKO+eeICBFAwEWBa9euSatWreSHH35w8UwORwABBBBAAAElkC1bNpk3b57kz58fEAQQQAABkwtQ2DH5BBEeAgi4JvDrr79Ko0aN5MyZM66dyNEIIIAAAggg8IxAUFCQti16p06d2Bb9GRl+QQABBMwlQGHHXPNBNAgg4KaA2rp8wIABMnjwYGEbczcROQ0BDwXULRzBwcESJ04ciRs3rsSOHVtixYoV5UMtbK7+eX3Z48GDB3L37t0nD/659nByOB0BDwSqVq0q06dPl+TJk3vQC6cigAACCOglQGFHL1n6RQABnwmcPn1a3n//fdm0aZPPxmQgBOwooAoyr732mvY/b+p/4NRD7ZCTKFEiSZgw4UsfqoCjzlMPVdRRxR09Wnh4+JMijyr4/PPPP3Ljxo1nHtevX9d+Vz+vXLmiPS5fvqz9VMdGRkbqERp9IuAIgddff11mzpwpFSpUcES+JIkAAghYSYDCjpVmi1gRQOAFgUWLFskHH3wgf//99wvv8QICCPxXQBVfUqdO/eSRJk0a7bn6qXbBeVzMCQkJsS2ZKgw9LvZcuHBBzp07J2fPntV+Pv1crdFFQwCBlwv4+/tL9+7dZeDAgRIYGPjyg3gVAQQQQMDnAhR2fE7OgAgg4A2BO3fuSJcuXeSrr77yRnf0gYClBQICAiRt2rSSKVMmyZgx4ws/uX0i5tN7+/ZtOXXqlPY4efLkMz/V6+p9GgJOFyhSpIi2sLL6dw4NAQQQQMB4AQo7xs8BESCAgIsCR48elXr16snevXtdPJPDEbC2QOLEiSV79uzaQ+1Y8/i5+p8rvj3Xf27VrVznz5+XI0eOyOHDh5881O9qwXZu9dJ/DhjBPALqFs2pU6dK7dq1zRMUkSCAAAIOFaCw49CJJ20ErCqwcOFCbStztb4GDQG7Cqj1at58803JnTu35MmTR3vkzJlTUqRIYdeULZ+XupJHFXv27dunFZ1V4Vk91O1fNATsKqDW1OratasMGTKE4rJdJ5m8EEDAEgIUdiwxTQSJAAJqfQx1X//48ePBQMBWAsmSJZNChQpJwYIFJW/evFoR54033tB2krJVog5NRq3n87jIs3v3bgkLC5MTJ05wdY9DPw92TbtEiRLy3XffiVq3i4YAAggg4HsBCju+N2dEBBBwUUDtelW/fn3Ztm2bi2dyOALmElA7S6kCjirkqEfhwoUlQ4YM5gqSaHQXUIu979y5Uyvy7NixQ9RD/XuOhoCVBdRaXnPmzJGKFStaOQ1iRwABBCwpQGHHktNG0Ag4R2DVqlXSuHFjuXr1qnOSJlNbCKhbFLJkySJvvfWWqG+z1UOtiaPXduC2QHNwEhcvXpQtW7Zoj82bN8uuXbtEXalIQ8BKAmrXrD59+shnn30m6jkNAQQQQMA3AhR2fOPMKAgg4KLAo0ePpG/fvtp9+xERES6ezeEI+F5ALV6srsB5XMRRBR12o/L9PNhlxLt372pX8qgijyr4bNq0SdSVPjQErCDwzjvvyOzZs/l3oBUmixgRQMAWAhR2bDGNJIGAvQSuXbsmDRo0kDVr1tgrMbKxlUCsWLGkQIECUq5cOSlbtqxW0AkJCbFVjiRjHgFV7N6zZ4+sX79ee2zcuFFu3rxpngCJBIHnBNKlSyeLFy/Wbj997i1+RQABBBDwsgCFHS+D0h0CCHgmoBYZVVunnjx50rOOOBsBHQTULlUVKlTQCjmlS5cWtWYODQEjBB4+fKhd0aMKPevWrdOu6Ll//74RoTAmAlEKqB3+pkyZot1SHeVBvIEAAggg4LEAhR2PCekAAQS8JbBgwQJp0aKFqG2DaQiYQSBx4sRaIady5cqibi1gxxczzAoxvExA/XtTFXl++uknWb16tRw/fvxlh/EaAoYIdO7cWUaMGCEBAQGGjM+gCCCAgN0FKOzYfYbJDwELCKhbDD755BMZPnw4WwBbYL7sHKJa2FjtWlWlShVRxZyiRYuy7bidJ9zGuanCjirwqEKPuqJHrdlDQ8BIAXXL6vz581l3x8hJYGwEELCtAIUd204tiSFgDQG1nk7Dhg21/wGxRsREaTeBoKAgbZ2cmjVrSo0aNSR16tR2S5F8HC5w584dWbt2rSxdulRWrFghly9fdrgI6RslkD59em3dHbU+GQ0BBBBAwHsCFHa8Z0lPCCDgosC+ffu09XROnDjh4pkcjoBnAkmTJpVq1aqJKuZUqlRJWPTYM0/Oto6A2mVw69atsmzZMu1x+PBh6wRPpLYQUOvufP311/L+++/bIh+SQAABBMwgQGHHDLNADAg4UOCHH36QJk2ayK1btxyYPSkbIaC2HlcLc9erV0/KlCnDWg9GTAJjmk7g4MGDsnDhQu1x4MAB08VHQPYV6NatmwwbNkz8/f3tmySZIYAAAj4SoLDjI2iGQQCB/wmoP+R69+4t6ptjGgJ6CqhiTp06dSQ0NJRijp7Q9G0LgUOHDj0p8uzfv98WOZGEuQXUVZNz5szhqklzTxPRIYCABQQo7FhgkggRAbsIhIeHS+vWrWXGjBl2SYk8TCiQKFEiqVu3rjRo0EDefvttrswx4RwRkvkFVJFH7VSo/qf72LFj5g+YCC0rkDdvXu22wHTp0lk2BwJHAAEEjBagsGP0DDA+Ag4R+Ouvv7QrJzZu3OiQjEnTlwKxY8eWqlWrams2VK9eXYKDg305PGMhYGuB3377TSvwfPfdd6L+XU5DwNsCKVOmlCVLlmg7EXq7b/pDAAEEnCBAYccJs0yOCBgsoNZwULsNnTx50uBIGN5OAmpr8hIlSmjFnPr160uSJEnslB65IGA6gQcPHmg7GM6ePVu7woIt1E03RZYOSC2qPHXqVHnvvfcsnQfBI4AAAkYIUNgxQp0xEXCQwOrVq+Vf//qX3Lhxw0FZk6qeAmo78mbNmknz5s0lc+bMeg5F3wggEIWA+ne6uoLn22+/lbCwsCiO4mUEXBNQBfs+ffpI3759RT2nIYAAAgjETIDCTsycOAoBBNwQmDBhgnTp0kUePnzoxtmcgsD/BAIDA7Wrvlq2bKltTx4rVqz/vckzBBAwVGDfvn1agUetx8OtWoZOhW0GV1ftTJs2jdtqbTOjJIIAAnoLUNjRW5j+EXCggNrtqnv37jJ69GgHZk/K3hTIkSOHqGJO48aN5bXXXvNm1/SFAAJeFrh//74sXbpUu51m7dq17HzoZV+ndVeyZElt3Z2kSZM6LXXyRQABBFwWoLDjMhknIIBAdAL37t2Tpk2barupRHcc7yEQlYC6Oufdd9+VDz/8UNvVisvxo5LidQTMK3DixAmZPHmydtXF1atXzRsokZlaIHv27LJy5UrJmDGjqeMkOAQQQMBoAQo7Rs8A4yNgI4G///5b+x/yX3/91UZZkYqvBNTaOa1bt5ZWrVpJqlSpfDUs4yCAgI4Cqtg/f/58mTRpkmzbtk3HkejargJqx6zly5dLwYIF7ZoieSGAAAIeC1DY8ZiQDhBAQAn8+eefUqVKFTl06BAgCMRYQF2NU65cOe3qnJo1a0pAQECMz+VABBCwlsDOnTu1As/cuXOFHbWsNXdGRxsSEqJdCaz+zqAhgAACCLwoQGHnRRNeQQABFwV2794t1apVkwsXLrh4Joc7VSAoKEgaNmyoLa6dO3dupzKQNwKOFFALLKvbtCZOnMh/Nxz5CXAvaVX4V1d+qas6aQgggAACzwpQ2HnWg98QQMBFAbWdeb169eTmzZsunsnhThRQCyC3a9dOe6RIkcKJBOSMAAL/XyA8PFzbMn3MmDGyZ88eXBCIkcBnn30m/fv3Zzv0GGlxEAIIOEWAwo5TZpo8EdBBYPr06dqaKA8ePNChd7q0k4C6Kqdz587aVTrBwcF2So1cEEDACwLr168XVeBZsWIFu2l5wdPuXTRv3ly++uorbt+1+0STHwIIxFiAwk6MqTgQAQSeFhg1apS2pXlkZOTTL/McgWcESpUqJb169dLWX2J3q2do+AUBBF4ioNZpGz58uMyZM0f40uAlQLz0RECty6YW5ubLgickPEEAAQcLUNhx8OSTOgLuCKhCzieffCJDhgxx53TOcYCAKuBUrVpVK+iULFnSARmTIgIIeFvgzJkzor5A+Oabb+T27dve7p7+bCJQpkwZWbp0qSRIkMAmGZEGAggg4J4AhR333DgLAUcKPHr0SNu9SF3+TEPgeQG1sGX9+vWlZ8+ekidPnuff5ncEEEDAZQG10PIXX3whEyZMkGvXrrl8PifYX6BAgQKyatUqUWu40RBAAAGnClDYcerMkzcCLgqoRS4bNWokCxcudPFMDre7QGBgoDRt2lQ+/vhjyZQpk93TJT8EEDBA4NatW9qOSCNGjJArV64YEAFDmlkga9assmbNGkmfPr2ZwyQ2BBBAQDcBCju60dIxAvYRUH9Q16lTR9auXWufpMjEY4HHBZ3evXtLxowZPe6PDhBAAIFXCajbstQ26RR4XiXlvPfTpEmjFXdy5MjhvOTJGAEEHC9AYcfxHwEAEIhe4OrVq1KtWjXZtm1b9AfyrmMEKOg4ZqpJFAHTClDgMe3UGBpYsmTJtJ3VihQpYmgcDI4AAgj4WoDCjq/FGQ8BCwmcP39e3nnnHTlw4ICFoiZUvQTUGjrNmjUTrtDRS5h+EUDAVQFV4Pnyyy+1K3jUejw0BEJCQrQFlcuVKwcGAggg4BgBCjuOmWoSRcA1gdOnT0v58uXl+PHjrp3I0bYTULtcqUWRBw4cKFmyZLFdfiSEAALWF/jnn39k9OjR2uPmzZvWT4gMPBKIEyeOLFq0SKpUqeJRP5yMAAIIWEWAwo5VZoo4EfChwMmTJ7Wizh9//OHDURnKjAKVK1eWwYMHi9p1hIYAAgiYXUAtrKz+nTV58mS5f/++2cMlPh0FgoKCZP78+VKrVi0dR6FrBBBAwBwCFHbMMQ9EgYBpBI4cOSIVKlSQs2fPmiYmAvG9QPHixeXzzz+XMmXK+H5wRkQAAQQ8FPjzzz+lX79+MmvWLHn06JGHvXG6VQXUmnCzZ8/Wrjq1ag7EjQACCMREgMJOTJQ4BgGHCOzfv18qVqwoFy9edEjGpPm8QPbs2WXo0KF8w/k8DL8jgIAlBQ4ePCi9evWSH3/80ZLxE7TnArFixZKpU6dKkyZNPO+MHhBAAAGTClDYMenEEBYCvhbYvXu3tlAyi0/6Wt4c46mdRPr27Stt2rQR9Q0nDQEEELCTwM8//yz//ve/Zc+ePXZKi1xiKODv7y+TJk2S1q1bx/AMDkMAAQSsJUBhx1rzRbQI6CKgtjJXCwz+/fffuvRPp+YVUGsQdOjQQT755BNJlCiReQMlMgQQQMBDgYiICJkxY4Z8+umnonZ9pDlLQG0EMHbsWOnYsaOzEidbBBBwhACFHUdMM0kiELXApk2bpFq1aqJ2FKE5R0D9gRsaGqrddpUpUybnJE6mCCDgeAG1RfqIESNk5MiRop7TnCUwfPhw6d69u7OSJlsEELC9AIUd208xCSIQtcCWLVtE7XrE1rBRG9nxHbXD1fjx46VEiRJ2TI+cEEAAgRgJnDt3Tnr27Clz586VyMjIGJ3DQfYQUIW9bt262SMZskAAAQT+T4DCDh8DBBwq8Ntvv0mlSpW4UsdB8580aVIZNGiQfPDBB6IWk6QhgAACCIhs3LhRuz2H9Xec9WkYPXq0dOnSxVlJky0CCNhWgMKObaeWxBCIWmD79u3aQsk3btyI+iDesY2AKuKoYo4q6qjiDg0BBBBA4FkBtSX65MmTpU+fPnLt2rVn3+Q32wqMGzeONXdsO7skhoCzBCjsOGu+yRYB2bFjh7al+fXr19FwgMBbb70lX3zxhajbr2gIIIAAAtELqJ0he/fuLd9++62oxZZp9hZQ682p/0a2b9/e3omSHQII2F6Awo7tp5gEEfifwK5du6RChQrsfvU/Ets+S548ubY4aJMmTUT94UpDAAEEEIi5gPoSpG3btrJz586Yn8SRlhRQ/4388ssvpV27dpaMn6ARQAABJUBhh88BAg4R2L17t1bU4RJze0+4+gO1WbNmWlGH267sPddkhwAC+gqo27MmTJggn332GZsM6EtteO/qv53qVrzWrVsbHgsBIIAAAu4IUNhxR41zELCYwO+//y7ly5eXq1evWixywnVFIHv27Nofpm+//bYrp3EsAggggEA0AmfOnNHWYVmyZEk0R/GW1QX8/f3lq6++kpYtW1o9FeJHAAEHClDYceCkk7KzBI4cOSKlS5eWy5cvOytxB2UbHBwsH3/8sbZtb1BQkIMyJ1UEEEDAdwJLly6VDh06iCr00OwpoIo7s2fPlgYNGtgzQbJCAAHbClDYse3UkhgCIn/++aeUKlWKP0Jt/GEoW7asdpVO1qxZbZwlqSGAAALmELh586Z2a5ZacJfFlc0xJ96OIjAwUBYtWiQ1atTwdtf0hwACCOgmQGFHN1o6RsBYgYsXL2pFnePHjxsbCKPrIhA/fnwZPny4tGnThsWRdRGmUwQQQCBqgS1btmi37Bw+fDjqg3jHsgLqStgVK1ZIuXLlLJsDgSOAgLMEKOw4a77J1iECaoHkMmXKyL59+xySsbPSrFSpkrYOQLp06ZyVONkigAACJhK4d++e9OvXT0aNGiUPHz40UWSE4g2BkJAQWbt2rRQrVswb3dEHAgggoKsAhR1deekcAd8LqMvE1Zbm27dv9/3gjKirQKJEibT/gWjRooWu49A5AggggEDMBcLCwkT9e3n//v0xP4kjLSGQOHFiWb9+veTNm9cS8RIkAgg4V4DCjnPnnsxtKHD37l2pWrWq/PLLLzbMztkpqXv9J02aJKlTp3Y2BNkjgAACJhQIDw+XQYMGydChQ+XBgwcmjJCQ3BVIkSKF/Prrr8Jadu4Kch4CCPhCgMKOL5QZAwEfCKg/JGvXrq3dE+6D4RjCRwIJEiSQcePGSbNmzXw0IsMggAACCLgrsGvXLmncuLEcPHjQ3S44z4QC6tZnVdxJnz69CaMjJAQQQECEwg6fAgRsIKB25mjUqJHMmzfPBtmQwmOBt99+W6ZPny4ZMmR4/BI/EUAAAQRMLqDW3vn4449l/Pjx7Jxl8rlyJTx1xc6mTZskefLkrpzGsQgggIBPBCjs+ISZQRDQV6BLly4yduxYfQehd58JBAUFaZf0d+3aVfz9/X02LgMhgAACCHhP4Oeff9autjxz5oz3OqUnQwWKFCkial7jxYtnaBwMjgACCDwvQGHneRF+R8BiAmrL6549e1osasKNSiBfvnwyc+ZMyZ07d1SH8DoCCCCAgEUErl+/Lh06dJDZs2dbJGLCfJVA5cqVZdmyZRIYGPiqQ3kfAQQQ8JkAhR2fUTMQAt4XUAUAtfZKZGSk9zunR58KqCtzunfvLgMGDJDYsWP7dGwGQwABBBDQV2DhwoXStm1buXbtmr4D0btPBJo0aaLdKu3n5+eT8RgEAQQQeJUAhZ1XCfE+AiYVWLVqldSqVYvdN0w6P66E9frrr8usWbOkfPnyrpzGsQgggAACFhI4ffq0th7exo0bLRQ1oUYl0KNHDxk2bFhUb/M6Aggg4FMBCjs+5WYwBLwjsH37dilXrpzcvn3bOx3Si2EC1apVk2nTprEYo2EzwMAIIICA7wQePXokAwcO1NZRU89p1hYYM2aMdO7c2dpJED0CCNhCgMKOLaaRJJwkcPToUSlZsqRcuXLFSWnbLle1QPLQoUOlU6dOwqXctpteEkIAAQSiFVBbZ6vdLFlYOVom07+pbqNW6yc1aNDA9LESIAII2FuAwo6955fsbCZw4cIFKVGihJw6dcpmmTkrHbVl6nfffSf58+d3VuJkiwACCCDwRECtt9OyZUtZsmTJk9d4Yj0BtS7eypUruZ3aelNHxAjYSoDCjq2mk2TsLKBuuypTpozs2LHDzmnaPrfGjRvLxIkTJSQkxPa5kiACCCCAwKsFJkyYIN26dZP79++/+mCOMKVAwoQJZfPmzZIrVy5TxkdQCCBgfwEKO/afYzK0gUBERITUqVNHli5daoNsnJlCcHCwjBs3Tlq3bu1MALJGAAEEEIhSICwsTOrXry9//PFHlMfwhrkF0qdPL7/99pukTJnS3IESHQII2FKAwo4tp5Wk7CbQpUsXGTt2rN3Sckw+mTJlErXVbYECBRyTM4kigAACCLgmoG7NUttor1ixwrUTOdo0AoULF5ZffvlF4saNa5qYCAQBBJwhQGHHGfNMlhYWUJdod+jQwcIZODt0tSX99OnTJVGiRM6GIHsEEEAAgVcKREZGypAhQ6RPnz7Crlmv5DLlAe+++64sWrRI1MLKNAQQQMBXAhR2fCXNOAi4IaC+tVOFAf64cwPP4FMCAgLk888/19ZNYNcrgyeD4RFAAAGLCaxfv14aNmwoFy9etFjkhKsE1JXWo0ePBgMBBBDwmQCFHZ9RMxACrgns3r1bSpcuLbdu3XLtRI42XCBFihSyYMECbf4MD4YAEEAAAQQsKaB2wgwNDZUtW7ZYMn6nB/3ll1/Khx9+6HQG8kcAAR8JUNjxETTDIOCKwNmzZ6VYsWJy7tw5V07jWBMIqPvr1SXYadOmNUE0hIAAAgggYGWB8PBw6dixo0yZMsXKaTgy9lixYsmyZcukatWqjsyfpBFAwLcCFHZ8681oCLxSQG1rXrJkSdmzZ88rj+UAcwk0bdpUJk+eLGoHLBoCCCCAAALeEvjqq6+09fZUoYdmHYH48ePLpk2bJE+ePNYJmkgRQMCSAhR2LDltBG1XAbVoorrsevHixXZN0ZZ5BQYGysiRI7VvVW2ZIEkhgAACCBguoG7JUn8jqFu0aNYRyJAhg2zfvl2SJ09unaCJFAEELCdAYcdyU0bAdhbo27evDBgwwM4p2i439YeaWk+nTJkytsuNhBBAAAEEzCVw/vx5qVu3rvz222/mCoxoohV4++23Ze3ataK+CKIhgAACeghQ2NFDlT4RcEPg+++/l/r164u6aodmDYF8+fLJ0qVLJV26dNYImCgRQAABBCwvcP/+fWnXrp1MmzbN8rk4KYE2bdpot2s7KWdyRQAB3wlQ2PGdNSMhEKWA2gGrVKlSotbXoVlDQG1DP3v2bAkJCbFGwESJAAIIIGArgeHDh8vHH38sERERtsrLzslMmDBB2rdvb+cUyQ0BBAwSoLBjEDzDIvBY4NKlS1KkSBE5ffr045f4aXKB7t27y9ChQ8Xf39/kkRIeAggggICdBdRVo40aNZJbt27ZOU3b5BYQECCrV6+WcuXK2SYnEkEAAXMIUNgxxzwQhUMF1O4W6j/umzdvdqiAtdKOHTu2dhl18+bNrRU40SKAAAII2FZA7aJZs2ZNOXPmjG1ztFNiSZMmlW3btknmzJntlBa5IICAwQIUdgyeAIZ3tkDLli1l6tSpzkawSPbqD7FFixaJWgCRhgACCCCAgJkE1E5Z6hbhsLAwM4VFLFEI5MqVS9QuZwkSJIjiCF5GAAEEXBOgsOOaF0cj4DUBdZ91hw4dvNYfHeknkD17dvnxxx/ljTfe0G8QekYAAQQQQMADgbt370rTpk1l4cKFHvTCqb4SUIW4H374Qfz8/Hw1JOMggICNBSjs2HhySc28AurWq7Jly8qDBw/MGySRaQIlS5bUdr5KkiQJIggggAACCJhaQC2k3KNHDxk1apSp4yS4/woMHjxYevfuDQcCCCDgsQCFHY8J6QAB1wQuXrwoBQsWlPPnz7t2Ikf7XCA0NFRmzZolwcHBPh+bARFAAAEEEHBXYPz48dKlSxd2zHIX0EfnxYoVS1auXCnvvPOOj0ZkGAQQsKsAhR27zix5mVJAXaFTvnx52bhxoynjI6j/CXTu3Fn7xpOdr/5nwjMEEEAAAesILF68WNsxS92iRTOvgFrDb8eOHZIhQwbzBklkCCBgegEKO6afIgK0k4AqFowbN85OKdkuF1XIGTlypPZNp+2SIyEEEEAAAUcJqFu/1VouV69edVTeVktWXcm9adMmrhC22sQRLwImEqCwY6LJIBR7C8ybN08aNmxo7yQtnp265WrmzJlSr149i2dC+AgggAACCPxX4MiRI1KlShU5deoUJCYWaN68OTulmnh+CA0BswtQ2DH7DBGfLQT27dsnxYsXl9u3b9siHzsmkTBhQlm2bJmULl3ajumREwIIIICAgwXU+n6quLNnzx4HK5g/9cmTJ0ubNm3MHygRIoCA6QQo7JhuSgjIbgLXr1+XwoULy/Hjx+2Wmm3ySZEihaxatUry589vm5xIBAEEEEAAgacF1N8jNWvWZJ2/p1FM9jwoKEg2bNggRYsWNVlkhIMAAmYXoLBj9hkiPksLREZGSp06dWTJkiWWzsPOwavFCtesWSNZsmSxc5rkhgACCCCAgKiFlNXtxitWrEDDpALp0qWTXbt2iVpUmYYAAgjEVIDCTkylOA4BNwTUQslqwWSaOQVy5colq1evltSpU5szQKJCAAEEEEDAywJqh061nsucOXO83DPdeUugevXq2u3hfn5+3uqSfhBAwOYCFHZsPsGkZ5zA9u3bpVSpUhIeHm5cEIwcpYC6zFl9Y8k3YlES8QYCCCCAgE0FIiIitC+evvjiC5tmaP20RowYId26dbN+ImSAAAI+EaCw4xNmBnGagLqPvUCBAuxAYdKJr1ixoixevFhCQkJMGiFhIYAAAgggoL9A//79pV+/fvoPxAguCwQGBmrr7ajNN2gIIIDAqwQo7LxKiPcRcFFAratTt25d+eGHH1w8k8N9IaAWjlywYIGoBQppCCCAAAIIOF1g9OjR2pUh6u8XmrkE1Ho7u3fvliRJkpgrMKJBAAHTCVDYMd2UEJDVBVhXx7wzqBaMVGsKqG/BaAgggAACCCDwX4GJEyfKRx99JBR3zPeJqFGjhixdulRYb8d8c0NECJhJgMKOmWaDWCwvEBYWJiVLlmRdHRPOZKNGjWT69OkSK1YsE0ZHSAgggAACCBgrMHXqVPnggw9Erb9DM5cA6+2Yaz6IBgEzClDYMeOsEJMlBVhXx7zT1qpVK5kyZYr4+/ubN0giQwABBBBAwGABdVVrs2bN5OHDhwZHwvBPC7DeztMaPEcAgZcJUNh5mQqvIeCGQP369WXhwoVunMkpegqoS8vHjx/PJcx6ItM3AggggIBtBBYtWiQNGjQQtS06zTwCGTJkkD179kjChAnNExSRIICAaQQo7JhmKgjEygLTpk2TFi1aWDkFW8autglVly/TEEAAAQQQQCDmAsuXL5fQ0FC5f/9+zE/iSN0FVMFt7ty5uo/DAAggYD0BCjvWmzMiNpnAsWPHtK3Nb926ZbLInB0ORR1nzz/ZI4AAAgh4JrBixQqpU6cO6wZ6xuj1s2fMmCFNmjTxer90iAAC1hagsGPt+SN6gwXUZcolSpQQtWgyzTwCXbp0EbV9Kw0BBBBAAAEE3BdYtmyZqB0lw8PD3e+EM70qkCBBAm0L9EyZMnm1XzpDAAFrC1DYsfb8Eb3BAr1795YhQ4YYHAXDPy3QsWNHUVvO0xBAAAEEEEDAc4ElS5aIWkeQNXc8t/RWD8WKFZONGzdKQECAt7qkHwQQsLgAhR2LTyDhGyfwyy+/SPny5dkW1LgpeGHk9u3byxdffMFCyS/I8AICCCCAAALuC6gFld977z12y3Kf0OtnfvbZZzJgwACv90uHCCBgTQEKO9acN6I2WODatWuSL18+OXPmjMGRMPxjgbZt28rEiRMp6jwG4ScCCCCAAAJeFFiwYIG8//77FHe8aOpJV7FixZL169dLqVKlPOmGcxFAwCYCFHZsMpGk4VsBdb/5999/79tBGS1KgQ8++ECmTJlCUSdKId5AAAEEEEDAc4HvvvtOGjVqJI8ePfK8M3rwWCB9+vTaFuiJEiXyuC86QAABawtQ2LH2/BG9AQLTp0+X5s2bGzAyQ75MQH17OHPmTPH393/Z27yGAAIIIIAAAl4UmDp1qrRq1UoiIyO92CtduSvQsGFDmTNnjruncx4CCNhEgMKOTSaSNHwjcPr0acmTJ4/cuHHDNwMySrQCtWrV0q6cYvHAaJl4EwEEEEAAAa8KqE0KOnfu7NU+6cx9gYULF0poaKj7HXAmAghYXoDCjuWnkAR8JaC+mapYsaKsW7fOV0MyTjQCauHq5cuXS3BwcDRH8RYCCCCAAAII6CGgFu7t27evHl3Tp4sCyZIlk/3790uKFClcPJPDEUDALgIUduwyk+Shu8CECROkQ4cOuo/DAK8WKF68uKxZs0ZCQkJefTBHIIAAAggggIAuAt26dZNRo0bp0jeduiagrmJWW9PTEEDAmQIUdpw572TtosCxY8e0XbDu3Lnj4pkc7m2BvHnzartAJE6c2Ntd0x8CCCCAAAIIuCCgrmZu06aNfP311y6cxaF6CUybNk2aNWumV/f0iwACJhagsGPiySE0cwionR/UVpJbt241R0AOjiJr1qzy66+/cqmxgz8DpI4AAgggYC6BiIgIbRt0tWMWzViBhAkTyt69eyVdunTGBsLoCCDgcwEKOz4nZ0CrCQwdOlQ+/vhjq4Vtu3hTpUolW7ZsEbW1Jw0BBBBAAAEEzCPw4MEDqV69unabtHmicmYkFSpU0ObBz8/PmQBkjYBDBSjsOHTiSTtmAvv27ZPChQvL/fv3Y3YCR+kioL6BUlfqqB3JaAgggAACCCBgPoFbt25J2bJlZceOHeYLzmERqXUh27dv77CsSRcBZwtQ2HH2/JN9NALq26ciRYrInj17ojmKt/QWCAoKkp9++knKlCmj91D0jwACCCCAAAIeCFy+fFlKlCghx48f96AXTvVUIF68eNrfr2+88YanXXE+AghYRIDCjkUmijB9LzB48GD59NNPfT8wIz4R8Pf3l/nz50toaOiT13iCAAIIIIAAAuYVOHHihFbcuXTpknmDdEBk6guxn3/+WbglywGTTYoI/J8AhR0+Bgi8RODQoUOSP39+bsF6iY0vX+JSYl9qMxYCCCCAAALeEdi1a5d2pe3Nmze90yG9uCUwZcoUad26tVvnchICCFhLgMKOteaLaH0goHZ3ULtgqYV6acYJfPLJJzJo0CDjAmBkBBBAAAEEEHBbYO3atdqCyuHh4W73wYmeCag1Cvfv3y9p0qTxrCPORgAB0wtQ2DH9FBGgrwXGjx8vnTp18vWwjPeUQJMmTWT69OlcPvyUCU8RQAABBBCwmsCsWbOkadOmEhkZabXQbROv2q3sxx9/tE0+JIIAAi8XoLDzchdedajAqVOnJHfu3HL79m2HChiftronfPXq1RI7dmzjgyECBBBAAAEEEPBIoF+/ftK/f3+P+uBkzwTmzJkjDRs29KwTzkYAAVMLUNgx9fQQnC8F1LdJlSpVEnXpMM0YgWzZsmm3wCVJksSYABgVAQQQQAABBLwqoP6+Ulfizp4926v90lnMBZInTy4HDhwQ9ZOGAAL2FKCwY895JSs3BKZOnSotW7Z040xO8YaA+mNj69atkjlzZm90Rx8IIIAAAgggYBKB+/fvyzvvvCO//vqrSSJyXhgNGjSQuXPnOi9xMkbAIQIUdhwy0aQZvcCFCxckV65c8vfff0d/IO/qIhAcHCzr1q2Tt956S5f+6RQBBBBAAAEEjBW4evWq9t/5o0ePGhuIg0dftmyZ1KhRw8ECpI6AfQUo7Nh3bsnMBYF//etfsmDBAhfO4FBvCfj5+cm8efNEzQENAQQQQAABBOwrcPz4cSlevLj89ddf9k3SxJmlTZtWDh48KCEhISaOktAQQMAdAQo77qhxjq0EfvrpJ6lSpYqtcrJSMmpL5hSp4QAAQABJREFUc7W1OQ0BBBBAAAEE7C+wadMmqVChgqjbs2i+F+jatauMGjXK9wMzIgII6CpAYUdXXjo3u8Ddu3flzTfflJMnT5o9VFvGp+73Vjs1qKt2aAgggAACCCDgDAHWNTRungMCAmTHjh2SN29e44JgZAQQ8LoAhR2vk9KhlQTUlSKff/65lUK2TawFCxaUjRs3Spw4cWyTE4kggAACCCCAQMwEOnfuLOPGjYvZwRzlVYFixYrJ5s2bxd/f36v90hkCCBgnQGHHOHtGNlhA3WOcP39+CQ8PNzgS5w2fMmVKCQsLkzRp0jgveTJGAAEEEEAAAXn48KFUrVpV1q5di4YBApMmTZK2bdsaMDJDIoCAHgIUdvRQpU/TC0RGRkrZsmVlw4YNpo/VbgEGBQXJ+vXrtcUT7ZYb+SCAAAIIIIBAzAXUbqRFixaVY8eOxfwkjvSKQKJEieTw4cOSIkUKr/RHJwggYKwAhR1j/RndIIHp06dL8+bNDRrd2cNOmzZNmjVr5mwEskcAAQQQQAABTeDQoUPalz03btxAxMcCDRs21NY69PGwDIcAAjoIUNjRAZUuzS1w9epVyZ49O1ttGjBN7MRgADpDIoAAAgggYHKBFStWSM2aNSUiIsLkkdovPHUrnNqljIYAAtYWoLBj7fkjejcEWrVqJd9++60bZ3KKJwLly5eX1atXS6xYsTzphnMRQAABBBBAwIYCgwcPlk8//dSGmZk7pSxZssi+fftE3SpPQwAB6wpQ2LHu3BG5GwJqwV61EwDfCLmB58EpadOmlZ07d0ry5Mk96IVTEUAAAQQQQMCuAmr9w3fffVeWLVtm1xRNm9eQIUOkV69epo2PwBBA4NUCFHZebcQRNhFQxZy33npLtm3bZpOMrJGG+gbo119/lSJFilgjYKJEAAEEEEAAAUME1Do7hQsXZjFlH+uHhIRoCymnTp3axyMzHAIIeEuAwo63JOnH9AJq0d4WLVqYPk67BTh58mRp06aN3dIiHwQQQAABBBDQQUDdFlS8eHG5ffu2Dr3TZVQCLKQclQyvI2ANAQo71pgnovRQQH0DlC1bNrl06ZKHPXG6KwJq57GpU6e6cgrHIoAAAggggIDDBebNmyeq0EDznYCfn59s2LBBSpUq5btBGQkBBLwmQGHHa5R0ZGYBtRvTmDFjzByi7WIrUKCAbN68WYKDg22XGwkhgAACCCCAgL4CnTp1kvHjx+s7CL0/I5A3b15tTUQ2uniGhV8QsIQAhR1LTBNBeiJw8OBByZcvnzx48MCTbjjXBYEkSZJofxhkyJDBhbM4FAEEEEAAAQQQ+K+A+rutbNmy2pdEmPhO4Msvv5QPP/zQdwMyEgIIeEWAwo5XGOnEzAIVKlSQdevWmTlEW8WmLuVdsmSJ1KxZ01Z5kQwCCCCAAAII+Fbg7Nmzkj9/fvnrr798O7CDR1Nfzh05ckSSJUvmYAVSR8B6AhR2rDdnROyCwKJFiyQ0NNSFMzjUU4EuXbrI6NGjPe2G8xFAAAEEEEAAAVm5cqVUr15d1HboNN8IqE0v1OYXNAQQsI4AhR3rzBWRuihw//59yZEjh5w6dcrFMzncXQG1pfnGjRslduzY7nbBeQgggAACCCCAwDMCPXr0kBEjRjzzGr/oJ6DW2Nm1a5fkyZNHv0HoGQEEvCpAYcernHRmJgH1B4D6Q4DmG4HEiRNrfwSwro5vvBkFAQQQQAABpwio9XbKlCkjW7ZscUrKhudZsWJFWbNmjeFxEAACCMRMgMJOzJw4ymICV65ckSxZsoja5pymv4BaV0fd9la7dm39B2MEBBBAAAEEEHCcwOnTp7X1dq5du+a43I1KeMWKFVK1alWjhmdcBBBwQYDCjgtYHGodgY8++kjUqv403wh07NhRxo0b55vBGAUBBBBAAAEEHCnw448/Sq1atVhvx0eznzNnTvn9998lICDARyMyDAIIuCtAYcddOc4zrcDhw4cld+7c8vDhQ9PGaKfAChQoIFu3bmVdHTtNKrkggAACCCBgUgG1ScPYsWNNGp39wpo0aZK0bdvWfomREQI2E6CwY7MJJR2RGjVqyPLly6HwgUDcuHFl586dkj17dh+MxhAIIIAAAggg4HQBtTlG0aJFtStJnG7hi/xfe+01OXbsmCRIkMAXwzEGAgi4KUBhx004TjOnwLp166RChQrmDM6GUamtMNWWmDQEEEAAAQQQQMBXAgcOHJDChQvL3bt3fTWko8fp1auXDBkyxNEGJI+A2QUo7Jh9hogvxgIRERFSsGBB2bNnT4zP4UD3BdQ97kuWLHG/A85EAAEEEEAAAQTcFFBrKao1FWn6CwQHB4ta6iB9+vT6D8YICCDglgCFHbfYOMmMAtOmTZMWLVqYMTTbxZQqVSrtEuhkyZLZLjcSQgABBBBAAAHzC0RGRmq336udm2j6CzRo0EDmzp2r/0CMgAACbglQ2HGLjZPMJnDv3j3JmjWrnDlzxmyh2S4etbX56tWrpWLFirbLjYQQQAABBBBAwDoCly9fljx58silS5esE7RFI1V//6l1FfPnz2/RDAgbAXsLUNix9/w6JrtRo0ZJt27dHJOvkYl27dpVlDcNAQQQQAABBBAwWmDVqlVSrVo1tkD3wURUrlxZlDcNAQTMJ0Bhx3xzQkQuCty4cUMyZ84sV69edfFMDndV4M0335QdO3ZIUFCQq6dyPAIIIIAAAgggoItA+/btZeLEibr0TafPCqxfv17KlCnz7Iv8hgAChgtQ2DF8CgjAU4HPPvtMBg0a5Gk3nP8KgcDAQNm2bRuX4L7CibcRQAABBBBAwLcCt2/flnz58snx48d9O7ADRytWrJhs2bJF1K1ZNAQQMI8AhR3zzAWRuCFw8eJFeeONN0T9B52mr0D//v2lT58++g5C7wgggAACCCCAgBsCmzZtkrffflvULqk0fQUWL14stWvX1ncQekcAAZcEKOy4xMXBZhNQ21yq7S5p+goUKlRItm7dKgEBAfoORO8IIIAAAggggICbAt27d5eRI0e6eTanxVQgZ86csnfvXokVK1ZMT+E4BBDQWYDCjs7AdK+fwMmTJyVHjhwSHh6u3yD0LMHBwdouCOo/4jQEEEAAAQQQQMCsAmqX1IIFC8rBgwfNGqJt4po6dao0b97cNvmQCAJWF6CwY/UZdHD8jRo1kjlz5jhYwDepjxgxgh3HfEPNKAgggAACCCDgoYDa5KF48eLy8OFDD3vi9OgE0qVLJ0eOHNG+AIzuON5DAAHfCFDY8Y0zo3hZQF3+mT9/fu6j9rLr892VLFlSNmzYIP7+/s+/xe8IIIAAAggggIApBfr27SsDBgwwZWx2CmrMmDHSuXNnO6VELghYVoDCjmWnztmB161bV9TCbTT9BOLEiSN79uyRrFmz6jcIPSOAAAIIIIAAAl4WULfpq/UB9+3b5+We6e5pgRQpUohaGiFu3LhPv8xzBBAwQIDCjgHoDOmZgCo2FChQQCIjIz3riLOjFRg6dKj07Nkz2mN4EwEEEEAAAQQQMKNAWFiYdkvWo0ePzBiebWLiln3bTCWJWFyAwo7FJ9CJ4b/77ruydOlSJ6bus5xV4Wzbtm3sguUzcQZCAAEEEEAAAW8LdOvWTUaNGuXtbunvKYHXXntNu2onXrx4T73KUwQQ8LUAhR1fizOeRwK7du3SLq3lah2PGKM9OTAwULZv3y758uWL9jjeRAABBBBAAAEEzCxw584dyZMnj5w4ccLMYVo+tmHDhkmPHj0snwcJIGBlAQo7Vp49B8Zes2ZN+fHHHx2Yue9S7t27twwePNh3AzISAggggAACCCCgk8DPP/8sFSpU4BZ+nXxVt8mSJZNTp05JSEiIjqPQNQIIRCdAYSc6Hd4zlYC6V7po0aL8h1nHWcmePbvs3r2brSt1NKZrBBBAAAEEEPCtwAcffCDffPONbwd12Giff/65fPzxxw7LmnQRMI8AhR3zzAWRvEKgWrVqsnLlylccxdvuCqgtzdXW5mqLcxoCCCCAAAIIIGAXgevXr0uuXLnk/PnzdknJdHkkTZpUu2onfvz4pouNgBBwggCFHSfMsg1yVAv5FitWzAaZmDeFNm3ayOTJk80bIJEhgAACCCCAAAJuCnz//fdSr149N8/mtJgIDBo0SD755JOYHMoxCCDgZQEKO14GpTt9BKpWrSqrVq3Sp3N6FbWjweHDhyVx4sRoIIAAAggggAACthTg6m99pzVJkiTyxx9/CFft6OtM7wi8TIDCzstUeM1UAuyEpf90zJw5Uxo3bqz/QIyAAAIIIIAAAggYJKAW+FW3ZN29e9egCOw/LDtk2X+OydCcAhR2zDkvRPWUgLpsVl0+S9NHoGzZsrJu3Trx8/PTZwB6RQABBBBAAAEETCKgFvnldiH9JiNlypTaWjvBwcH6DULPCCDwggCFnRdIeMFMAur2IPXNSkREhJnCsk0sQUFBsmfPHlG7YdEQQAABBBBAAAG7C4SHh0u+fPnk0KFDdk/VsPy+/PJL+fDDDw0bn4ERcKIAhR0nzrqFcm7WrJnMmDHDQhFbK9RPP/1UBg4caK2giRYBBBBAAAEEEPBAQO0Cqq5YjoyM9KAXTo1KIEOGDHL06FEJDAyM6hBeRwABLwtQ2PEyKN15T0AtvpY1a1Z58OCB9zqlpycCmTNnln379kmcOHGevMYTBBBAAAEEEEDACQJ8eajvLE+fPl2aNm2q7yD0jgACTwQo7Dyh4InZBNq3by8TJ040W1i2iWf58uWidoegIYAAAggggAACThO4fPmyZMuWTa5fv+601H2Sr7rN/8CBA+Lv7++T8RgEAacLUNhx+ifApPlfvHhRMmbMKPfu3TNphNYOSxV0VGGHhgACCCCAAAIIOFVg7Nix0qVLF6emr3veCxculNDQUN3HYQAEEBChsMOnwJQCPXr0kBEjRpgyNqsHpRZMVrdgZcmSxeqpED8CCCCAAAIIIOC2wMOHD7WFlNWVJTTvC+TPn1927tzJzqvep6VHBF4QoLDzAgkvGC2gLolNly6d3Lx50+hQbDl+z549ZejQobbMjaQQQAABBBBAAAFXBNatWycVKlRw5RSOdUHgp59+kkqVKrlwBocigIA7AhR23FHjHF0Fhg0bJr169dJ1DKd2nipVKjly5IiEhIQ4lYC8EUAAAQQQQACBZwTq1q0rixcvfuY1fvGOgCqarV271jud0QsCCEQpQGEnShreMEIgPDxcMmXKJOfOnTNieNuPOWvWLGnUqJHt8yRBBBBAAAEEEEAgpgJqJ9acOXPK3bt3Y3oKx7kgsHv3bu2WNxdO4VAEEHBRgMKOi2Acrq/AzJkz2RpRJ+ISJUrIxo0buc9ZJ1+6RQABBBBAAAHrCvTr10/69+9v3QRMHLn6UlF9uUhDAAH9BCjs6GdLzy4KREZGatX8vXv3ungmh79KQG01uX37dilYsOCrDuV9BBBAAAEEEEDAcQJ37twRtUX3mTNnHJe73gkHBgbKyZMnJU2aNHoPRf8IOFaAwo5jp958ia9Zs4bF1XSalsaNG4u6GoqGAAIIIIAAAggg8HIBrhx/uYs3Xu3WrRs73noDkj4QiEKAwk4UMLzsewG1Yr4q7tC8KxAnThxtweS0adN6t2N6QwABBBBAAAEEbCQQEREhhQsXll27dtkoK3OkkjBhQjl9+rQkSJDAHAERBQI2E6CwY7MJtWo66varfPnyibodi+Zdgd69e8vgwYO92ym9IYAAAggggAACNhT45ZdfpGzZsjbMzPiURo0aJV27djU+ECJAwIYCFHZsOKlWTKlp06bcKqTDxKVIkUKOHTsm8ePH16F3ukQAAQQQQAABBOwnUKtWLVm2bJn9EjM4o3Tp0smJEyckICDA4EgYHgH7CVDYsd+cWi6j8+fPS8aMGUVtdU7zrsDkyZOlTZs23u2U3hBAAAEEEEAAARsLHDlyRHLnzi0PHjywcZbGpDZ37lxp0KCBMYMzKgI2FqCwY+PJtUpqffv2lQEDBlglXMvEmStXLtmzZw/filhmxggUAQQQQAABBMwi0KFDB5kwYYJZwrFNHMWLF5ctW7bYJh8SQcAsAhR2zDITDo1DXaWjLsu8dOmSQwX0S3v58uVSrVo1/QagZwQQQAABBBBAwKYCf/31l2TOnFn++ecfm2ZoXFphYWFSqFAh4wJgZARsKEBhx4aTaqWUZs+eLWorbpp3BUqXLi0bNmzwbqf0hgACCCCAAAIIOEhg4MCB0qdPHwdl7JtUmzRpIjNmzPDNYIyCgEMEKOw4ZKLNmmbRokVl+/btZg3PsnFt2rRJSpQoYdn4CRwBBBBAAAEEEDBa4NatW9pVO5cvXzY6FFuNHxQUpG19/tprr9kqL5JBwEgBCjtG6jt87G3btkmxYsUcruD99GvUqMFODt5npUcEEEAAAQQQcKDA+PHjpVOnTg7MXN+U1dVQn376qb6D0DsCDhKgsOOgyTZbqo0aNZI5c+aYLSxLx+Pv7y+7d++WPHnyWDoPgkcAAQQQQAABBMwgcP/+fcmePbv88ccfZgjHNjGkTp1aTp06JYGBgbbJiUQQMFKAwo6R+g4e++LFi5I+fXq2OPfyZ0AVy2bNmuXlXukOAQQQQAABBBBwroBaD6ZZs2bOBdAp8/nz50v9+vV16p1uEXCWAIUdZ823abJV25urbc5p3hOIHTu2HDp0SDJlyuS9TukJAQQQQAABBBBwuMCjR48kb968cuDAAYdLeDf9kiVLysaNG73bKb0h4FABCjsOnXgj037w4IF2tc6FCxeMDMN2Y7dv314mTJhgu7xICAEEEEAAAQQQMFpgyZIlUrt2baPDsN34agmBfPny2S4vEkLA1wIUdnwtzniyaNEiCQ0NRcKLAsHBwXLixAlJlSqVF3ulKwQQQAABBBBAAAElEBkZKYULF5adO3cC4kWBNm3ayOTJk73YI10h4EwBCjvOnHdDs65UqZKsWbPG0BjsNnjHjh1l3LhxdkuLfBBAAAEEEEAAAdMILF++XNTuozTvCcSPH1/Onz8vISEh3uuUnhBwoACFHQdOupEpq6tKsmbNKhEREUaGYaux48SJo12t8/rrr9sqL5JBAAEEEEAAAQTMJKCu2ilatKiEhYWZKSzLxzJlyhRp3bq15fMgAQSMFKCwY6S+A8fu1auXDBs2zIGZ65dy586dZcyYMfoNQM8IIIAAAggggAACmsCKFSukevXqaHhRoGDBgrJjxw4v9khXCDhPgMKO8+bcsIzDw8MlXbp0cunSJcNisNvAXK1jtxklHwQQQAABBBAwu4C6amf79u1mD9NS8amroAoVKmSpmAkWATMJUNgx02zYPJYFCxbIv/71L5tn6dv0unTpIqNHj/btoIyGAAIIIIAAAgg4WGDVqlVStWpVBwt4P/VWrVrJ119/7f2O6REBhwhQ2HHIRJshzQoVKsi6devMEIotYogbN662tk7KlCltkQ9JIIAAAggggAACVhEoVqyYbNu2zSrhmj5OtXjyuXPnJEGCBKaPlQARMKMAhR0zzooNYzp27Jhky5ZN2yrShukZkhJr6xjCzqAIIIAAAggggICsXLlSqlWrhoQXBSZOnCjt2rXzYo90hYBzBCjsOGeuDc20R48eMmLECENjsNPgsWPH1q7WSZMmjZ3SIhcEEEAAAQQQQMASAmqHrAIFCsiePXssEa8VgsyXL5/s3r3bCqESIwKmE6CwY7opsV9ADx8+FFWAYNFk780t9yF7z5KeEEAAAQQQQAABdwRYP9IdtejP2blzp1Ywi/4o3kUAgecFKOw8L8LvXhdYtmyZ1KpVy+v9OrXDWLFiyaFDhyRLlixOJSBvBBBAAAEEEEDAcIFHjx5Jzpw55ejRo4bHYpcAOnToIOPHj7dLOuSBgM8EKOz4jNq5A9WpU0d++OEH5wJ4OfP33ntP5s2b5+Ve6Q4BBBBAAAEEEEDAVYFvv/1W1JXUNO8IJE2aVFtEOSgoyDsd0gsCDhGgsOOQiTYqzStXrmi3YYWHhxsVgq3G9fPz0+49zps3r63yIhkEEEAAAQQQQMCKAupv3DfeeEPOnDljxfBNGfPChQslNDTUlLERFAJmFaCwY9aZsUlcY8eOlS5dutgkG+PTULsvLF++3PhAiAABBBBAAAEEEEBAExg3bpyo3Upp3hGoWrWqrFixwjud0QsCDhGgsOOQiTYqTbW6/e+//27U8LYbd/PmzfLWW2/ZLi8SQgABBBBAAAEErCpw584dyZAhg6gr1WmeCwQEBMiff/4pqVKl8rwzekDAIQIUdhwy0UakqbYrVNtA0rwjoAo6qrBDQwABBBBAAAEEEDCXQL9+/aR///7mCsrC0QwbNkx69Ohh4QwIHQHfClDY8a23o0br2LGjfPHFF47KWc9kFy1aJGohahoCCCCAAAIIIICAuQQuX74s6dOnl3v37pkrMItGkyNHDjl48KBFoydsBHwvQGHH9+aOGFEtJKcun7x69aoj8tU7ycyZM8uRI0dEbXVOQwABBBBAAAEEEDCfQOvWreXrr782X2AWjWjr1q1SrFgxi0ZP2Aj4VoDCjm+9HTOa2t6cq0u8N93qyqePPvrIex3SEwIIIIAAAggggIBXBQ4fPiw5c+aUyMhIr/br1M7atWsnEydOdGr65I2ASwIUdlzi4uCYCtSrV0++//77mB7OcdEIJEmSRE6fPi3x4sWL5ijeQgABBBBAAAEEEDBaoEaNGuxg6qVJSJYsmZw/f14CAwO91CPdIGBfAQo79p1bwzK7ceOGpEyZknuMvTQDvXv3lsGDB3upN7pBAAEEEEAAAQQQ0Evgl19+kbJly+rVveP6Xb58uVSrVs1xeZMwAq4KUNhxVYzjXykwbdo0adGixSuP44BXCwQFBcmpU6fk9ddff/XBHIEAAggggAACCCBguEChQoVk586dhsdhhwAaNGggc+fOtUMq5ICArgIUdnTldWbnFStWlP/85z/OTN7LWTdt2lSmT5/u5V7pDgEEEEAAAQQQQEAvgTlz5kijRo306t5R/aqlCC5evCghISGOyptkEXBVgMKOq2IcH63AhQsXJG3atPLo0aNoj+PNmAmEhYWJ+taHhgACCCCAAAIIIGANAbU7bLp06eTSpUvWCNjkUc6ePVvef/99k0dJeAgYK0Bhx1h/240+ZswY6dq1q+3yMiKh4sWLy5YtW4wYmjERQAABBBBAAAEEPBDo27evDBgwwIMeOPWxQJUqVWTlypWPf+UnAgi8RIDCzktQeMl9gcKFC8uOHTvc74Aznwioy3gbNmz45HeeIIAAAggggAACCFhDQO3mlCFDBnnw4IE1AjZxlAEBAdruWMmTJzdxlISGgLECFHaM9bfV6EeOHJHs2bPbKiejklG7iv35558SO3Zso0JgXAQQQAABBBBAAAEPBN577z2ZP3++Bz1w6mOBCRMmSPv27R//yk8EEHhOgMLOcyD86r5A//79pV+/fu53wJlPBNTlu1g+4eAJAggggAACCCBgOYFNmzZJqVKlLBe3GQMuUaKEKE8aAgi8XIDCzstdeNUNgTfffFMOHDjgxpmc8rRAYGCgdrUOW5w/rcJzBBBAAAEEEEDAegIFChSQ3bt3Wy9wk0Xs5+cnp0+fljRp0pgsMsJBwBwCFHbMMQ+Wj+LgwYOSK1cuy+dhhgTUZbvz5s0zQyjEgAACCCCAAAIIIOCBwNSpU6Vly5Ye9MCpjwXGjh0rnTp1evwrPxFA4CkBCjtPYfDUfQG16r+6fYjmucCGDRukdOnSnndEDwgggAACCCCAAAKGCty5c0dSp04t169fNzQOOwxesmRJ2bhxox1SIQcEvC5AYcfrpM7sME+ePLJv3z5nJu/FrHPkyKHdzqYuN6UhgAACCCCAAAIIWF+gY8eO8sUXX1g/EYMz8Pf3lzNnzkiqVKkMjoThETCfAIUd882J5SI6fPiwqIIEzXOB0aNHS5cuXTzviB4QQAABBBBAAAEETCGwf/9+yZ07tylisXoQ48ePlw4dOlg9DeJHwOsCFHa8Tuq8DgcNGiSfffaZ8xL3csbBwcFy9uxZSZo0qZd7pjsEEEAAAQQQQAABIwXUrk5btmwxMgRbjK2WK1DLFtAQQOBZAQo7z3rwmxsCefPmlb1797pxJqc8LfD+++/L7Nmzn36J5wgggAACCCCAAAI2EJgxY4Y0a9bMBpkYm4K6HUt9EcruscbOA6ObT4DCjvnm5P+xdxbgVRxdHz8kBEjgRYM7FGlDcXenuLu7u1txd4fiTvHiGhyKluIe3CFokAD5eu77vTVCuLt3d+/OzH+ep0+Te+fI/zchcnbmjFAZXbp0idKkSSNUznZNFk2T7boyyAsEQAAEQAAEQAAEXCPw5s0bR28YNFF2jSNbT548mVq3bu26I3gAAYkIoLAj0WK6Q8rQoUOpd+/e7ggtVUw0TZZqOSEGBEAABEAABEAABD4jgCbKnyHR9ULBggVp165dumxhBAKyEkBhR9aVtUhXtmzZ6NixYxZFkzcMmibLu7ZQBgIgAAIgAAIgAAJMgG+Q5ZtkMVwj4OnpSffv3ydfX1/XHMEaBCQigMKORItptZQ7d+5Q4sSJKSQkxOrQUsXz8vIiZhk7dmypdEEMCIAACIAACIAACIDAPwlkz56djh49+s8X8ZlmAvPmzaP69etrtoMBCMhKAIUdWVfWAl3Tpk2jVq1aWRBJ7hAVKlSgNWvWyC0S6kAABEAABEAABEAABGjq1KnoD2PA10HFihVp9erVBniCCxCQgwAKO3Kso1tUlCxZkrZs2eKW2DIFXbt2LZUvX14mSdACAiAAAiAAAiAAAiAQCoGnT586mii/e/culHfxkrMEIkeOTI8ePSJvb29nTTAPBKQmgMKO1MtrnrgXL15QnDhxCD+UXGPMDPnKRj6OhQECIAACIAACIAACICA/gWrVqtGKFSvkF2qywvXr11OZMmVMjgL3ICAGARR2xFgn22XJP4z4hxKGawQ6dOhA48aNc80JrEEABEAABEAABEAABIQhsGnTJipdurQw+do10SZNmtDMmTPtmh7yAgFLCaCwYylueYLVqVOHFi9eLI8gNyk5efIkZciQwU3RERYEQAAEQAAEQAAEQMBqAh8/fqQkSZLQ3bt3rQ4tVbx48eI5LiDx8PCQShfEgIAeAijs6KGmuE1wcDDFjRuXAgMDFSfhmvxMmTLRiRMnXHMCaxAAARAAARAAARAAAeEIdO/enUaOHClc3nZL+ODBg5QrVy67pYV8QMByAijsWI5c/ID+/v5UpEgR8YW4WcH48eOpffv2bs4C4UEABEAABEAABEAABKwmcO7cOfLz87M6rHTxevToQcOGDZNOFwSBgFYCKOxoJYb51LFjR+KiBIZ+Ap6eno6mybyFFAMEQAAEQAAEQAAEQEA9Arx7m4/lY+gnwMWxM2fO6HcASxCQhAAKO5IspJUy0qZNSxcvXrQypHSxihUrRtu2bZNOFwSBAAiAAAiAAAiAAAg4R2DUqFHUrVs35yZj1hcJXL9+nZImTfrF9/EGCKhAAIUdFVbZQI3Xrl2jlClTGuhRTVdz586lBg0aqCkeqkEABEAABEAABEAABOjWrVuULFky+vTpE2i4QGD69OnUvHlzFzzAFATEJ4DCjvhraKmCKVOmUJs2bSyNKVuwSJEi0f379ylatGiySYMeEAABEAABEAABEAABDQQKFixIe/bs0WCBqf8mUL58eVq7du2/X8bnIKAUARR2lFpu18WWKVOGNm7c6LojhT1UrlyZVq5cqTABSAcBEAABEAABEAABEGACM2bMoBYtWgCGCwSiRIlCT548oQgRIrjgBaYgIDYBFHbEXj9Ls3/79i3FihWLgoKCLI0rW7BVq1ZRpUqVZJMFPSAAAiAAAiAAAiAAAhoJcEEiQYIE9P79e42WmP53Ajt37qTChQv//SV8DAJKEUBhR6nldk0sN/stUaKEa04Ut44ePTrdu3eP+DgWBgiAAAjIQODdu3d048YNR6+Ix48f0//+e/TokePjwMBA4gcD/EcLz+X/+GP+L3z48I4nrBEjRiT+j5+28v+jRo1KsWPHJl9f33/8Fz9+fEqRIoXjfRnYQQMIgAAIMIFy5crR+vXrAcMFAl26dCFuRo0BAqoSQGFH1ZXXoRvXnOuA9i8TbpjMjZMxQAAEQEAkAtzYk5vn87W8Fy5ccHzMn/N/d+7csbzxJxd8kidP7ijycKEnVapUlCFDBuJrb7kwhAECIAACIhFYsmQJ1a5dW6SUbZcrrj233ZIgIYsJoLBjMXCRw+Gac9dXb8OGDVS6dGnXHcEDCIAACJhEgIs4p06doqNHj9Lvv//uKObw5y9fvjQponFuvby8iH9WZcyY0fFf5syZKXv27OTj42NcEHgCARAAAYMJvHjxguLGjevY3Wiwa6Xc8e7RJEmSKKUZYkHgfwRQ2PkfCfw/TAIBAQGOJ6NhTsKbYRLgY1gPHjxAY7cwKeFNEAABqwkEBwfTiRMnaO/evY7/9u/fT8+ePbM6DdPi8fGurFmzUv78+R3/5cmTB0e5TKMNxyAAAnoJ8M1O69at02sOuz8I4NpzfBmoTACFHZVXX4N2dOzXAOsLU+vWrUsLFiz4wrt4GQRAAASsI3Dz5k3iHYT8Hxd0Xr9+bV1wN0fy9PQk3slTqlQpKlu2rOPjcOHCuTkrhAcBEFCdwMKFC6levXqqY3BJP26edQkfjAUngMKO4AtoVfrVqlWjFStWWBVOyji//PKLozmelOIgCgRAwNYE+HgVH63i5pxczOEjVhj/JcC30fARWS7yFClSBMe28IUBAiDgFgK8U5KPY+F2LP34Y8aMSdy438PDQ78TWIKAoARQ2BF04axMm/8g4B80fNMJhj4CfMMLH8PCbVj6+MEKBEBAHwEu4CxevJiWLl1Kt2/f1udEIavIkSNThQoVHE1MixUr5ri1SyH5kAoCIOBmAmXKlKGNGze6OQuxwx87doyyZMkitghkDwI6CKCwowOaaia//fabY6u6arqN1FurVi3HH1dG+oQvEAABEAiNAB+z4kLOokWL6MyZM6FNwWtOEIgTJw5Vr17dUeTJkSOHExaYAgIgAAKuEZg3bx41bNjQNSeKW48YMYK6deumOAXIV5EACjsqrrpGzaNHj6auXbtqtML0vxNYvXo1VaxY8e8v4WMQAAEQMIzAx48fHUespk6dSjt27LD8+nHDhNjUEd+01bJlS6pfvz5FixbNplkiLRAAAdEJPH36lOLFi0fc1B5DH4HixYvT1q1b9RnDCgQEJoDCjsCLZ1XqJUuWpC1btlgVTro4fM0un/fFdbvSLS0EgYDbCTx8+JBmz55N3OCer3nFMJdAlChRHDt4WrVqRenTpzc3GLyDAAgoSYALE9u3b1dSuxGi+fdtLpBFjBjRCHfwAQLCEEBhR5ilck+i3MCNG5GpdGOK0aTLlStH3DgZAwRAAASMInDy5EkaM2aMo6n9u3fvjHILPxoI5MuXj9q3b+/YjYlGnRrAYSoIgECYBCZPnkxt27YNcw7eDJuAv78/FSpUKOxJeBcEJCOAwo5kC2q0nD179lDBggWNdquUv1mzZlHjxo2V0gyxIAAC5hA4cOAADR06lDZv3kwhISHmBIFXTQS+/fZb6tGjB3EvtfDhw2uyxWQQAAEQ+DcB7pOWLFkyfI//NxgNn/fu3ZsGDx6swQJTQUB8AijsiL+Gpir48ccfadCgQabGkNk5P8W9e/eu41YxmXVCGwiAgLkEtm3b5ijocLEdw54E+A8xbtjJjU9xA6I91whZgYAoBDJnzkx8eQmGPgI5c+akQ4cO6TOGFQgISgCFHUEXzqq08+bNS/yEGEMfgdy5c4OfPnSwAgEQ+IPArl27HLtBjhw5Ah6CEIgfPz717duXmjRpQl5eXoJkjTRBAATsRKB///40YMAAO6UkVC68e/LJkycUNWpUofJGsiDgCgEUdlyhJ7ntmzdvKHr06MR9djD0ERg+fDh1795dnzGsQAAElCVw6tQpR0GHj1xhiEkgderUjl1WlSpVonDhwokpAlmDAAi4hcCJEycoS5YsboktS1D++fnDDz/IIgc6QOCrBFDY+SoidSfwk+LChQurC8AA5efOnSPuv4ABAiAAAs4Q4N4KfAR24cKFuLLcGWACzOEjASNGjKD8+fMLkC1SBAEQsAMB7qGWNGlSunXrlh3SETKHnj17OorrQiaPpEFABwEUdnRAU8Vk4MCB1K9fP1XkGq4zVapUdOnSJcP9wiEIgIB8BHiH5LBhw2jUqFH09u1b+QRCkeP2rPHjx1OSJElAAwRAAAS+SqB169Y0derUr87DhNAJ5MmTh/bv3x/6m3gVBCQkgMKOhItqlKSiRYvSzp07jXKnnJ8OHTrQuHHjlNMNwSAAAtoI8HZxvtr26tWr2gwxWzgCkSNHduzI6tixI/rvCLd6SBgErCXAPxtKlSplbVCJokWMGJECAwPJ29tbIlWQAgJfJoDCzpfZKP1OcHAwxYgRg16/fq00B1fEb926lYoXL+6KC9iCAAhITIC32PMf+KtWrZJYJaSFRsDPz4+mTJlCBQoUCO1tvAYCIAACFBQURLFixcIuThe+FritRMGCBV3wAFMQEIcACjvirJWlmf7666+UK1cuS2PKFMzHx8fRjR9X3sq0qtACAsYQ+PTpE02cONFxc9KrV6+McQovwhHghsr16tVz7OzkBykYIAACIPBvAtz8lx8UYugjwG0l+JZCDBBQgQAKOyqssg6N3OehW7duOixhwgR46+zGjRsBAwRAAAT+QSAgIIAaNmxIe/bs+cfr+ERdAokSJaLZs2djh6e6XwJQDgJfJMB9uXhnJ4Y+AtxWYvv27fqMYQUCghFAYUewBbMq3bJly9KGDRusCiddnEmTJlGbNm2k0wVBIAAC+gnMmjWLOnXqRC9fvtTvBJZSEuDdOy1atKCRI0dSlChRpNQIUSAAAtoJXLx4kdKmTavdEBYOAtzXjPvseHl5gQgISE8AhR3pl1i7QD4m4Ovr6/hGqN0aFkzg8uXL9M033wAGCIAACNC9e/eoSZMmtGnTJtAAgTAJpEyZkubNm0d58+YNcx7eBAEQUIdAihQpiHd7YugjwO0lcuTIoc8YViAgEAEUdgRaLKtSPX36NKVPn96qcNLF4YIOF3YwQAAEQIC3gNeuXZsePXoEGCDgFAFPT08aMGAA9ezZkzw8PJyywSQQAAF5CeDac9fWdsyYMY7dsq55gTUI2J8ACjv2XyPLM5w5cyY1a9bM8riyBORri7kxKgYIgIC6BHjnIzdtHDRoEPHHGCCglUDJkiVpwYIFjh20Wm0xHwRAQB4C69evp3LlyskjyGIlVatWpeXLl1scFeFAwHoCKOxYz9z2ERs3bkxz5syxfZ52TZB/AJcpU8au6SEvEAABkwk8fPjQsUtnx44dJkeCe9kJJE6cmH7++WfcUin7QkMfCIRBgG9PjBkzJgUHB4cxC299iQB/H7158+aX3sbrICANARR2pFlK44T4+fnRuXPnjHOokKfw4cM7rjmPGjWqQqohFQRA4H8EDhw4QNWrV6c7d+787yX8HwRcIsBNP7mpcocOHVzyA2MQAAFxCeTLl4/2798vrgA3Z3779m1KmDChm7NAeBAwlwAKO+byFc77s2fPKFasWDg6oHPlcuXKRQcPHtRpDTMQAAGRCcyfP99xjPX9+/ciy0DuNiXQqFEjmjZtGkWIEMGmGSItEAABswj069fPcbzXLP+y+125ciVVrlxZdpnQpzgBFHYU/wL4t/xt27ZRiRIl/v0yPneSQJ8+fRw9NZycjmkgAAISEOAeOr1796bhw4dLoAYS7EygYMGCtGrVKsexDDvnidxAAASMJbB3714qUKCAsU4V8talSxcaNWqUQoohVUUCKOyouOphaOZmn/xUAEMfAX9/fypUqJA+Y1iBAAgIRyAoKIjq1q1Lq1evFi53JCwmgVSpUhH3ckuTJo2YApA1CICAZgK8E5T77Lx+/VqzLQyI8ubNS/v27QMKEJCaAAo7Ui+vdnGlSpWizZs3azeEBXl7e1NgYCBFjBgRNEAABBQgcPfuXcdNJcePH1dALSTaiUCMGDEcO3fwIMFOq4JcQMBcAj/88ANt3brV3CCSeuff0Z8/f07cswwDBGQlgMKOrCurQ1dISIjjWtWnT5/qsIZJsWLFiI+yYYAACMhP4OrVq8T/5gMCAuQXC4W2JMAPEZYsWUKVKlWyZX5ICgRAwFgCfJSoW7duxjpVyNuRI0coW7ZsCimGVNUIoLCj2oqHoffixYuUNm3aMGbgrbAIDBs2jHr06BHWFLwHAiAgAYHTp087epHdu3dPAjWQIDIBT09PmjlzJjVs2FBkGcgdBEDACQInTpygLFmyODETU0IjMGnSJGrTpk1ob+E1EJCCAAo7UiyjMSIWLVrk6BVhjDf1vPz666+UI0cO9YRDMQgoRID/nZcuXZqws1GhRbe51HDhwtGYMWOoY8eONs8U6YEACLhCgBv18821fIMthnYC9erVI769EgMEZCWAwo6sK6tDV6dOnWjcuHE6LGESOXJkR38dnN3F1wIIyEtgx44dVLFiRXr16pW8IqFMWAJ9+/bFdcjCrh4SBwHnCJQpU4Y2btzo3GTM+gcBPz8/OnPmzD9ewycgIBMBFHZkWk0XtfA1inydIoZ2AkWKFCH+ow8DBEBATgLcsLJ8+fL07t07OQVClRQEuP/GiBEjpNACESAAAp8T4H/fOPb/ORdnXuGjqy9evCAfHx9npmMOCAhHAIUd4ZbMnIR5eyffssHf8DC0E+jfvz+uideODRYgIASBXbt2OY5fvXnzRoh8kaTaBLBzR+31h3q5CRw6dIhy584tt0gT1R04cAD8TOQL1+4lgMKOe/nbJjoaJ7u2FP7+/oRrZ11jCGsQsCOB/fv3E18x+/r1azumh5xAIFQCQ4YMoV69eoX6Hl4EARAQl8D79+8dD2KDgoLEFeHGzNFA2Y3wEdp0AijsmI5YjABLly6lWrVqiZGszbKMECGCo78OtnbabGGQDgi4SODw4cNUvHhx7GR0kSPM3UNg9OjR1LlzZ/cER1QQAAHTCBQuXJh4JymGdgINGjSguXPnajeEBQgIQACFHQEWyYoUu3Tp4rhVw4pYssXIlSsXHTx4UDZZ0AMCShP47bffiH95xu0jSn8ZCC9+ypQp1KpVK+F1QAAIgMBfBPr164dG6X/h0PRR+vTp6ffff9dkg8kgIAoBFHZEWSmT8+RjRLt37zY5ipzu0axSznWFKnUJ3Lhxg7hge+/ePXUhQLkUBDw8PGjFihVUqVIlKfRABAiAADku6yhWrBhQ6CAQPnx4xy5cb29vHdYwAQF7E0Bhx97rY0l2ISEhjvO6z58/tySebEF++eUXKleunGyyoAcElCQQGBhIefLkofPnzyupH6LlI8B/wPCtjWi4Kt/aQpGaBF69ekXRo0enjx8/qgnARdXcgDpnzpwueoE5CNiPAAo79lsTyzO6cuUKpUqVyvK4sgR88OABxYkTRxY50AECyhJ4+/YtlShRgvbu3assAwiXk0CsWLGIb4NJkyaNnAKhCgQUI5AxY0YcKdK55jiiqhMczGxPAIUd2y+R+QmuXr2aKleubH4gCSOkSJGCrl69KqEySAIBtQh8+vSJatasScuXL1dLONQqQ4B/XnE/uLhx4yqjGUJBQFYCLVq0oBkzZsgqz1RdzZs3p+nTp5saA85BwB0EUNhxB3WbxRwwYAD179/fZlmJkQ7/IbhkyRIxkkWWIAACXyTQs2dPGj58+BffxxsgIAOB7Nmz0549eyhSpEgyyIEGEFCWwLx586hhw4bK6ndFOB9L5R2MGCAgGwEUdmRbUR16eLcO79rB0E5gwoQJ1K5dO+2GsAABELANAd6lU6NGDeJ+YxggIDsBXPcr+wpDnwoEuA/cd999p4JUwzVGjRrVceNluHDhDPcNhyDgTgIo7LiTvk1ip06dmi5fvmyTbMRK49dff6UcOXKIlTSyBQEQ+JPAqVOnHE1lX79+/edr+AAEZCcwadIkatOmjewyoQ8EpCXADyJixozpKFBIK9JEYQEBAZQsWTITI8A1CFhPAIUd65nbKmJQUBD95z//Ie4vgaGNQMSIER1XJkaIEEGbIWaDAAjYgsDTp08pW7ZsdO3aNVvkgyRAwCoCXl5ejpuy8ufPb1VIxAEBEDCYADf737Ztm8Fe1XC3bt06Klu2rBpioVIZAijsKLPUoQs9evQo8Zl7DO0EcuXK5WhEqd0SFiAAAu4mwNfEli5dmrZu3eruVBAfBNxCgJsoHzt2jBIlSuSW+AgKAiDgGoF+/frRwIEDXXOiqPXgwYOpd+/eiqqHbFkJoLAj68o6qWvOnDnUuHFjJ2dj2t8JtG/fnsaPH//3l/AxCICAIAR+/PFHGjRokCDZIk0QMIdAzpw5ad++fRQ+fHhzAsArCICAaQQ2bdrkeEBhWgCJHVevXp2WLVsmsUJIU5EACjsqrvrfNHfs2BHFib/x0PLhggULqG7dulpMMBcEQMAGBPbu3UuFCxcm3rWDAQKqE+jVqxcNGTJEdQzQDwLCEbh//z7Fjx9fuLztkDA3nj579qwdUkEOIGAYARR2DEMppqMiRYqQv7+/mMm7OeszZ86Qn5+fm7NAeBAAAS0EuK9OxowZ6datW1rMMBcEpCXg4eHh6LdTqFAhaTVCGAjISiBhwoR09+5dWeWZpot3Kb569Yq4XyYGCMhCAIUdWVZSpw4+Y//w4UOd1uqa+fj4OBone3p6qgsBykFAQAKVK1em1atXC5g5UgYB8wjwH4e///47xYoVy7wg8AwCIGA4AW4AvGHDBsP9quDw5MmTlCFDBhWkQqMiBFDYUWShQ5PJT67xS1xoZL7+Ghonf50RZoCA3QjMmDGDWrRoYbe0kA8I2IJA+fLlae3atbbIBUmAAAg4R6B///40YMAA5yZj1j8ILF26lGrUqPGP1/AJCIhMAIUdkVfPxdwPHjxIefLkcdGLmuatW7emyZMnqykeqkFAQAKXL192HMEKCgoSMHukDALWEPjpp5+oadOm1gRDFBAAAZcJ8LXdXJTF0E6Ai2J8sxgGCMhCAIUdWVZShw7ciKUD2v+bMLuGDRvqdwBLEAABywiEhIRQwYIFiZsmY4AACHyZQLRo0Yj7x+EK9C8zwjsgYCcCt2/fpsSJE9spJWFy4d06vGsHAwRkIYDCjiwrqUNH9+7daeTIkTosYYJzufgaAAFxCEydOpV4lx0GCIDA1wmUKVOG1q9f//WJmAECIGALAuiXqW8Z+CKF3377TZ8xrEDAhgRQ2LHholiVEm/d5C2cGNoIcAf9ly9fkpeXlzZDzAYBELCcwM2bNyldunSOf7OWB0dAEBCUwKJFi6h27dqCZo+0QUAtAiVLlqQtW7aoJdoAtXwRCv8+zzcDYoCADARQ2JFhFXVqSJMmDV26dEmntbpmqPCru/ZQLh4B/MIr3pohY/cT8PX1pbNnz1KcOHHcnwwyAAEQCJNAt27daNSoUWHOwZuhEwgICKBkyZKF/iZeBQHBCKCwI9iCGZXu+/fvKXLkyPThwwejXCrjp27durRgwQJl9EIoCIhKgHcd8L9XDBAAAe0EatasSUuWLNFuCAsQAAFLCSxcuJDq1atnaUxZgvFOpxIlSsgiBzoUJ4DCjqJfAOfOnSM/Pz9F1bsme8SIEcRPRzBAAATsS4C3V/OuxHv37tk3SWQGAjYnsHv3bipQoIDNs0R6IKA2Ae77mClTJrUh6FQ/fvx4at++vU5rmIGAvQigsGOv9bAsmzVr1lClSpUsiydToE2bNhEf78AAARCwLwFsTbfv2iAzcQhkyJCBjh8/Tp6enuIkjUxBQDEC7969oyhRomAXvo51b9GiBU2bNk2HJUxAwH4EUNix35pYktHw4cOpZ8+elsSSLcitW7dwFaxsiwo9UhG4ePEipU+fnvjIKQYIgIBrBKZMmUKtWrVyzQmsQQAETCXAu/B5Nz6GNgKFCxemnTt3ajPCbBCwKQEUdmy6MGan1axZM5o5c6bZYaTzHyNGDHr69Kl0uiAIBGQiUKpUKdq8ebNMkqAFBNxGIGbMmI6LFmLFiuW2HBAYBEAgbALVq1en5cuXhz0J735GIGnSpHT9+vXPXscLICAiARR2RFw1A3IuUqQI+fv7G+BJLRf58+enPXv2qCUaakFAIALr16+ncuXKCZQxUgUB+xNo2bIlTZ061f6JIkMQUJTA4MGDqW/fvoqq1y+bj5kGBQVRhAgR9DuBJQjYhAAKOzZZCKvTSJ48OSrUOqDzdnTelo4BAiBgPwIfP350HMHCdnT7rQ0yEptA+PDhHdefp06dWmwhyB4EJCXwyy+/UIUKFSRVZ64sPr6N723mMoZ3awigsGMNZ1tF4b4TPj4+xH8EYWgjMGnSJGrTpo02I8wGARCwhMD8+fOpQYMGlsRCEBBQjQAf9Vi2bJlqsqEXBIQgcOnSJcdNkEIka7Mk+ej2Dz/8YLOskA4IaCeAwo52ZsJbXL58GZVpnau4fft2Klq0qE5rmIEACJhFgAvWadOmpYCAALNCwC8IKE0gXLhwxNcqc2NyDBAAAXsR+PDhg+OhbXBwsL0SEyCbyZMnU+vWrQXIFCmCQNgEUNgJm4+U727ZsgXXdetc2Zs3b1LixIl1WsMMBEDALAJ8RBK76cyiC78g8F8C3L+Kj3xggAAI2I/At99+SxcuXLBfYjbPqFOnTjRmzBibZ4n0QODrBFDY+Toj6WZwA0RUprUva5QoUejFixfETy0xQAAE7EOAGx9+8803dO/ePfskhUxAQFICBw8epFy5ckmqDrJAQFwCFStWpLVr14orwE2Zly9fHtzcxB5hjSWAwo6xPIXw1rlzZxo7dqwQudopycyZM9Px48ftlBJyAQEQ+IPAqFGjqFu3bmABAiBgAQE+jszHkjFAAATsRaBnz540fPhweyUlQDbff/89nTp1SoBMkSIIhE0AhZ2w+Uj5Lir6+pa1Zs2atGTJEn3GsAIBEDCFwLt37yhFihR09+5dU/zDKQiAwOcEjh49SlmzZv38DbwCAiDgNgLz5s2jhg0bui2+qIEjR45ML1++xI58URcQef9JAIWdP1Go80GmTJkcDRDVUWyM0gEDBtCPP/5ojDN4AQEQMITArFmzqGnTpob4ghMQAAHnCFSpUoVWrFjh3GTMAgEQsITAoUOHKHfu3JbEki3IgwcPKE6cOLLJgh7FCKCwo9iCs9xYsWLR06dPFVTummS+5pWve8UAARCwB4FPnz7Rd999RxcvXrRHQsgCBBQh4OnpSefPn6dUqVIpohgyQcD+BAIDAylmzJj2T9SGGR47doyyZMliw8yQEgg4TwCFHedZSTHz9evXxE2AMbQT4P463GcHAwRAwB4EVq9eTZUrV7ZHMsgCBBQj0KxZM5oxY4ZiqiEXBOxNwNfXl548eWLvJG2YHf8+wa0qMEBAZAIo7Ii8ejpy52sQ+TpEDO0E+ElI9OjRtRvCAgRAwBQCOXLkoCNHjpjiG05BAATCJhApUiQKCAigePHihT0R74IACFhGAD8X9aGeMGECtWvXTp8xrEDAJgRQ2LHJQliVBt9kUbx4cavCSROHt7biCYg0ywkhEhA4cOAA5c2bVwIlkAAC4hLo27cvDRw4UFwByBwEJCPAF31w6wAMbQS6dOniuGFTmxVmg4C9CKCwY6/1MD2bOXPmUOPGjU2PI1sAvv2DbwHBAAEQsAeBOnXq0OLFi+2RDLL4KoFw4cI5GlPGjh3b0QMiYsSIFCFCBPrw4QO9f/+enj17Ro8fP6b79+9TcHDwV/1hgj0IxI8fn27cuEFeXl72SAhZgIDiBHr37k1Dhw5VnHlKBlgAAEAASURBVIJ2+dxDEwUx7dxgYS8CKOzYaz1Mz6Z///7EtzthaCOAb/jaeGE2CJhJ4NGjR5Q4cWLiq84x7EfAx8eHcubM6fgvY8aMlC5dOkqWLBl5e3t/NdmPHz/SrVu3HA2xT548SdzQcu/evfTw4cOv2mKCewjw7Vh8SxYGCICA+wnMnj2bmjRp4v5EBMuAbxPjncAYICAyARR2RF49Hbnzbh3etYOhjUDPnj3xBEQbMswGAdMIjBw5krp3726afzjWTiBJkiRUqVIlKlu2rOOIHO/GMWqEhITQmTNnaMOGDbR27Vr0VTIKrEF+ChcuTDt37jTIG9yAAAi4QmD37t1UqFAhV1woaZsoUSLHQwUlxUO0NARQ2JFmKZ0Twv11uM8OhjYCM2fOxBMQbcgwGwRMIcBXnPMVy9euXTPFP5w6T4Cb51arVo0aNmxI+fPnJw8PD+eNXZh5+fJlWrBgAc2aNctxdMsFVzA1gAAfs+Orz9OkSWOAN7gAARBwhcDNmzcpadKkrrhQ0tbT05Pevn1L4cOHV1I/RMtBAIUdOdbRaRV8IxbfjIWhjQA/jeSnkhggAALuJbBlyxYqWbKke5NQPDpfp9u+fXtq0aIF8cfuGtybh48BjRgxgk6fPu2uNBD3DwIdOnSgcePGgQUIgICbCfDDDz72yt8fMbQR4H5hvPsUAwREJYDCjqgrpzPvqFGj0suXL3Vaq2vGuwOSJ0+uLgAoBwGbEOAdIvzHPIb1BGLEiEF8LLVVq1YUOXJk6xP4QkQ+qrVu3TripqFnz579wiy8bCYBLvDdvXsXTZTNhAzfIOAkAd7VeuXKFSdnY9r/CBw8eJBy5cr1v0/xfxAQjgAKO8Itmf6EX79+TVGiRNHvQFFLPl7w5s0bxw0uiiKAbBCwBYHnz58T38LD/x4xrCPAW9PbtGlDP/74I3Fxx66DGy/PnTuXevXqRdxgG8NaAuvXr6cyZcpYGxTRQAAEPiPAO8x37dr12et4IWwCa9asoQoVKoQ9Ce+CgI0JoLBj48UxOrWrV6/SN998Y7Rb6f3xH5L8JBIDBEDAvQT4j/ZGjRq5NwnFoufIkYNmzJhBGTJkEEb506dPqVu3bo6LAng3D4Y1BHB7pDWcEQUEvkagfv36jj5kX5uH9/9JYNq0aY4jxv98FZ+BgDgEUNgRZ61czpSv8cubN6/LflRzkD17djp8+LBqsqEXBGxHoGjRorh9x6JV8fLyon79+jluHxO1meTmzZsdTe9RmLfmi4avub9//z795z//sSYgooAACIRKoE+fPjRkyJBQ38OLXybAP/P69+//5Ql4BwRsTgCFHZsvkJHprVq1iqpUqWKkSyV88RW+zA4DBEDAfQTu3LnjaGrIjSExzCXAzSN//vlnypkzp7mBLPDOR7Jq166N2yAtYM0h5s2bR7xbAAMEQMB9BHiXJTe3x9BGoHnz5jR9+nRtRpgNAjYigMKOjRbD7FSmTJni6JNgdhzZ/PPtL+PHj5dNFvSAgFAExowZQ126dBEqZxGTLVSoEC1fvtytt10ZzY2LgfwEe9iwYUa7hr9/EShWrBht27btX6/iUxAAASsJbNq0iUqXLm1lSClilS9fntauXSuFFohQkwAKOwqtOze+HDRokEKKjZE6evRo6ty5szHO4AUEQEAXAb6p4tdff9VlCyPnCHD/In5aycewZBzz58+nZs2a4RpgExeXj+3xcaxYsWKZGAWuQQAEwiJw+vRpSp8+fVhT8F4oBLinHH7PCAUMXhKGAAo7wiyV64nyL7QzZ8503ZFiHvhIAl+xjAECIOAeAvyHYsKECQnHsMzjzzdJqdCTYevWrcTHa4OCgsyDqbjnBQsWUN26dRWnAPkg4D4Cz549s/UNhu4jE3bkpEmT0vXr18OehHdBwMYEUNix8eIYnVq5cuWIryPF0EaAm07nzp1bmxFmgwAIGEaAC9JcmMYwhwAfUerRo4c5zm3olb+nlyxZkl6+fGnD7MRPiXv5rVixQnwhUAACAhPgJuavXr0SWIH1qUeMGJHevHlD4cKFsz44IoKAAQRQ2DEAoigu+Hano0ePipKubfK8du0aJU+e3Db5IBEQUI1A2bJlacOGDarJtkQvH8/l/jOqjX379jmKO69fv1ZNuul6+Q9KblrNfyRhgAAIuIdAqlSp6MqVK+4JLnDUp0+fYreTwOuneuoo7Cj0FcDFCWwx1L7g/Is/X+OKAQIgYD0B/vcXO3Zsx1M066PLHbFr1640cuRIuUWGoW779u2OBqPBwcFhzMJbeghw81beFYUBAiDgHgL58uWj/fv3uye4wFEvXrxIqVOnFlgBUleZAAo7Cq1+1KhRsfVc43ozs+fPn2u0wnQQAAGjCPANFRUrVjTKHfz8P4FatWrRokWLlN9yzv1gGjRoQCEhIfjaMJAAX7U8bdo0Az3CFQiAgBYCVatWpZUrV2oxwdw/CBw8eJD4sgYMEBCRAAo7Iq6ajpzfv3+PbdE6uHHVnqv3GCAAAu4h0LJlS8dNTe6JLmdU7hnm7++Pnwn/v7y4MdL4r3PeIczHmDFAAATcQ6Bt27Y0efJk9wQXOCof+8ZV8QIvoOKpo7CjyBcA3yoTP358RdQaJzN//vy0Z88e4xzCEwiAgCYCadKkoUuXLmmyweQvE0iQIAEdO3YMPw/+hohvWytfvjz6OP2NiREfBgQEULJkyYxwBR8gAAIaCQwePJj69u2r0QrT58+fT/Xq1QMIEBCSAAo7Qi6b9qTPnj1L6dKl026ouAVvZV2+fLniFCAfBNxD4Pbt25Q4cWL3BJcwqqenJ+3evZvy5s0roTrXJPH1wJkyZUIfOtcw/sN69uzZ1KhRo3+8hk9AAASsITBr1ixq2rSpNcEkijJ27Fjq2LGjRIogRSUCKOwostp79+6lAgUKKKLWOJm8lXXixInGOYQnEAABpwksXLgQT86cpvX1if3796d+/fp9faKiM7i3Av+c/PDhg6IEjJVdp04d4n/DGCAAAtYT4CNFfKMkhjYCvXv3Jt7thAECIhJAYUfEVdORMxqQ6oD2h8mQIUOoV69e+oxhBQIg4BIBfto/d+5cl3zA+L8EcuTIQQcOHCDetYPxZQLot/NlNlrf4WN/d+7c0WqG+SAAAgYQOHr0KGXPnt0AT2q54L5+U6dOVUs01EpDAIUdaZYybCG8JbpJkyZhT8K7nxGYMWMGNWvW7LPX8QIIgID5BLg/x40bN8wPJHmECBEi0IkTJ8jPz09ypa7L44sGMmfOTHx8GcN1AhcuXCDuk4UBAiBgLQHucZUiRQprg0oQrVq1avTzzz9LoAQSVCSAwo4iqz5y5Ejq3r27ImqNk7lixQqqUqWKcQ7hCQRAwCkC6K/jFCanJvEulAEDBjg1F5OIDh06RHny5MEV6AZ8MXCfj8aNGxvgCS5AAAS0EHjx4gVFixZNiwnm/kGgSJEitGPHDrAAASEJoLAj5LJpT5qLOlzcwdBGgK8ELlSokDYjzAYBEHCZwJo1a6hSpUou+1HdQZIkSej8+fPk4+OjOgpN+uvXr08LFizQZIPJnxNo3rw5TZ8+/fM38AoIgICpBEJCQihixIgUHBxsahzZnGfMmJF+++032WRBjyIEUNhRZKFbtGhBfKwIQxuBkydPUoYMGbQZYTYIgIDLBLi31bBhw1z2o7qDZcuWUfXq1VXHoFn/vXv3KHXq1PTq1SvNtjD4iwAfazt+/PhfL+AjEAABywjEixePHjx4YFk8GQIlT56crl27JoMUaFCQAAo7iix6rVq1aOnSpYqoNU7mrVu3KFGiRMY5hCcQAAGnCBQtWpR27tzp1FxMCp0A/1F97NgxChcuXOgT8GqYBPh2lKFDh4Y5B2+GTcDLy4v4SEikSJHCnoh3QQAEDCfAfdXOnTtnuF+ZHfr6+tKjR49klghtEhNAYUfixf27NL7ykK8+xNBG4PXr1zjCoA0ZZoOAywR4C3nMmDHp2bNnLvtS2cGmTZuoZMmSKiNwSXtgYCClTJmS+P8Y+glwz6KcOXPqdwBLEAABXQTy5ctH+/fv12WrqhFfNvDu3TtV5UO34ARQ2BF8AZ1Nv2DBgrRnzx5np2PeHwS8vb0pKCgILEAABCwmcPHiRUqbNq3FUeUKlyVLFsduHblUWa+mb9++NHjwYOsDSxRx4sSJ1LZtW4kUQQoIiEGgQoUK9Msvv4iRrI2yfPv2raM/kY1SQiog4BQBFHacwiT+JN6Sj2Zg2tYxYcKExDfzYIAACFhLgK8arVGjhrVBJYvGDPnaVgzXCDx8+JCSJUtGb968cc2RwtYNGzakOXPmKEwA0kHAPQQaNWpEc+fOdU9wgaPy9/3YsWMLrACpq0oAhR1FVv6bb76hq1evKqLWGJl8NvnMmTPGOIMXEAABpwn0798f13M7TevziUmTJnV8v/f09Pz8TbyimQDf7PTTTz9ptoPBfwnwMSw+joUBAiBgLYFOnTrRuHHjrA0qQbQrV644juFKIAUSFCOAwo4iCx43blziCjSG8wRy5cpFBw8edN4AM0EABAwhwLc4LV++3BBfKjoZMmQI8a1iGMYQ4N2uvOsVQx+BaNGioV+WPnSwAgGXCOAhiT58/D2frz3HAAHRCKCwI9qK6cyX+8XwmVEM5wkUL16ctm7d6rwBZoIACBhCIH369HT69GlDfKnmhG8h4tv8uJiPYRwB3nVy+PBh4xwq5unOnTuUIEECxVRDLgi4l8CYMWOoS5cu7k1CwOjckzR//vwCZo6UVSeAwo4CXwHBwcHEXd4xtBGoXLkyrVy5UpsRZoMACLhE4OPHjxQ5cmTcSqGTIt+AuG7dOp3WMPsSgWnTplGrVq2+9DZe/wqBHTt2UJEiRb4yC2+DAAgYSYCPkPJRUgxtBPgW4dKlS2szwmwQsAEBFHZssAhmp/D06VOKFSuW2WGk84+Gj9ItKQQJQODy5cuUOnVqATK1Z4rLli0jPsqGYSyBJ0+eOHacvH//3ljHinibNGkStWnTRhG1kAkC9iDAPw9q1qxpj2QEymLJkiXgJtB6IdW/CKCw8xcLaT/ibflJkiSRVp9Zwtq1a0cTJkwwyz38ggAIhEKAn5TxrhMM7QR4p9OjR4+Ij95iGE+gTJkytHHjRuMdK+CRrzvna88xQAAErCPA36/4+xaGNgKzZ88mvlEMAwREI4DCjmgrpiNfPAHXAe0Pkz59+tCgQYP0GcMKBEBAFwEcedGFzWFUsWJFWr16tX4HsAyTwMyZM6lZs2ZhzsGboRMoX748rV27NvQ38SoIgIApBPbu3UsFChQwxbfMTidPnkytW7eWWSK0SUoAhR1JF/bvsrgJKTcjxdBGYMSIEdStWzdtRpgNAiDgEgG+zWnYsGEu+VDVeO7cudSgQQNV5Zuu+/79+5QwYUL69OmT6bFkC8C3ih0/flw2WdADArYmcPLkScqUKZOtc7RjcqNHj6bOnTvbMTXkBAJhEkBhJ0w8crx59OhRyp49uxxiLFQxZcoUNMu0kDdCgQATqFu3Li1atAgwdBC4e/cuxY8fX4clTJwlwAUKvgoXQxuB2LFj08OHD7UZYTYIgIBLBK5cuUKpUqVyyYeKxrxbn3ftY4CAaARQ2BFtxXTki62YOqD9YTJnzhziBsoYIAAC1hEoWLAg8VWjGNoIfPvtt3Tu3DltRpitmQA/xR07dqxmO9UNwoULR69fv0b/J9W/EKDfUgJ37tyhRIkSWRpThmC9e/emwYMHyyAFGhQjgMKOAgu+bds2KlGihAJKjZWIrvjG8oQ3EHCGQMqUKenatWvOTMWcvxFo2bIlTZ069W+v4EMzCKC5t36qly5dwu4B/fhgCQKaCfBtfr6+vprtVDfgAj4fx8IAAdEIoLAj2orpyHfdunXEjQsxtBHgJqTcjBQDBEDAGgIhISEUKVIkwpXS2nnPmzeP6tevr90QFpoI8K1jceLE0WSDyf8l4O/vT4UKFQIOEAABiwjwLrkoUaJYFE2eMNw4mRsoY4CAaARQ2BFtxXTk+/PPP1ONGjV0WKptsmnTJipZsqTaEKAeBCwk8PLlS4oaNaqFEeUJxcew+DgWhvkEkidPTtevXzc/kGQRVqxYQVWqVJFMFeSAgH0JfPz4kcKHD2/fBG2aGV91zleeY4CAaARQ2BFtxXTkO3/+fNyUooMbni7qgAYTEHCBwI0bNyhZsmQueFDT1MfHh7go5uHhoSYAi1VXrlwZ18rrYP7TTz9R06ZNdVjCBARAQC+BCBEiUHBwsF5zJe1q1apFixcvVlI7RItNAIUdsdfPqexnzJhBLVq0cGouJv1F4ODBg5QrV66/XsBHIAACphLA1az68PJ1tidOnNBnDCvNBPi2lCFDhmi2U91g+PDh1L17d9UxQD8IWEogWrRo9OLFC0tjih6sUqVKtGrVKtFlIH8FCaCwo8Ci8znRtm3bKqDUWIl8pW3GjBmNdQpvIAACXySwa9cuKly48BffxxuhE8DTxdC5mPXqokWLqG7duma5l9YvF3W4uIMBAiBgHYG4cePSw4cPrQsoQaSyZcsS9yfFAAHRCKCwI9qK6ch3woQJ1KFDBx2WapucP3+e0qZNqzYEqAcBCwlww3I+5oKhjQDvIBk0aJA2I8zWTYB3c+bJk0e3vaqGzZo1I95BjAECIGAdgaRJk9LNmzetCyhBpFKlStHGjRslUAIJqhFAYUeBFR87dizx1X0Y2ghcvnyZvvnmG21GmA0CIKCbwKxZs9CDQwe96dOnU/PmzXVYwkQPgVu3blGSJEn0mCptU7VqVVq+fLnSDCAeBKwmkDJlSrp27ZrVYYWOV6JECdqyZYvQGpC8mgRQ2FFg3UeNGkXdunVTQKmxEvkHId9+ggECIGANgYkTJ1L79u2tCSZRlA0bNlDp0qUlUmRvKR8+fKBIkSIR3ziD4TwB/hrlr1UMEAAB6wikTp2a+EElhvMEihYtStu3b3feADNBwCYEUNixyUKYmQafae/Zs6eZIaT0zTf04KmslEsLUTYlMGbMGOrSpYtNs7NvWr/++ivlyJHDvglKmFmsWLHo6dOnEiozT1KxYsVo27Zt5gWAZxAAgc8IfPvtt3ThwoXPXscLXyZQqFAh4ptxMUBANAIo7Ii2Yjry5ds7uAcDhjYCt2/fpoQJE2ozwmwQAAHdBIYNG0a9evXSba+q4cWLF4mfymJYR4CP6V69etW6gBJEKlCgAO3evVsCJZAAAuIQSJcuHZ09e1achG2Qaf78+WnPnj02yAQpgIA2AijsaOMl5OwBAwZQ//79hczdnUnfu3eP4sWL584UEBsElCKA71X6lvv+/fvEN59gWEcgS5YsuGJeI+7cuXPTgQMHNFphOgiAgCsEMmTIQKdOnXLFhXK23Bx///79yumGYPEJoLAj/hp+VUG/fv1o4MCBX52HCf8kwNdDxo4d+58v4jMQAAHTCPDOQt5hiKGNAB8JihEjhjYjzHaJABcpDh065JIP1YyzZs1KR48eVU029IKAWwlkzpyZfvvtN7fmIFpwPtrMR5wxQEA0AijsiLZiOvLt3bs3DR06VIel2iZPnjyhmDFjqg0B6kHAQgLc5J2bvWNoI/Dq1SuKHDmyNiPMdokAHyvau3evSz5UM06fPj39/vvvqsmGXhBwK4Fs2bLRsWPH3JqDaMFRhBZtxZDv/wigsPM/EhL/v0ePHjRixAiJFZoj7dmzZxQtWjRznMMrCIDAZwS4cTI3UMbQRiAoKIi8vb21GWG2SwS4uSb6xWhDyL0+Tp8+rc0Is0EABFwikDNnTjp8+LBLPlQzzpQpE47aqrbokuhFYUeShQxLBt+IxTdjYWgj8Pz5c4oaNao2I8wGARDQTQDfq/Shw/cqfdxcscqbNy/6xWgEiD+WNALDdBAwgECuXLlwrEgjRz6+dvz4cY1WmA4C7ieAwo7718D0DHAUSx/iwMBAih49uj5jWIEACGgmgH5gmpE5DB49ekS+vr76jGGliwD3YDhy5IguW1WN0LdC1ZWHbncSwPcq7fRxFEs7M1jYgwAKO/ZYB1Oz6Nu3Lw0ePNjUGDI6f/z4McWKFUtGadAEArYkwI2TuYEyhjYC169fp6RJk2ozwmyXCPj5+dG5c+dc8qGacb58+dCXSLVFh163E0CPHe1LkD17dhxf044NFjYggMKODRbB7BTwFFwfYdyKpY8brEBAL4GRI0dS9+7d9Zora8c3nmTMmFFZ/e4QniBBArp37547Qgsbs0iRIrRjxw5h80fiICAiAdyKpX3VuC8Rbj3Uzg0W7ieAwo7718D0DAYMGED9+/c3PY5sAe7fv09x48aVTRb0gIBtCYwfP546duxo2/zsmpi/vz9xM18M6whws+q3b99aF1CCSD/88ANt3rxZAiWQAALiEOCiP26j07ZeuXPnRg81bcgw2yYEUNixyUKYmcagQYPoxx9/NDOElL7v3r1L8ePHl1IbRIGAHQlMmzaNWrVqZcfUbJ3TokWLqHbt2rbOUabkuP9azJgxZZJkiZby5cvT2rVrLYmFICAAAv8lkD59etxGp/GLgZvj79u3T6MVpoOA+wmgsOP+NTA9g6FDhxI3UMbQRuD27duUMGFCbUaYDQIgoJvAkiVLUKDQQW/YsGHUo0cPHZYw0UPg1KlTlCFDBj2mStvUr1+f5s2bpzQDiAcBqwmkS5eOzp49a3VYoePlz5+f9uzZI7QGJK8mARR2FFh3vuqcrxHG0Ebgxo0blCRJEm1GmA0CIKCbwJYtW6hkyZK67VU1bNmyJU2dOlVV+Zbr3rBhA5UtW9byuKIH7NChA40bN050GcgfBIQi8N1339H58+eFytndyRYsWJB27drl7jQQHwQ0E0BhRzMy8QzQkFTfmgUEBFCyZMn0GcMKBEBAM4HDhw8TNy3E0EagcOHCtHPnTm1GmK2bwOjRo6lr16667VU15H5/OBau6upDt7sIpEmThi5duuSu8ELGRaN3IZcNSf9BAIUdBb4M8EuovkW+cOEC8Q9EDBAAAWsI8C+f+DennTX3AuOeYBjWEGjSpAnNnj3bmmASRZk0aRK1adNGIkWQAgL2J8APKHkHOobzBIoVK0bbtm1z3gAzQcAmBFDYsclCmJnGxIkTqX379maGkNL3yZMn0UdBypWFKLsSePToEcWJE8eu6dk6L2bn6+tr6xxlSS5Hjhx05MgRWeRYpgNNvi1DjUAg8CcBLvzzLa8YzhMoXbo08ZFbDBAQjQAKO6KtmI58Z8yYQS1atNBhqbYJHwvJnj272hCgHgQsJPDhwweKECEChYSEWBhVjlB8jTRfJ41hLoH3799T1KhR6d27d+YGktD7xo0bqVSpUhIqgyQQsC+BGDFi0LNnz+yboA0zq1SpEq1atcqGmSElEAibAAo7YfOR4t358+dTgwYNpNBipQjuiM+d8TFAAASsIxA3blx6+PChdQEliYT+JdYs5LFjxyhbtmzWBJMsyokTJyhTpkySqYIcELA3AR8fH3rz5o29k7RZdjVr1iS+pRMDBEQjgMKOaCumI99ly5YRf5PC0EaAz9fyOVsMEAAB6whkzZqVjh8/bl1ASSIVLVqUtm/fLoka+8oYO3Ysde7c2b4J2jgzHBe08eIgNWkJeHp60qdPn6TVZ4awhg0b0pw5c8xwDZ8gYCoBFHZMxWsP52vWrCHeVoihjcD69eupTJky2owwGwRAwCUCFStWpLVr17rkQ0Vjb29vCgwMpIgRI6oo3zLNfM05ei9ox827Bl6/fq3dEBYgAAK6CfDRUfxM0I6P21dMmzZNuyEsQMDNBFDYcfMCWBGeey/gXLt20itWrKAqVapoN4QFCICAbgLt2rUjvj0HQzsBf39/KlSokHZDWDhFIDg42NGg+sWLF07Nx6S/CKROnZouXrz41wv4CARAwHQCL1++dPQEMz2QZAH4wpnx48dLpgpyVCCAwo4Cq8y/7BcpUkQBpcZKxA0exvKENxBwhsCoUaOoW7duzkzFnH8R6NixI/FRIQxzCOzYsQPHc3Wi5d9BmB8GCICAdQRw06Q+1t27d6fhw4frM4YVCLiRAAo7boRvVegDBw5Q3rx5rQonTRy+TaxZs2bS6IEQEBCBAHqC6V+llClT0pUrV/Q7gGWYBNq2bUuTJ08Ocw7eDJ0AX+Awd+7c0N/EqyAAAqYQuH79OiVPntwU3zI7/fHHH4kvJMAAAdEIoLAj2orpyBe3eOiA9ofJ6NGj0SRTHzpYgYBuAkeOHKEcOXLotlfdEDcPmfMVwM1HkyRJQnfu3DEngOReBw4cSH379pVcJeSBgL0InDlzhr7//nt7JSVANkOGDKFevXoJkClSBIF/EkBh5588pPwM39j1LWv//v2pX79++oxhBQIgoIsA9y+JHj06hYSE6LJX3YhvbOKiNIaxBHbu3El88xiGPgLoWaePG6xAwBUChw4doty5c7viQknbMWPGUKdOnZTUDtFiE0BhR+z1cyr7gIAASpEihVNzMekvAvgD6S8W+AgErCSQOHFiun37tpUhpYmVIEECunnzJvEVtxjGEeDrb+fNm2ecQ8U88QMmPz8/xVRDLgi4l8D27dupePHi7k1CwOjTp0+n5s2bC5g5UladAAo7CnwFPH78mGLHjq2AUmMl8jd1/uaOAQIgYC0B/kWUfyHF0EeAr4svX768PmNYfUbg2bNnlDBhQgoKCvrsPbzwdQLhw4d3XHUeIUKEr0/GDBAAAcMIrF69mipXrmyYP1Uc4fIUVVZaPp0o7Mi3pp8pevv2LXl7e3/2Ol4Im0CtWrVo8eLFYU/CuyAAAoYT4KtGJ06caLhfVRz+8MMPtHnzZlXkmq6Tvxb5axJDH4E0adLQhQsX9BnDCgRAQDeB+fPnEzcux9BG4JdffqFy5cppM8JsELABARR2bLAIVqTAT8qCg4OtCCVNDP6mzt/cMUAABKwlMG3aNGrVqpW1QSWK5uHhQWfPnqW0adNKpMo9Urhp8rfffkuXLl1yTwISRK1QoQKtWbNGAiWQAAJiEZgyZQq1adNGrKRtkC33VCtcuLANMkEKIKCNAAo72ngJOztmzJgUGBgobP7uSLxQoULk7+/vjtCICQJKE9i/fz/ly5dPaQauim/cuDHNmjXLVTfK2+Mog+tfAn369KFBgwa57ggeQAAENBEYPnw49ezZU5MNJhPx7ZzZsmUDChAQjgAKO8Itmb6EkyZN6mioqc9aTassWbIQXxWPAQIgYC2B169fU7Ro0ejjx4/WBpYoWsSIEenq1auO3jASybJcSo4cORy/5FseWKKAONYg0WJCilAE+MruYcOGCZWzHZI9d+6cY6emHXJBDiCghQAKO1poCTyXb6Pgb1QYzhNInjw5Xbt2zXkDzAQBEDCMQPr06en06dOG+VPRUYsWLYiPtWHoI7Bu3To0odaH7h9Wd+/epfjx4//jNXwCAiBgPgH+GTBjxgzzA0kW4datW5QoUSLJVEGOCgRQ2FFhlf/QmDNnTjp8+LAiao2RyTsG+DYUDBAAAesJ8FGiOXPmWB9YooheXl50/vx5SpkypUSqrJHCvXUyZcpEp06dsiagpFH4jyP+IwkDBEDAegLVqlWjFStWWB9Y8IjcuiJ69OiCq0D6KhJAYUeRVS9atChxMzAM5wmECxeO3r9/T3xVKwYIgIC1BPgpIz9txHCNQKVKlWjVqlWuOVHQmvsTNW3aVEHlxkquWLEicZ8iDBAAAesJFCtWjHbs2GF9YMEjfvjwgTw9PQVXgfRVJIDCjiKrzr9crV27VhG1xsl8+PAhxY4d2ziH8AQCIOAUgRMnThD3ucJwnQD/Yl+kSBHXHSni4fnz55Q6dWri7/8YrhEYOnQomre6hhDWIKCbAP8M5Z+lGM4T8PHxIe7zhwECIhJAYUfEVdORc8OGDWnevHk6LNU2uXjxouMXfLUpQD0IWE8gODjYsRU6KCjI+uCSRUyTJg2dPHmSIkWKJJkyc+S0atUKvYkMQss3S/INkxggAALWE+BekdevX7c+sMAREyRIQHfu3BFYAVJXmQAKO4qsfufOnWns2LGKqDVO5qFDhxz9iYzzCE8gAALOEihRogRt27bN2emYFwYBvvKWd09ghE1g7969VLBgQQoJCQl7It79KgEuJD59+pS8vb2/OhcTQAAEjCfAvSJfvHhhvGOJPaZLlw4XN0i8vrJLQ2FH9hX+f31DhgyhPn36KKLWOJkbN26kUqVKGecQnkAABJwmMHz4cBzjcJpW2BO5V9i+fftQqA4D08uXLx0Nk/maeAzXCXCBbNeuXa47ggcQAAHNBLhPTIQIEVCk1kguf/78tGfPHo1WmA4C9iCAwo491sH0LPjKW95ejqGNwMKFC6lOnTrajDAbBEDAEAJHjhyhHDlyGOILTohSpEhBv/32G0WNGhU4QiFQr1494u/5GMYQGDhwIPXt29cYZ/ACAiCgiQD3CIsbN64mG0wmKl++PHqS4gtBWAIo7Ai7dNoS//nnn6lGjRrajDCbRo8eTXyMDQMEQMB6AvzE0dfXl7iZLYYxBKpWrUr884Bv/cP4i8DcuXOpUaNGf72Aj1wmwDvE8ubN67IfOAABENBO4MyZM/T9999rN1TcgnuSzpkzR3EKkC8qARR2RF05jXlznwruV4GhjUDXrl1p5MiR2owwGwRAwDAC5cqVo/Xr1xvmD46I+Ihb9+7dgeL/CRw9epR4+/3bt2/BxCACkSNHpsDAQPLy8jLII9yAAAhoIbBz504qWrSoFhPM/YMAP8zlh7oYICAiARR2RFw1HTkfO3aMsmXLpsNSbRPemj9//ny1IUA9CLiRwIQJE6hDhw5uzEC+0J6enrRmzRoqW7asfOI0Krp9+7aj7xBuQdEI7ivTS5YsSZs2bfrKLLwNAiBgFoElS5ZQ7dq1zXIvrV/uSdqrVy9p9UGY3ARQ2JF7ff9Ud+3aNUqZMuWfn+MD5wjwLqctW7Y4NxmzQAAEDCeA712GI3U49PHxcTS2zZ49uzkBBPDKR/zy5cuHG1BMWKupU6dSy5YtTfAMlyAAAs4QGDduHHXq1MmZqZjzNwL43vU3GPhQOAIo7Ai3ZPoSfvbsGcWIEUOfscJWGTNmdDQbVRgBpIOA2wlwnwDuF4BhLIHYsWM7ijt+fn7GOhbAW1BQEPGuEr7eHMNYAty/6ebNm5QoUSJjHcMbCICA0wR69OhBI0aMcHo+Jv6XwLJly6h69erAAQJCEkBhR8hl0570p0+fHNcefvz4Ubuxwhbx48enu3fvKkwA0kHA/QR69+5NQ4cOdX8iEmYQL1482r17N6VJk0ZCdaFL4l46fAxtx44doU/Aqy4RyJIlC/HxbwwQAAH3EeAmwPPmzXNfAoJG5p6kxYoVEzR7pK06ARR2FPoK4F/gHzx4oJBi16WGDx+e3r17Rx4eHq47gwcQAAFdBA4fPuzog6LLGEZfJcA/G7Zu3Urp06f/6lzRJ7x8+dJxne2uXbtEl2Lb/HHNuW2XBokpRIB3JKKVgPYFP3nyJGXIkEG7ISxAwAYEUNixwSJYlQJ/ozp16pRV4aSJ8/DhQ+IjCxggAALuIcA7DvlYx71799yTgAJR+agu3z6WJ08eadXy93LeqXPkyBFpNdpBGP4wssMqIAfVCWTOnBmtBHR8EfDvGfywAwMERCSAwo6Iq6Yz5+LFi9P27dt1Wqtrhl9S1V17KLcPgRYtWtCMGTPsk5CEmUSMGJFmz54t5U0qZ8+edRR1AgICJFw5+0hKnjw5ccNzDBAAAfcSwC597fx5d/779++Jb47EAAERCaCwI+Kq6cyZr+5euHChTmt1zfgpdpkyZdQFAOUgYAMC3OS2QIECNshE7hS48S3fpDJs2DDy8vKSQuzKlSupcePG9OLFCyn02FkEXxPM1wVjgAAIuI8AtxDw9vamkJAQ9yUhYOQ4ceKgZYWA64aU/yKAws5fLKT/qGvXrjR69GjpdRotcNq0acS7BTBAAATcR4B/QeXdADdu3HBfEgpFzps3r+NBQLJkyYRV/ebNG+revTtNmjRJWA2iJc47o7777jvR0ka+ICAVAd41lzJlSqk0WSGGb+BEyworSCOGWQRQ2DGLrA39clGHizsY2gjwjTyDBw/WZoTZIAAChhPo2bMnDR8+3HC/cBg6gahRo9LYsWOpUaNGxDt5RBpHjx6l+vXr0/nz50VKW+hcuafH8ePHhdaA5EFABgLY4apvFYsWLYqWFfrQwcomBFDYsclCWJEGH8Pi41gY2ggws/nz52szwmwQAAHDCZw5c4b4iRqGtQT4CNzUqVOF2Inx7Nkz6tOnD02fPp0+fvxoLSjFo40ZM8ZxjE9xDJAPAm4nsGTJEil7pZkNtnbt2rRo0SKzw8A/CJhGAIUd09Daz/G2bduoRIkS9kvM5hkVLlyYdu7cafMskR4IqEEgU6ZMxA3NMawlwP12mjRpQv369aO4ceNaG9yJaNzwkos5vLvy0aNHTlhgipEEuNnozZs3KUGCBEa6hS8QAAEdBEaMGEE9evTQYam2CfeX4wI1BgiISgCFHVFXTkfev//+O2XMmFGHpdomqVOnposXL6oNAepBwCYE+GhQ586dbZKNemlEjhyZmjdv7lgDO/wR//btW5o7dy6NHDmSrl+/rt6C2EQx37q5detWm2SDNEBAbQJt27alyZMnqw1Bh3ouiHXr1k2HJUxAwB4EUNixxzpYksX9+/cpfvz4lsSSKYiPjw+9fv1aJknQAgLCEnjy5AklSpSI+A96DPcR4KvRq1WrRq1ataKcOXNansitW7fop59+opkzZ+IWE8vpfx5w9erVVLFixc/fwCsgAAKWE+B/i2vXrrU8rugBue0CWlaIvopq54/CjkLr/+nTJ4oUKRIFBwcrpNoYqQ8fPqTYsWMb4wxeQAAEXCLATXEXLFjgkg8YG0eAb0GqU6cOVa5cmXiHo1mDi3rr16+nxYsX065du9BDxyzQGv0mTJjQsVsqfPjwGi0xHQRAwAwCWbJkoRMnTpjhWmqfO3bsoCJFikitEeLkJoDCjtzr+5k6vi4Y29U/w/LVFw4fPkzZs2f/6jxMAAEQMJ/AoUOHKHfu3OYHQgTNBNKkSUN8LCd//vyUK1cu4j/69Y7nz587blniG178/f3p4MGDKObohWmiXf/+/R29l0wMAdcgAAIaCMSIEYO4kTyGNgIXLlwg/hmGAQKiEkBhR9SV05l3vnz5aP/+/Tqt1TVbunQp1ahRQ10AUA4CNiOAJso2W5AvpMM7Hf38/ChFihSUJEkSx87HmDFjOnaPRogQgT58+EDv3r0jLuI8fvyY7ty5Q9euXSP+BTsgIIBCQkK+4Bkv24EA79Lhh0WuFPDsoAM5gIAsBAIDA4m/x2JoJ/Dq1SviPnIYICAqARR2RF05nXnXrFmTli1bptNaXbMhQ4ZQr1691AUA5SBgMwIzZsygFi1a2CwrpAMCahGoVKkSrVq1Si3RUAsCNiZw/Phxypo1q40ztGdqXAzj474YICAyARR2RF49Hblzt/dRo0bpsFTbhK/55SadGCAAAvYgwE/WeAcIP53EAAEQcA8BPiJXqFAh9wRHVBAAgc8IrFixwtHY/rM38EKYBNKnT098ezAGCIhMAIUdkVdPR+4TJ06k9u3b67BU26Rw4cK0c+dOtSFAPQjYjEDfvn1p8ODBNssK6YCAGgSyZctGR44cUUMsVIKAIARGjhxJ3bt3FyRb+6RZqlQp2rhxo30SQiYgoIMACjs6oIlswleS8s0lGNoIJEuWzNHvQZsVZoMACJhJgG+r43+bb968MTMMfIMACIRCYOXKlfh9IhQueAkE3EmAjyjzUWUMbQSaN29O06dP12aE2SBgMwIo7NhsQcxO5+jRo7jdSQdkbhAZFBREXl5eOqxhAgIgYBaB1q1b09SpU81yD78gAAKhEOBr7c+fP08eHh6hvIuXQAAE3EWAbyXcvn27u8ILG3fQoEHUp08fYfNH4iDABFDYUezr4N69e5QgQQLFVBsj98qVK5QyZUpjnMELCICAIQT4BiX+I/Pjx4+G+IMTEACBrxP46aefqGnTpl+fiBkgAAKWEvjmm2/o6tWrlsaUIdi8efOofv36MkiBBoUJoLCj2OJ/+vSJvL296f3794opd13upk2bqGTJkq47ggcQAAFDCeC2P0NxwhkIhEkgfvz4jqPJESNGDHMe3gQBELCWAP9u7+PjgwcdOrDv2LGDihQposMSJiBgHwIo7NhnLSzLJFWqVMS7TzC0ERg7dix17NhRmxFmgwAImE7g7NmzlCFDBvwyazppBAABovHjx+MSBnwhgIANCZw7d478/PxsmJn9U+JdTilSpLB/osgQBMIggMJOGHBkfatEiRK0bds2WeWZpguN1UxDC8cg4DKBevXq0cKFC132AwcgAAJfJpAkSRK6dOkSYbfOlxnhHRBwF4E1a9ZQpUqV3BVe2LjcR5MvYeD/Y4CAyARQ2BF59XTm3rJlS3R+18GuYMGCtGvXLh2WMAEBEDCbAPfaSZs2LQUHB5sdCv5BQFkCs2bNosaNGyurH8JBwM4Ehg8fTj179rRzirbMLXny5MS/Q2CAgOgEUNgRfQV15D9y5Ejq3r27Dku1TbivwN27d9WGAPUgYGMCrVq1omnTptk4Q6QGAuIS4KasfBMWnmqLu4bIXG4CDRs2JG4CjKGNAPfW4R47GCAgOgEUdkRfQR35r1y5kqpWrarDEibPnz+nqFGjAgQIgIANCXDhlXuIBQUF2TA7pAQCYhNYvHgx1apVS2wRyB4EJCaQO3duOnTokMQKzZHGN/zxTX8YICA6ARR2RF9BHfmfOHGCsmTJosMSJkeOHKFs2bIBBAiAgE0J9OjRg0aMGGHT7JAWCIhJgJuT8+8OHh4eYgpA1iCgAIFYsWLR06dPFVBqrMShQ4fiCJuxSOHNTQRQ2HETeHeGDQwMpJgxY7ozBWFjc3PWOnXqCJs/EgcB2Qm8ePHC0Wvn3r17skuFPhCwjMDu3bupQIEClsVDIBAAAW0EHj16RHHixNFmhNkOAsuWLaPq1auDBggITwCFHeGXUJ8ALuxwgQdDGwFuSseVfQwQAAH7Epg/fz41aNDAvgkiMxAQiAD/wcN/+GCAAAjYlwAXXwsVKmTfBG2cGXbj23hxkJomAijsaMIlz+SsWbPS8ePH5RFkkZIyZcrQ+vXrLYqGMCAAAnoIhISEEPca+PXXX/WYwwYEQOD/CUSOHNnRMDlx4sRgAgIgYGMCkydPprZt29o4Q/umxrudfH197ZsgMgMBJwmgsOMkKNmmVatWjVasWCGbLNP1JEuWjAICAkyPgwAgAAKuETh27BjlyJGDPn365JojWIOAwgQGDRpEffr0UZgApIOAGASaN2+OBsA6lipatGj07NkzHZYwAQH7EUBhx35rYklG/IvakCFDLIklU5Bw4cI5fgDgZiyZVhVaZCXQpEkTmj17tqzyoAsETCWQIkUKOnv2LEWKFMnUOHAOAiDgOoE8efLQwYMHXXekmAe+EIWPYmGAgAwEUNiRYRV1aOAmwPXq1dNhCRP+wZkrVy6AAAEQsDmBJ0+e0HfffUcPHz60eaZIDwTsR2DLli1UokQJ+yWGjEAABP5BgI8fR48enfjyAAxtBPhCFP6bCAMEZCCAwo4Mq6hDA1en+ZgChnYCM2bMoGbNmmk3hAUIgIDlBJYvX47bLiynjoCiE+Dm43PnzhVdBvIHASUI3Lhxg7hVAIZ2Ajhuqp0ZLOxLAIUd+66NqZk9f/7cUd03NYikzrk53cSJEyVVB1kgIB+BSpUq0Zo1a+QTBkUgYAKB+PHjO45gxYgRwwTvcAkCIGA0gY0bNxJf7oGhnQA//Klatap2Q1iAgA0JoLBjw0WxKiX+5e3+/ftWhZMmDl8n6e/vL40eCAEB2Qncu3eP/Pz8KDAwUHap0AcCLhNYvXo1VaxY0WU/cAACIGANgeHDh1PPnj2tCSZZlN9//53Sp08vmSrIUZUACjuqrvwfurlAsXv3boUJ6JMeK1Ysevz4sT5jWIEACLiFwLx586hhw4ZuiY2gICAKAX5yzU+wMUAABMQhUKtWLVq6dKk4CdskUw8PD3r16hV5e3vbJCOkAQKuEUBhxzV+Qlu3aNGCuF8MhnYCfOU5zjNr5wYLEHAngXLlytH69evdmQJig4BtCcSLF4/46XWcOHFsmyMSAwEQ+JxA2rRp6eLFi5+/gVfCJMC/x/Pv8xggIAsBFHZkWUkdOsaNG0edOnXSYQmTVatWEfftwAABEBCHwKNHjyhjxox09+5dcZJGpiBgAQF+cr1582YqXry4BdEQAgRAwCgCL1++dPTM/PTpk1EulfHDt/7x7X8YICALARR2ZFlJHTo2bdpEpUuX1mEJk969e9PgwYMBAgRAQDACO3fudPzxil+CBVs4pGsqgS5dutCoUaNMjQHnIAACxhPYt28f5c+f33jHCnhs164dTZgwQQGlkKgKARR2VFnpUHReu3aNUqZMGco7eOlrBEqWLElcGMMAARAQj0CPHj1oxIgR4iWOjEHABAJZs2alAwcOUIQIEUzwDpcgAAJmEuDCRIcOHcwMIa3vqVOnUsuWLaXVB2HqEUBhR701/1MxP7GOGjUqvX79+s/X8IFzBLgXAd+0gwECICAegeDgYMqbNy8dOXJEvOSRMQgYSCBKlCh04sQJSpUqlYFe4QoEQMAqAvXr16cFCxZYFU6qOHv37qV8+fJJpQli1CaAwo7a6085cuTAHzc6vwbu3LlDCRIk0GkNMxAAAXcS4B2L2bJlo6dPn7ozDcQGAbcSWLx4MfGNOhggAAJiEvj+++/pzJkzYibv5qz553+MGDHcnAXCg4BxBFDYMY6lkJ4aN25Mc+bMETJ3dyfNt+uUKVPG3WkgPgiAgE4C27Zto1KlStHHjx91eoAZCIhLgC9PGDNmjLgCkDkIKE7gzZs3jp33Hz58UJyEdvmJEiWiW7duaTeEBQjYmAAKOzZeHCtSGz9+PHXs2NGKUNLF6N+/P/Xr1086XRAEAioR4F473HMHAwRUIlCkSBHHbTDhw4dXSTa0goBUBA4dOkS5c+eWSpNVYn744QfHTYBWxUMcELCCAAo7VlC2cYwdO3ZQsWLFbJyhfVNDA2X7rg0yAwFnCYSEhFCNGjVo+fLlzppgHggITSBZsmR09OhR8vX1FVoHkgcB1Qng4az+r4CuXbvSyJEj9TuAJQjYkAAKOzZcFCtTevDgAXEjYAztBGLGjEmPHz+mcOHCaTeGBQiAgG0IcAN5fup56tQp2+SEREDADAI+Pj60f/9+ypQpkxnu4RMEQMBCAjVr1qRly5ZZGFGeUPPnz6d69erJIwhKQOAPAijs4MuA4sSJQ48ePQIJHQQuXrxIqVOn1mEJExAAATsRuH79OuXKlYvu379vp7SQCwgYRsDDw4N+/vlnqlKlimE+4QgEQMB9BJInT078swtDOwG+DRAFbu3cYGFvAijs2Ht9LMmOz9r7+/tbEku2IKj4y7ai0KMygePHj1PBggXp1atXKmOAdkkJjBs3jjp06CCpOsgCAbUIYMe9/vX29PR0/JyPFCmSfiewBAEbEkBhx4aLYnVK7du3p4kTJ1odVop4rVq1oilTpkihBSJAAATI0UyxXLlyhFtG8NUgEwG+JGHs2LEySYIWEFCawLp166h8+fJKM9ArPm3atHT+/Hm95rADAdsSQGHHtktjXWKzZ8+mJk2aWBdQokiZM2cmfsqPAQIgIA8BfE+UZy2hhBxHr/gIFh/FwgABEJCDQK9evWjYsGFyiLFYRdWqVXFhgsXMEc4aAijsWMPZ1lH4nGmWLFlsnaNdk/Py8qJnz54RN6TEAAEQkIdAv379aODAgfIIghIlCeTLl4+2bdtGOHKg5PJDtMQEChcuTLt27ZJYoXnSuCDWo0cP8wLAMwi4iQAKO24Cb6ew79+/p//85z/E/8fQTmDv3r3EvzxjgAAIyEWA+5FMmDBBLlFQowyBbNmy0fbt2ylatGjKaIZQEFCBwMePHylGjBj08uVLFeQarnHr1q1UvHhxw/3CIQi4mwAKO+5eAZvE5x07vHMHQzuBoUOHUs+ePbUbwgIEQMDWBEJCQqh169Y0bdo0W+eJ5EDg3wQyZsxIO3fupJgxY/77LXwOAiAgOAHstHdtAfkmYF9fX9ecwBoEbEgAhR0bLoo7UmratCnNmjXLHaGFj1myZEnatGmT8DogAARA4HMCXNzhHmRz5sz5/E28AgI2JJAuXTrHTZexY8e2YXZICQRAwFUCvJMUN9zpo5gkSRK6ceOGPmNYgYDNCaCwY/MFsiq96dOnU8uWLa0KJ1Uc3ub+5MkT4usTMUAABOQj8OnTJ6pfvz4tWrRIPnFQJBWBNGnS0O7duylevHhS6YIYEACBvwhUqVKFVq1a9dcL+MhpAhUqVKA1a9Y4PR8TQUAkAijsiLRaJuZ6+PBhypkzp4kR5HbN22IzZcokt0ioAwGFCXBPAy7uLF68WGEKkG5nAnyF744dOyhhwoR2ThO5gQAIuECAd5Fy4fbhw4cueFHXlC9F6Nu3r7oAoFxqAijsSL28zot78+YNRY0alT58+OC8EWb+SYC3xbZr1+7Pz/EBCICAfAR4507btm1p6tSp8omDIqEJcJ+8zZs3E45fCb2MSB4EvkrgwoUL9O233351HiaETmDDhg1UunTp0N/EqyAgOAEUdgRfQCPTz5AhA506dcpIl8r44m2xK1asUEYvhIKAygT69OlDQ4YMURkBtNuIQIECBWjdunWOhzM2SgupgAAImEBg5syZ1KxZMxM8q+Hy7t27FD9+fDXEQqVyBFDYUW7Jvyy4YcOGNG/evC9PwDtfJBA3bly6f//+F9/HGyAAAnIRGDNmDHXt2pV4WzwGCLiLQJkyZWj58uXk7e3trhQQFwRAwEIC9erVo4ULF1oYUZ5QXNDhwg4GCMhKAIUdWVdWh67Jkyc7jhnoMIXJHwR4eyw3rsQAARBQgwDflNW8eXMcYVVjuW2nsk6dOo7b2ry8vGyXGxICARAwh0Dy5Mnp+vXr5jiX3CsXwtevXy+5SshTmQAKOyqv/r+0Hz16lLJnz/6vV/GpswT4ZjH+Iw8DBEBAHQLbt2+natWq0bNnz9QRDaVuJRAuXDjq168f/fjjj8QfY4AACKhBICAggFKkSKGGWBNUDh48mHr37m2CZ7gEAXsQQGHHHutgiyzev39PfHX327dvbZGPaElUrVrVsSVetLyRLwiAgGsEzp8/T2XLlqWrV6+65gjWIPAVApEiRaK5c+dSjRo1vjITb4MACMhGYPbs2dSkSRPZZFmmhx/EFC1a1LJ4CAQCVhNAYcdq4jaPlzdvXjpw4IDNs7Rner6+vvTgwQPy8PCwZ4LICgRAwDQCjx8/pkqVKtG+fftMiwHHahPgK47XrFlDOXPmVBsE1IOAogRq1apFS5cuVVS9a7L5d/PAwEA0mXcNI6xtTgCFHZsvkNXpde7cmcaOHWt1WGninThxgjJlyiSNHggBARBwngDvemzRooVjR4XzVpgJAl8nwLdW/vLLL5Q0adKvT8YMEAAB6Qhwo35u/ssPEDG0E/Dz86MzZ85oN4QFCAhEAIUdgRbLilT5ym7uF4Ghj8Do0aOJi2MYIAAC6hLg62jbtWuHY63qfgkYqrxRo0bElxvg5itDscIZCAhF4PTp05Q+fXqhcrZTso0bN6ZZs2bZKSXkAgKGE0Bhx3CkYju8efMmngi6sIQlS5akTZs2ueABpiAAAjIQOHnyJHHfrStXrsggBxrcQMDHx4emTJlCDRo0cEN0hAQBELATgfHjx1PHjh3tlJJQufADF/QnEmrJkKwOAijs6IAmu0nChAnp7t27sss0RV+UKFHoyZMnFCFCBFP8wykIgIA4BJ4/f078lHDVqlVHC2IrAAAXJUlEQVTiJI1MbUEgTZo0tHLlSkqX7v/YuxPgnK73geOPEJG2JGKrTLSTWqoqqKXVprFXTUcTVO2ktMbaMTVFQy2lSVCGDlV0kCqxM5QxKDqRCUUR1NJUGqZi79SWENvvd15//2l+iOTed7n33O+dySTv+97znOf5nHcSznvvObUtkQ9JIICAbwWio6PZqtvEEBw8eFAiIiJMRKApAtYXYGLH+mPk9QzVAqBqgUYOYwIpKSkSFRVlrDGtEEBAO4EZM2bIiBEjJDc3V7vaKMj9Aj179nRdqVO6dGn3ByciAgjYTuD27dtSrlw5uXLliu1yt0LC6nepWji5ePHiVkiHHBDwmAATOx6jtW/gyZMnu/4TYt8KfJv56NGjZfz48b5Ngt4RQMBSAseOHZPY2FjZvXu3pfIiGesIVKhQQWbPnu3aXc06WZEJAgj4WiA1NZUPDE0MQosWLWTr1q0mItAUAXsIMLFjj3Hyapb8ATHH3bBhQ9mzZ4+5ILRGAAHtBNSnromJiTJhwgS5deuWdvVRkHGBdu3ayZw5c6RixYrGg9ASAQS0FPj8888lPj5ey9q8UZTyU393ORDQXYCJHd1H2EB9N2/elODgYHZ0MWCnmvj5+cmZM2f4B7pBP5ohoLvA/v37pVevXmy9qvtAF6I+9bf266+/dr0fCnE6pyCAgAMFGjRoIPv27XNg5e4pedOmTdK6dWv3BCMKAhYWYGLHwoPjy9SaNm0qaq0YDmMCCxcuFLVOAgcCCCDwKIG8vDyZMmWK61PYnJycR53Cc5oLdOnSRaZOnSqhoaGaV0p5CCBgVODs2bOu3xH37t0zGsLR7UqUKCF///23sGaZo98GjimeiR3HDHXRCuWyz6J5/e/ZXbt2leTk5P99mscIIIBAPoGsrCz5+OOPZf369fme54G+AjVq1HAtjtyqVSt9i6QyBBBwi8D3338vH3zwgVtiOTFIo0aNWNvOiQPv0JqZ2HHowD+pbHXZYps2bZ50Gq8/RkDtXnDu3DlW4H+MD08jgEB+gbVr18qQIUPk5MmT+V/gkTYCgYGBMnLkSBk2bJgEBARoUxeFIICA5wTUlX3Lli3zXAeaRx46dKjrykjNy6Q8BFwCTOzwRnikwNWrVyUkJETUYp8cxgR27twpjRs3NtaYVggg4DiB69evu27PUrfnqN/BHHoIFCtWTDp37iwJCQkSHh6uR1FUgQACHhe4c+eOa71GdSsRhzGBNWvWiFqcngMBJwgwseOEUTZYo7p8ce/evQZb02zs2LEybtw4IBBAAIEiCair/caPHy/fffcdu2cVSc56J7ds2VImTZokavFTDgQQQKAoAmlpaRIZGVmUJpz7LwE1qX7+/HkpX778v57lRwT0FWBiR9+xNV2Zunxx2rRppuM4NQDbnjt15KkbAfcIZGRkyKhRo2TlypXCwpnuMfVWlLp168rEiRO5pdlb4PSDgIYCrHdpblBr1aolv/32m7kgtEbARgJM7NhosLydqrp8sUOHDt7uVpv+1CcFp06dkrCwMG1qohAEEPC+gLpyMj4+XtQ6PEzweN+/KD3WqVNH4uLipFOnTuLn51eUppyLAAII5BOIiIiQw4cP53uOB4UX6N+/v3z77beFb8CZCNhcgIkdmw+gJ9O/cOGCVKpUif9ImECeNWuWDBgwwEQEmiKAAAL3BdQnj4mJia6FNFn/zFrvCrWemloYuW3btqIm9TkQQAABMwKZmZlStWpVMyEc33bx4sXSrVs3xzsA4BwBJnacM9aGKlWfPh46dMhQWxqJ6zL8jRs3QoEAAgi4TeDEiRMyefJkUdvg3rx5021xCVR0AbWGjprQadGiRdEb0wIBBBB4jIBaCkEticBhXOD06dMSGhpqPAAtEbCZABM7Nhswb6f7ySefyPTp073drTb9qS1t1cJtZcqU0aYmCkEAAWsIqKsq582bJ7Nnz2abdC8OyTPPPCM9evSQgQMHirpVggMBBBBwt0Dz5s3l559/dndYx8R76aWX5MiRI46pl0IRUAJM7PA+KFBg/fr18u677xZ4Di8WLLB8+XJ5//33Cz6JVxFAAAGDAmpL3A0bNoi69XPz5s3cPmvQ8UnN1H8U1K21sbGxTNY/CYvXEUDAsIDa3lwthcAtt4YJZfDgwTJjxgzjAWiJgA0FmNix4aB5M+UrV65IuXLl+ONiAr179+6yaNEiExFoigACCBROQO2ktWDBAlmyZIlkZWUVrhFnPVagdOnSrk0E1GROs2bNWD/nsVK8gAAC7hL44YcfpFevXu4K58g4agOYdu3aObJ2inauABM7zh37QlceGRkpaWlphT6fE/MLlC1b1nU7VokSJfK/wCMEEEDAQwJq96zU1FRRi0euWLFC1CfAHIUT8Pf3d62Ppiblo6OjJTAwsHANOQsBBBBwg0DHjh1l1apVbojkzBDFixeXixcvSnBwsDMBqNqxAkzsOHboC1/4mDFjZMKECYVvwJkPCfz000+iFtnkQAABBLwtkJeXJ2oR99WrV7u+q7V5OPILlCpVynVFTkxMjKj/VJUvXz7/CTxCAAEEvCCQm5srFStWlGvXrnmhNz27ePXVV+WXX37RsziqQqAAASZ2CsDhpfsCavE2tYgbh3GBfv36uRY4NR6BlggggIB5AbUez65du0Stn6a+Dh8+bD6oTSM8++yz8s4777jWkWvVqpWoRZE5EEAAAV8KqFuIOnTo4MsUbN93XFycJCQk2L4OCkCgqAJM7BRVzIHnq+10Q0JCJCcnx4HVu6dk9elLdna2qMtDORBAAAGrCKh1eLZu3SopKSmuL53X5VG3xapbi5s0aeK6OqdBgwbi5+dnlaEgDwQQQEDULaDJyclImBDgKnkTeDS1tQATO7YePu8l//bbb7t2W/Fej/r1tG3bNq580m9YqQgBrQROnTolO3bscE3y7Nmzx7VdrJrct9tRrFgxeeGFF6R+/foSFRXlmsxRW5MzkWO3kSRfBJwjcOPGDddtWFevXnVO0W6uVN1Wq9aUY200N8MSzhYCTOzYYph8n+TkyZNlxIgRvk/ExhmobXLVdsQcCCCAgF0Ebt26JUePHpUDBw64vtLT012Pz549a5lt1dUCmdWrV5c6depIvXr1XF/q5zJlytiFmTwRQAABWbt2LTs5mXwfqPUs1RU7HAg4UYCJHSeOuoGaDx48KHXr1jXQkiYPBCpVqiSnT5/mdqwHIHxHAAHbCqhbc9VtW5mZmf//9ddff4lamFntRqK+Ll26JGpNH6OHuuomKCjItZBxhQoVXN8rV64s4eHhrqtx1BU56kvdKsyBAAII2F2gR48erp0M7V6HL/NXH0QPGzbMlynQNwI+E2Bix2f09upYbZ1bpUoV18SEvTK3Vrbbt293re1grazIBgEEEHC/wN27d+Wff/5xXRavbud68KV26VI/q+8lSpSQgIAAKVmypOu7+ll9qattypUrJ2rrcQ4EEEBAdwH1O1Gtx3jlyhXdS/VofYcOHZLatWt7tA+CI2BVASZ2rDoyFszro48+knnz5lkwM/ukNGjQIJk5c6Z9EiZTBBBAAAEEEEAAAY8KrFu3TmJiYjzah+7B1QfQap04DgScKsDEjlNH3kDdq1atko4dOxpoSZMHAmp7XXW7ArtjPRDhOwIIIIAAAggg4GyBnj17yqJFi5yNYLL6vn37yty5c01GoTkC9hVgYse+Y+f1zC9fvixqnQO1mCaHcYHNmzfLW2+9ZTwALRFAAAEEEEAAAQS0ELh+/bqoD/6uXbumRT2+KmL16tXSvn17X3VPvwj4XICJHZ8Pgb0SaNq0qWsbXHtlba1sY2NjJSkpyVpJkQ0CCCCAAAIIIICA1wWWLFki3bp183q/OnWo1mNTi/azG6JOo0otRRVgYqeoYg4/f+LEiRIXF+dwBXPlqz86aqvgwMBAc4FojQACCCCAAAIIIGBrgbZt28qGDRtsXYOvk2/WrJmoDUo4EHCyABM7Th59A7Wnp6dLvXr1DLSkyb8Fli1bJp06dfr3U/yMAAIIIIAAAggg4CABdZVJaGgoyxyYHPNJkybJ8OHDTUahOQL2FmBix97j5/Xs1bbnYWFhkp2d7fW+deowOjpa1q5dq1NJ1IIAAggggAACCCBQBIFZs2aJ2jGVw5zAwYMHJSIiwlwQWiNgcwEmdmw+gL5In23PzauXLFlSzpw5IyEhIeaDEQEBBBBAAAEEEEDAdgKRkZGSlpZmu7ytlDDbnFtpNMjFlwJM7PhS36Z9r1u3TmJiYmyavXXSnj17tvTr1886CZEJAggggAACCCCAgFcE/vzzT6lataqoq+E5jAuoK55mzpxpPAAtEdBEgIkdTQbSm2Xk5uZK+fLlJScnx5vdatfXm2++KTt27NCuLgpCAAEEEEAAAQQQKFjgyy+/lNGjRxd8Eq8+UWDTpk3SunXrJ57HCQjoLsDEju4j7KH62rVrxxoxJm2LFSsmx48fl+rVq5uMRHMEEEAAAQQQQAABuwioq3TUv/9OnDhhl5QtmWdQUJCcP39e1BIHHAg4XYCJHae/AwzWv2DBAunTp4/B1jR7IDBy5EiJj49/8JDvCCCAAAIIIIAAApoLpKSkSNOmTTWv0vPlde7cWZYuXer5jugBARsIMLFjg0GyYooXLlyQypUry507d6yYnm1yUjuMZWVlSfHixW2TM4kigAACCCCAAAIIGBfo3bu3JCUlGQ9AS5dAcnKydO3aFQ0EEPivABM7vA0MC0RFRUlqaqrh9jS8L7Bx40Zp06YNHAgggAACCCCAAAKaC1y9elVCQ0Pl2rVrmlfq2fL8/f1dt2EFBwd7tiOiI2ATASZ2bDJQVkxzypQpMmzYMCumZqucuIzUVsNFsggggAACCCCAgGGB+fPny4cffmi4PQ3vC7Rq1Uq2bNkCBwII/J8AEzu8FQwL/P777/Liiy8abk/D+wIBAQGSnZ0tISEhkCCAAAIIIIAAAghoLMAV7+4Z3BkzZsjgwYPdE4woCGggwMSOBoPoyxJq1aolR48e9WUKWvQ9c+ZMGTRokBa1UAQCCCCAAAIIIIDAwwIZGRmuD0XVrlgcxgXUzrJqjcrnnnvOeBBaIqCZABM7mg2ot8sZNWqUJCQkeLtb7fqrX7++/Prrr9rVRUEIIIAAAggggAAC9wXi4uJk4sSJcJgUaNCggezdu9dkFJojoJcAEzt6jafXqzlw4IC88sorXu9Xxw53794tjRo10rE0akIAAQQQQAABBBwtkJeX57rC5Ny5c452cEfxanJsxIgR7ghFDAS0EWBiR5uh9F0hNWrUEHVpKYc5gT59+si8efPMBaE1AggggAACCCCAgOUEli9fLmrDDA7zAn/88YdUrVrVfCAiIKCRABM7Gg2mr0oZOXKkJCYm+qp7bfp9+umn5fTp0xIUFKRNTRSCAAIIIIAAAgggINKyZUvZtm0bFCYFWL7AJCDNtRVgYkfbofVeYfv37xf1S5bDvAAr/Js3JAICCCCAAAIIIGAlAbWTbM2aNYVFk82Pivow+bPPPjMfiAgIaCbAxI5mA+qrcqpVqyYnTpzwVffa9Fu7dm05dOiQNvVQCAIIIIAAAggg4HSBTz/9VKZOnep0BrfUr5Z/UP/v4EAAgfwCTOzk9+CRQQFW+TcI94hmqampEhkZ+YhXeAoBBBBAAAEEEEDATgI3btyQsLAwuXTpkp3StmSuasOWffv2WTI3kkLA1wJM7Ph6BDTpX23V3bBhQ02q8W0ZPXv2lIULF/o2CXpHAAEEEEAAAQQQMC2waNEiUf+24zAvkJCQIOrDZA4EEHhYgImdh014xqCAWp0+MzPTYGuaPRAoVaqUnDp1SipUqPDgKb4jgAACCCCAAAII2FBAXYWdlpZmw8ytl7Jaq6h69erWS4yMELCAABM7FhgEXVJQC5lNmjRJl3J8Wkd8fLyo3cY4EEAAAQQQQAABBOwpsHfvXmnUqJE9k7dY1vXq1RO1YQsHAgg8WoCJnUe78KwBgfT0dFG/dDnMC6h7sdXVT/7+/uaDEQEBBBBAAAEEEEDA6wKxsbHcXu8mdfXh8fDhw90UjTAI6CfAxI5+Y+rTiiIiIuTw4cM+zUGXzpcuXSqdO3fWpRzqQAABBBBAAAEEHCNw7tw5ef755+XmzZuOqdlThfr5+UlWVpZUqVLFU10QFwHbCzCxY/shtFYBiYmJ3ELkpiFR92SrHbI4EEAAAQQQQAABBOwlMH78eBk7dqy9krZots2aNZPt27dbNDvSQsAaAkzsWGMctMni5MmTEh4eLvfu3dOmJl8Wou7NbtCggS9ToG8EEEAAAQQQQACBIgjk5eW5/j2cnZ1dhFac+jiBuXPnSt++fR/3Ms8jgMB/BZjY4W3gdoEmTZrIjh073B7XiQHVvdlJSUlOLJ2aEUAAAQQQQAABWwokJydL9+7dbZm71ZIOCAiQM2fOSNmyZa2WGvkgYCkBJnYsNRx6JDN79mwZMGCAHsX4uAr1x0xtfV6xYkUfZ0L3CCCAAAIIIIAAAoUReP3112XXrl2FOZVzniDQvn17Wb169RPO4mUEEGBih/eA2wUuXbokoaGhoi5D5TAvoO7PHjdunPlAREAAAQQQQAABBBDwqMDOnTvljTfe8GgfTgq+YsUK6dixo5NKplYEDAkwsWOIjUZPEoiJiZF169Y96TReL4RA+fLlRa1d9NRTTxXibE5BAAEEEEAAAQQQ8JXAe++9xxUmbsIPCgqSs2fPSqlSpdwUkTAI6CvAxI6+Y+vTypYvX85W3W4cgW+++UYGDhzoxoiEQgABBBBAAAEEEHCnQEZGhtSsWVPu3r3rzrCOjdWnTx+ZN2+eY+uncASKIsDETlG0OLfQArm5uVK5cmW5fPlyodtw4uMFqlWrJseOHZPixYs//iReQQABBBBAAAEEEPCZgFpjUq01yeEegW3btknz5s3dE4woCGguwMSO5gPsy/L69+8vc+bM8WUKWvW9cuVKUZf3ciCAAAIIIIAAAghYS+DChQvy/PPPi/pwk8O8QHh4uJw4cUKKFStmPhgREHCAABM7DhhkX5WodgNQuwJwuEegcePGohbk40AAAQQQQAABBBCwloDa7GL8+PHWSsrG2XzxxRcyZswYG1dA6gh4V4CJHe96O663l19+WY4cOeK4uj1VcEpKikRFRXkqPHERQAABBBBAAAEEiiiQk5Pjulrn4sWLRWzJ6Y8S8PPzk8zMTJfpo17nOQQQeFiAiZ2HTXjGjQJfffWVDB8+3I0RnR0qOjpa1q5d62wEqkcAAQQQQAABBCwkoDa5GDx4sIUysncqrVq1ki1btti7CLJHwMsCTOx4Gdxp3aktCqtUqSK3b992WukeqVfdZ5yeni4REREeiU9QBBBAAAEEEEAAgcIL3Lp1S2rUqCFZWVmFb8SZBQosXrxYunXrVuA5vIgAAvkFmNjJ78EjDwioq0x+/PFHD0R2ZsiuXbtKcnKyM4unagQQQAABBBBAwEICSUlJ0rt3bwtlZO9UgoODJTs7WwIDA+1dCNkj4GUBJna8DO7E7tasWSMdOnRwYukeqVlteX706FGpXr26R+ITFAEEEEAAAQQQQODJAnfu3BG1nuTx48effDJnFEqgX79+bBlfKClOQiC/ABM7+T145AEBdYlqWFiYnD9/3gPRnRlSfTI0f/58ZxZP1QgggAACCCCAgAUEli1bJl26dLFAJvqkoHbVfe211/QpiEoQ8JIAEztegnZ6N0OHDpVp06Y5ncFt9fv7+0tGRga7BbhNlEAIIIAAAggggEDhBe7duyf16tWTgwcPFr4RZxYooK5+Onz4cIHn8CICCDxagImdR7vwrJsF1K1D6pe1+iPI4R6BgQMHitqFgQMBBBBAAAEEEEDAuwLr1q2TmJgY73aqeW/Tp0+XIUOGaF4l5SHgGYH/AAAA///mWI0FAABAAElEQVTs3X2cT2X++PH3uDduk0QSiciYYVDudkTjPvchFKEoU2wUFouNYmNjIxRCWCyKUOMuxLrN/WCJpmTJWmtlmmEwM7+9zvdXq2LM53zOOZ/rnPM6/5j5fM51vd/v5zX7aPY9n+tcYRn/vYQLAQcE6tevL59//rkDkfwRIk+ePJKYmCglSpTwR8FUiQACCCCAAAIIaCJQs2ZN2bVrlybZuD+NvHnzyunTp+WOO+5wfzFUgEAIBMJo7IRA3achFy5cKF26dPFp9faUPWDAAHnrrbfsmZxZEUAAAQQQQAABBH4lsHbtWmnSpMmvXucF8wLPPPOMzJkzx/wEjETA5wI0dnz+A+Bk+ampqVKqVCn517/+5WRYT8cKDw+XEydO8KkdT68yxSGAAAIIIICATgK1a9eWHTt26JSS63PZvn271KpVy/V1UAACoRKgsRMqeZ/GHTZsmIwZM8an1dtTdp8+fWTq1Kn2TM6sCCCAAAIIIIAAAj8JLF++XNq2bfvT93wRvED16tVl9+7dwU/EDAj4WIDGjo8XPxSlf/PNN/LAAw9Ienp6KMJ7MmauXLnk2LFjUqZMGU/WR1EIIIAAAggggIAOAurRpNHR0XLgwAEd0vFMDtOnT5devXp5ph4KQSAUAjR2QqHu85jNmzeX+Ph4nytYW/6zzz4rM2fOtHZSZkMAAQQQQAABBBD4SWDJkiXSsWPHn77ni+AFChYsaDw0OX/+/MFPxgwI+FiAxo6PFz9Upa9YsUJat24dqvCejJsjRw45evSo8WkoTxZIUQgggAACCCCAQAgF1KfNIyMj5ciRIyHMwnuh4+LiZMqUKd4rjIoQcFiAxo7D4IQTSUtLM7YN/eMf/4DDQoFu3brJBx98YOGMTIUAAggggAACCCCgBBYsWCBPPfUUGBYLqG1tUVFRFs/KdAj4T4DGjv/WXIuKR48eLSNGjNAiF68kkT17djl8+LBUqFDBKyVRBwIIIIAAAgggEHKB69evS0REhHz55Zchz8VLCfzmN7+RLVu2eKkkakEgZAI0dkJG7+/A586dk/vuu0/UEehc1gmofd9//etfrZuQmRBAAAEEEEAAAZ8LzJo1S9TzDLmsFVC/s/LMImtNmc2/AjR2/Lv2Ia+8e/fubB2yeBXCwsJk165dUqNGDYtnZjoEEEAAAQQQQMB/ApcvXzY+DX3q1Cn/FW9jxffee698/fXXop4TyYUAAsEL0NgJ3pAZTArs2bOHBoRJu8yGxcbGyvr16zO7hfcQQAABBBBAAAEEsiAwbtw4GTx4cBbu5JZABMaMGSNDhgwJZAj3IoBAJgI0djLB4S37BdTe2q1bt9ofyGcRVq9eLU2aNPFZ1ZSLAAIIIIAAAghYJ/Cf//zHOHFU/ctlnUDevHnl22+/laJFi1o3KTMh4HMBGjs+/wEIdfmLFy+WJ598MtRpeC5+dHS07N69W7Jly+a52igIAQQQQAABBBBwQkB9Ukd9YofLWoGePXvK+++/b+2kzIaAzwVo7Pj8ByDU5atTBu6//37h6HPrV+Ivf/mLdOnSxfqJmREBBBBAAAEEEPC4gPrd9MEHHxT1jB0uawX2798vVapUsXZSZkPA5wI0dnz+A6BD+WPHjpWhQ4fqkIqnclANs6NHj0quXLk8VRfFIIAAAggggAACdguoU7DUaVhc1go8+uijsmnTJmsnZTYEEBAaO/wQhFzg/PnzxtHn/EXE+qV4++23pV+/ftZPzIwIIIAAAggggIBHBQ4fPmx8oiQtLc2jFYaurA8//FDatWsXugSIjIBHBWjseHRh3VbWc889x15bGxbtzjvvlOPHj8sdd9xhw+xMiQACCCCAAAIIeE+gefPmEh8f773CQlxRmTJl5MSJE5I9e/YQZ0J4BLwnQGPHe2vqyoqOHDkilStXloyMDFfmr3PSL7/8skycOFHnFMkNAQQQQAABBBDQQkCdLNqsWTMtcvFaEur3UfV7KRcCCFgvQGPHelNmNCnQsmVLWbVqlcnRDLuVQM6cOeXQoUPGAwBvdQ+vI4AAAggggAACfhdQh3qoh/qqPzhyWSugPj2ujjjPnz+/tRMzGwIIGAI0dvhB0Ebg888/l/r162uTj5cSadWqlXz88cdeKolaEEAAAQQQQAABSwWmTJkiL730kqVzMtn/CQwZMkTGjBkDBwII2CRAY8cmWKY1J1CzZk3ZtWuXucGMylRg/fr1Ehsbm+k9vIkAAggggAACCPhR4OLFi1K+fHlRh3pwWSuQO3du+eabb6R48eLWTsxsCCDwkwCNnZ8o+EIHgSVLlkjHjh11SMVzOURFRcnevXt5YJ3nVpaCEEAAAQQQQCBYgVdeeUUmTJgQ7DSMv4mAOjp+5syZN3mHlxBAwCoBGjtWSTKPJQLqWMkHH3xQEhMTLZmPSX4u8N5770nv3r1//iLfIYAAAggggAACPhZQJ4iqQzyuXr3qYwV7Sg8LCxN1fPxDDz1kTwBmRQABQ4DGDj8I2gmwv9m+JSlWrJgcO3ZMChcubF8QZkYAAQQQQAABBFwkoJ5FuHLlShdl7J5U1eEoK1ascE/CZIqASwVo7Lh04bycdkpKipQuXZo9zjYtct++fWXSpEk2zc60CCCAAAIIIICAewQ++eQTadGihXsSdlmm6nCUevXquSxr0kXAfQI0dty3Zr7IeOTIkTJq1Chf1Op0kTly5JDdu3cbx3k6HZt4CCCAAAIIIICALgJXrlwxtmB99dVXuqTkqTzUoSg7duzwVE0Ug4CuAjR2dF0Zn+elTiQoU6aMJCcn+1zCnvJjYmJE/QVF7XvmQgABBBBAAAEE/CgwevRoGTFihB9Ld6Tm5cuXS+vWrR2JRRAE/C5AY8fvPwEa1//qq6/KW2+9pXGG7k5t7ty50rVrV3cXQfYIIIAAAggggIAJAXX8dkREhKhHAHBZLxAZGSkHDhzgj4jW0zIjAjcVoLFzUxZe1EHgu+++k7Jly4r6mCyX9QLFixc3HqRcsGBB6ydnRgQQQAABBBBAQGOBdu3aybJlyzTO0N2pLVy4UDp16uTuIsgeARcJ0Nhx0WL5MdUXX3xRpk6d6sfSHan55ZdflokTJzoSiyAIIIAAAggggIAOAqtXr5ZmzZrpkIonc3jwwQflyJEjkj17dk/WR1EI6ChAY0fHVSGnnwROnjwp5cuXl2vXrv30Gl9YJ6D+g/vFF19IdHS0dZMyEwIIIIAAAgggoKmA2nqltgklJiZqmqH705o9e7Z0797d/YVQAQIuEqCx46LF8muqzz77rMyaNcuv5dted9WqVWXXrl2SM2dO22MRAAEEEEAAAQQQCKXAK6+8IhMmTAhlCp6OrQ4/+fLLL/m90tOrTHE6CtDY0XFVyOlnAsePH5eHHnpI0tLSfvY631gn8Nprr3EqhHWczIQAAggggAACGgps375d1Mmg/E5p3+KoRyj06dPHvgDMjAACNxWgsXNTFl7UTaBLly6iHsLGZY9Arly5ZPfu3cZHk+2JwKwIIIAAAggggEDoBNRhHGrr+dGjR0OXhMcj33PPPfLVV19Jnjx5PF4p5SGgnwCNHf3WhIxuInDo0CGJioqSjIyMm7zLS1YIVK9eXXbs2CE5cuSwYjrmQAABBBBAAAEEtBEYPHiwjBs3Tpt8vJiI2uLWv39/L5ZGTQhoL0BjR/slIsEfBdq3by8ffvjhj9/yrw0Cb7zxhgwdOtSGmZkSAQQQQAABBBAIjYB6lmCdOnXYgmUj/9133218Widfvnw2RmFqBBC4lQCNnVvJ8Lp2AupTO1WqVJH09HTtcvNKQrlz55a9e/dKpUqVvFISdSCAAAIIIICAjwVSU1NFfSr58OHDPlawv/SJEyfKyy+/bH8gIiCAwE0FaOzclIUXdRXgWTv2r8wjjzwi27ZtE3UUOhcCCCCAAAIIIOBmgWHDhsmYMWPcXIL2uZcsWVJOnDjBs3W0XykS9LIAjR0vr64Hazt27JhERETwUVqb1/bNN9+UQYMG2RyF6RFAAAEEEEAAAfsE9uzZI7Vq1ZLr16/bF4SZ5Z133pEXX3wRCQQQCKEAjZ0Q4hPanMAzzzwjc+fONTeYUVkSUKcZ7N+/XypUqJCl+7kJAQQQQAABBBDQSeDq1avy8MMPy8GDB3VKy3O53HffffLll1+K2s7PhQACoROgsRM6eyKbFFDHKD700ENy7do1kzMwLCsC6iGDW7ZskWzZsmXldu5BAAEEEEAAAQS0ERg5cqSMGjVKm3y8msj06dOlV69eXi2PuhBwjQCNHdcsFYneKKD+AzJz5swbX+JrGwQ4ttIGVKZEAAEEEEAAAVsF1KeO1TMD+SOgrcxStmxZOXr0qOTMmdPeQMyOAAK3FaCxc1sibtBR4OTJk/Lggw+K+pgtl30C4eHhxpas8uXL2xeEmRFAAAEEEEAAAYsEVDOnZs2asm/fPotmZJpbCcyePVu6d+9+q7d5HQEEHBSgseMgNqGsFYiLi5Np06ZZOymz/UogJiZGNm3axJasX8nwAgIIIIAAAgjoJjB69GgZMWKEbml5Lh/1B1Z1hHyOHDk8VxsFIeBGARo7blw1cjYETp8+LeqTJJcvX0bEZoFJkyZJ3759bY7C9AgggAACCCCAgHmBhIQEqVGjBp/oNk+Y5ZELFy6UTp06Zfl+bkQAAXsFaOzY68vsNgsMGTJE/vjHP9ochenz5ctnnCqh9lJzIYAAAggggAACugmoI81r164tu3fv1i01z+VTrVo1wzksLMxztVEQAm4VoLHj1pUjb0Pg4sWL8sADD8iFCxcQsVmgQYMG8tlnnwn/EbcZmukRQAABBBBAIGCBsWPHytChQwMex4DABdauXSuNGjUKfCAjEEDANgEaO7bRMrFTAn/6059k4MCBToXzdZypU6dKnz59fG1A8QgggAACCCCgl8CRI0dEfYokNTVVr8Q8mE3Dhg1l3bp1HqyMkhBwtwCNHXevH9n/V+DKlStSoUIF+fbbb/GwWaBAgQLGlqwyZcrYHInpEUAAAQQQQACB2wukpaVJ3bp1ZefOnbe/mTuCElCf2lZb3VQTjQsBBPQSoLGj13qQjUmBOXPmSI8ePUyOZlggAuovNeojuGzJCkSNexFAAAEEEEDADoHx48fLoEGD7JiaOX8hoB6WrB6azIUAAvoJ0NjRb03IyISA+mtN1apV5dChQyZGMyRQgenTp0uvXr0CHcb9CCCAAAIIIICAZQLHjh2T6OhoTki1TPTWE+XKlUvUljf1bEsuBBDQT4DGjn5rQkYmBVatWiUtW7Y0OZphgQgULFjQaKKVKlUqkGHciwACCCCAAAIIWCKQnp4uMTExsm3bNkvmY5LMBV566SWZPHly5jfxLgIIhEyAxk7I6Alsh8Cjjz4qmzdvtmNq5vyFQNOmTSU+Pv4Xr/ItAggggAACCCBgv8DEiRNlwIAB9gcigqhnLJ44cUKKFSuGBgIIaCpAY0fThSEtcwI7duyQOnXqSEZGhrkJGBWQwKxZs3i2UUBi3IwAAggggAACwQqoJkOVKlUkJSUl2KkYnwWBUaNGyfDhw7NwJ7cggECoBGjshEqeuLYJPPXUU7JgwQLb5mfi/wkULlzY2JJVsmTJ/73IVwgggAACCCCAgE0CagtWgwYN+IS2Tb6/nFZtuz969KiEh4f/8i2+RwABjQRo7Gi0GKRijYA69rxixYo8SM8aztvO0qJFC1m5cuVt7+MGBBBAAAEEEEAgWIF33nlH+vbtG+w0jM+iwPz580X90ZQLAQT0FqCxo/f6kJ1JAfVx0ddff93kaIYFKjB37lzp2rVroMO4HwEEEEAAAQQQyLJAYmKiREVFSXJycpbHcKN5gZo1a8r27dslLCzM/CSMRAABRwRo7DjCTBCnBX744QepUKGCnDlzxunQvoxXpEgROXz4sBQvXtyX9VM0AggggAACCNgroJ6fGBsbKxs3brQ3ELMbAqqZ87e//c14diUkCCCgvwCNHf3XiAxNCsyZM4cH+5q0MzOsTZs2smzZMjNDGYMAAggggAACCGQq8O6770qfPn0yvYc3rRPo1KmTLFy40LoJmQkBBGwVoLFjKy+Th1JAPVzvkUcekT179oQyDV/FVg+t7ty5s69qplgEEEAAAQQQsFfg5MmTEhkZKUlJSfYGYnZDIG/evPL3v/9dSpcujQgCCLhEgMaOSxaKNM0JbN68WR599FFzgxkVsEDRokWNLVnFihULeCwDEEAAAQQQQACBXwqoLVhNmjSRdevW/fItvrdJYNiwYTyr0iZbpkXALgEaO3bJMq82Au3bt5cPP/xQm3y8nojyXrJkidfLpD4EEEAAAQQQcEBg5syZ0qtXLwciEUIJlChRQr788kvJnz8/IAgg4CIBGjsuWixSNSegTlCIiIiQK1eumJuAUQELLF68WDp06BDwOAYggAACCCCAAAI/Cpw6dcrYgvX999//+BL/2iwwe/Zs6d69u81RmB4BBKwWoLFjtSjzaSnwhz/8QV577TUtc/NiUmorljolS23N4kIAAQQQQAABBMwING/eXOLj480MZYwJgdq1a8vWrVs53tyEHUMQCLUAjZ1QrwDxHRG4fPmy8amdr7/+2pF4BBHhNAV+ChBAAAEEEEDArACnm5qVMzcue/bssmvXLqlWrZq5CRiFAAIhFaCxE1J+gjspsGLFCmndurWTIX0f66OPPpK2bdv63gEABBBAAAEEEMi6wJkzZ4w/yF28eDHrg7gzKIG4uDiZMmVKUHMwGAEEQidAYyd09kQOgcDjjz8un376aQgi+zNk8eLFjS1ZRYoU8ScAVSOAAAIIIIBAwAKtWrWSlStXBjyOAeYE7rrrLjl69Kjw+5o5P0YhoIMAjR0dVoEcHBM4ceKEVK5cWVJTUx2L6fdATz/9tMybN8/vDNSPAAIIIIAAAlkQmD9/vnTt2jULd3KLVQLq5LFnn33WqumYBwEEQiBAYycE6IQMrcDw4cPl9ddfD20SPouutsG1bNnSZ1VTLgIIIIAAAggEInD27FljC9aFCxcCGca9QQjUrFlTtm3bJtmyZQtiFoYigECoBWjshHoFiO+4QEpKilSqVElOnjzpeGy/BrznnnuMLVmFCxf2KwF1I4AAAggggMBtBNq1ayfLli27zV28bZWAaubs3LlTatSoYdWUzIMAAiESoLETInjChlZA/dKgfnngck6ge/fuMnv2bOcCEgkBBBBAAAEEXCOwaNEi6dy5s2vy9UKizz//vLz77rteKIUaEPC9AI0d3/8I+BegWbNmsnr1av8ChKBy9eBq5c6FAAIIIIAAAgj8KHDu3DljC9b58+d/fIl/bRYoWrSo8cDkO++80+ZITI8AAk4I0NhxQpkYWgqorViRkZGSlJSkZX5eTKpUqVKSkJAghQoV8mJ51IQAAggggAACJgQ6duwoS5YsMTGSIWYFFixYwCekzOIxDgENBWjsaLgopOScwLRp0yQuLs65gESS5557TmbMmIEEAggggAACCCAgS5culQ4dOiDhoEDr1q1l+fLlDkYkFAII2C1AY8duYebXWiAjI0NiY2Nl48aNWufppeTCwsJkzZo10qhRIy+VRS0IIIAAAgggEKCA2noVEREhaisWlzMCRYoUkUOHDkmJEiWcCUgUBBBwRIDGjiPMBNFZIDExUaKioiQ5OVnnND2VW+nSpY0tWQUKFPBUXRSDAAIIIIAAAlkX6NKliyxcuDDrA7gzaIG5c+dK165dg56HCRBAQC8BGjt6rQfZhEhg8uTJ0q9fvxBF92fYF154QdRWOC4EEEAAAQQQ8J+A2grUtm1b/xUewooff/xxWbVqVQgzIDQCCNglQGPHLlnmdZVAenq61K9fX7Zs2eKqvN2crNqS9dlnn0mDBg3cXAa5I4AAAggggECAAhcuXJDKlSvLd999F+BIbjcrULhwYWMLVsmSJc1OwTgEENBYgMaOxotDas4KHD9+XKpWrSopKSnOBvZxtLJly8rBgwclX758PlagdAQQQAABBPwl0K1bN5k3b56/ig5xte+//7707NkzxFkQHgEE7BKgsWOXLPO6UmDixIkyYMAAV+bu1qT79u0rkyZNcmv65I0AAggggAACAQiorUAtW7YMYAS3BivQtGlTiY+PD3YaxiOAgMYCNHY0XhxSc15AbcmKiYmRbdu2OR/cpxGzZctmnEpWr149nwpQNgIIIIAAAv4QuHjxorEF6/Tp0/4oWIMqCxYsaGzBKlWqlAbZkAICCNglQGPHLlnmda3AsWPHjC1ZV65ccW0Nbku8XLlycuDAAQkPD3db6uSLAAIIIIAAAlkUUFuBZs+encW7uc0Kgffee0969+5txVTMgQACGgvQ2NF4cUgtdALjx4+XQYMGhS4BH0bu37+/TJgwwYeVUzICCCCAAALeF1i9erU0a9bM+4VqVGHDhg1l7dq1og6s4EIAAW8L0Njx9vpSnUmBtLQ0qVu3ruzcudPkDAwLVEBtyVKnktWpUyfQodyPAAIIIIAAAhoLXLp0ydiCderUKY2z9FZq+fPnl4SEBClTpoy3CqMaBBC4qQCNnZuy8CICIkeOHJFq1apJamoqHA4JVKhQQfbt2yd58+Z1KCJhEEAAAQQQQMBuAbUVaMaMGXaHYf4bBKZMmSJxcXE3vMKXCCDgZQEaO15eXWoLWmDs2LEydOjQoOdhgqwLDBw4UMaNG5f1AdyJAAIIIIAAAtoKrF+/Xho3biwZGRna5ui1xOrXry8bNmxgC5bXFpZ6EMhEgMZOJji8hcD169elVq1asmfPHjAcEsiePbts3bpVatas6VBEwiCAAAIIIICAHQJJSUkSFRUl33zzjR3TM+dNBPLlyycHDx6UsmXL3uRdXkIAAa8K0Njx6spSl2UCan9yjRo15OrVq5bNyUSZC1SqVEn27t0ruXPnzvxG3kUAAQQQQAABbQXUVqBp06Zpm58XE3v77belX79+XiyNmhBAIBMBGjuZ4PAWAj8KjBo1SkaOHPnjt/zrgMCQIUNkzJgxDkQiBAIIIIAAAghYLbBx40aJjY1lC5bVsJnMFxMTI5s2bRJ1IAUXAgj4S4DGjr/Wm2pNCly7dk0eeeQR2b9/v8kZGBaoQI4cOWT79u3Gp6UCHcv9CCCAAAIIIBA6geTkZGMLVmJiYuiS8Fnk8PBw4/fU8uXL+6xyykUAASVAY4efAwSyKKCaOqq5o5o8XM4IREZGyu7duyVXrlzOBCQKAggggAACCAQtoLYCTZ48Oeh5mCDrAm+99ZYMGDAg6wO4EwEEPCVAY8dTy0kxdguo7VhqWxaXcwLDhw/H3DluIiGAAAIIIBCUwJYtW0SdypSenh7UPAzOukDt2rVFuasDKLgQQMCfAjR2/LnuVG1SQD1AWT1IWT1QmcsZgZw5c8rOnTslOjramYBEQQABBBBAAAFTAikpKVK1alU5fvy4qfEMClwgT548sm/fPqlYsWLggxmBAAKeEaCx45mlpBCnBNTR5+oIdHUUOpczAuqXxF27dolq8nAhgAACCCCAgJ4CaivQxIkT9UzOo1m9+eabMmjQII9WR1kIIJBVARo7WZXiPgRuEBg6dKiMHTv2hlf40m6B1157TUaMGGF3GOZHAAEEEEAAARMC27ZtE3UqE1uwTOCZHKKe/ajc2YJlEpBhCHhIgMaOhxaTUpwTSE1NlWrVqsmRI0ecC+rzSOoByl988YVxyobPKSgfAQQQQAABrQSuXLlibJk+evSoVnl5OZncuXOL+hR5RESEl8ukNgQQyKIAjZ0sQnEbAr8UUM99qVu3rqSlpf3yLb63SaB69eqyY8cOUUehcyGAAAIIIICAHgKDBw+WcePG6ZGMT7J44403RH2CnAsBBBBQAjR2+DlAIAgBtad5/PjxQczA0EAF+EUmUDHuRwABBBBAwD4B9Qy8OnXq8Icu+4h/NTN/6PoVCS8g4HsBGju+/xEAIBgB9dFj9WDfY8eOBTMNYwMQ4KPHAWBxKwIIIIAAAjYKsDXdRtxbTM3W9FvA8DICPhegsePzHwDKD16AhwUGbxjoDDwsMFAx7kcAAQQQQMB6gWHDhsmYMWOsn5gZbynAYRK3pOENBHwtQGPH18tP8VYJcLynVZJZn4fjPbNuxZ0IIIAAAghYLaAe3FurVi25fv261VMz3y0E1KfE1da3nDlz3uIOXkYAAb8K0Njx68pTt6UCKSkpxpas48ePWzovk91aIE+ePLJv3z6pWLHirW/iHQQQQAABBBCwXODq1atSo0YNSUhIsHxuJry5gGrmqIM7oqOjb34DryKAgK8FaOz4evkp3kqBLVu2SP369SU9Pd3KaZkrEwH1sMbNmzdL9uzZM7mLtxBAAAEEEEDASoGRI0fKqFGjrJySuW4jMHz4cMxvY8TbCPhZgMaOn1ef2i0X6Nevn0yePNnyeZnw1gJvvfWWqK1wXAgggAACCCBgv8D+/ftFPevu2rVr9gcjgiEQGRkpu3fvFvXgZC4EEEDgZgI0dm6mwmsImBRITk6WqKgoSUxMNDkDwwIVCA8PF/VLZvny5QMdyv0IIIAAAgggEICAauaopo767y6XMwI5cuSQ7du3G1vfnIlIFAQQcKMAjR03rho5ay2wceNGiY2NlYyMDK3z9FJyMTExsmnTJsmWLZuXyqIWBBBAAAEEtBIYPXq0jBgxQqucvJ7MkCFDOHnM64tMfQhYIEBjxwJEpkDglwJxcXEybdq0X77M9zYKvP3226K2wnEhgAACCCCAgPUC6kHJ6oHJ6sHJXM4IVKpUSfbu3Su5c+d2JiBREEDAtQI0dly7dCSus0BSUpKo/dAnT57UOU1P5ZYvXz45ePCglC1b1lN1UQwCCCCAAAKhFlBHmteuXdt4zkuoc/FLfHUwxNatW6VmzZp+KZk6EUAgCAEaO0HgMRSBzATWr18vjRs3ZktWZkgWv6dOJduwYYOEhYVZPDPTIYAAAggg4F+BsWPHytChQ/0LEILKBw4cKOPGjQtBZEIigIAbBWjsuHHVyNk1Ar1795YZM2a4Jl8vJDp16lTp06ePF0qhBgQQQAABBEIucOTIEalWrZqkpqaGPBe/JFChQgXZt2+f5M2b1y8lUycCCAQpQGMnSECGI5CZwKVLl6Ry5cpy6tSpzG7jPQsFChQoYGzJKlOmjIWzMhUCCCCAAAL+E0hLS5O6devKzp07/Vd8iCpWB0Fs3rzZcA9RCoRFAAEXCtDYceGikbK7BFavXi3NmjVzV9Iuz7Zhw4aydu1atmS5fB1JHwEEEEAgtALjx4+XQYMGhTYJn0V/+eWXZeLEiT6rmnIRQCBYARo7wQoyHoEsCPTs2VNmz56dhTu5xSqB6dOnS69evayajnkQQAABBBDwlcCxY8ckOjpaLl++7Ku6Q1lsuXLl5MCBAxIeHh7KNIiNAAIuFKCx48JFI2X3CVy8eNHYknX69Gn3Je/SjAsWLCiHDh2SUqVKubQC0kYAAQQQQCA0Aunp6RITEyPbtm0LTQI+jKq2YG3cuFHq1avnw+opGQEEghWgsROsIOMRyKLAqlWrpGXLllm8m9usEGjatKnEx8dbMRVzIIAAAggg4BsBtRVowIABvqlXh0JfeuklmTx5sg6pkAMCCLhQgMaOCxeNlN0r0K1bN5k3b557C3Bh5rNmzZIePXq4MHNSRgABBBBAwHmBEydOSJUqVSQlJcX54D6NeP/99xsHP+TPn9+nApSNAALBCtDYCVaQ8QgEIHDhwgWJiIiQs2fPBjCKW4MRKFy4sLElq2TJksFMw1gEEEAAAQQ8L6C2YDVo0MA4lcnzxWpSYFhYmKxfv14ee+wxTTIiDQQQcKMAjR03rho5u1pg+fLl0rZtW1fX4LbkW7RoIStXrnRb2uSLAAIIIICAowJqK1C/fv0cjen3YC+88IJMmzbN7wzUjwACQQrQ2AkSkOEImBHo0qWLLFy40MxQxpgUmDt3rnTt2tXkaIYhgAACCCDgbYHExESJioqS5ORkbxeqUXWlS5eWhIQEKVCggEZZkQoCCLhRgMaOG1eNnF0vcP78eWNL1rlz51xfi1sKKFKkiLElq0SJEm5JmTwRQAABBBBwRCAjI0NiY2ONU5kcCUgQUVuw1qxZI40aNUIDAQQQCFqAxk7QhEyAgDmBpUuXSocOHcwNZpQpgTZt2siyZctMjWUQAggggAACXhVQW4Hi4uK8Wp6WdT333HMyY8YMLXMjKQQQcJ8AjR33rRkZe0igY8eOsmTJEg9VpH8pCxYskM6dO+ufKBkigAACCCDggMDJkyclMjJSkpKSHIhGCCVQqlQpYwtWoUKFAEEAAQQsEaCxYwkjkyBgTkBtxVKnZKmtWVzOCBQtWlQOHz4sxYoVcyYgURBAAAEEENBUQG3BatKkiaxbt07TDL2Z1qeffirNmjXzZnFUhQACIRGgsRMSdoIi8D+BRYsW8QmS/3E48lX79u35pJQj0gRBAAEEENBZQG0F6t27t84pei637t27y+zZsz1XFwUhgEBoBWjshNaf6AgYAur4c3UMOpdzAosXL+YZR85xEwkBBBBAQDOBU6dOGVuwvv/+e80y824699xzj3GQwx133OHdIqkMAQRCIkBjJyTsBEXg5wJnz541tmRduHDh52/wnW0CaiuW2pKltmZxIYAAAggg4DeB5s2bS3x8vN/KDmm9K1askJYtW4Y0B4IjgIA3BWjseHNdqcqFAvPnz5euXbu6MHP3ptypUydZuHChewsgcwQQQAABBEwIzJkzR3r06GFiJEPMCjz99NMyb948s8MZhwACCGQqQGMnUx7eRMBZgVatWsnKlSudDerzaB999JGorXBcCCCAAAII+EHgzJkzxqeEL1686IdytaixePHixqeEixQpokU+JIEAAt4ToLHjvTWlIhcL8MuW84vHL1vOmxMRAQQQQCB0Amor0KpVq0KXgA8j80ckHy46JSPgsACNHYfBCYfA7QT4ePTthKx/n49HW2/KjAgggAAC+gmw7dv5NWHbt/PmRETAjwI0dvy46tSsvQAPNHR+iXigofPmREQAAQQQcE6Agxqcs/4xEgc1/CjBvwggYLcAjR27hZkfARMCHEFqAi3IIRxBGiQgwxFAAAEEtBZQz5Nbvny51jl6LbnFixdLhw4dvFYW9SCAgIYCNHY0XBRSQkAJzJw5U3r16gWGgwLdu3eX2bNnOxiRUAgggAACCNgvsGjRIuncubP9gYjwk0D79u1lyZIlP33PFwgggICdAjR27NRlbgSCEMjIyJAmTZrIunXrgpiFoYEKfPrpp9KsWbNAh3E/AggggAACWgqcO3fOOAXr/PnzWubnxaSKFi1qnIKltmJxIYAAAk4I0NhxQpkYCJgUOHnypERGRkpSUpLJGRgWqECpUqUkISFBChUqFOhQ7kcAAQQQQEA7AbUVaOnSpdrl5eWEFixYwCekvLzA1IaAhgI0djRcFFJC4EaBadOmSVxc3I0v8bXNAs8995zMmDHD5ihMjwACCCCAgL0CqqHDM17sNf7l7G3atJFly5b98mW+RwABBGwVoLFjKy+TIxC8gNqSFRsbKxs3bgx+MmbIkkBYWJisWbNGGjVqlKX7uQkBBBBAAAHdBNTWq4iICFFbsbicEShSpIgcOnRISpQo4UxAoiCAAAL/X4DGDj8KCLhAIDExUaKioiQ5OdkF2XojxdKlSxtbsgoUKOCNgqgCAQQQQMBXAl26dJGFCxf6quZQFzt37lzp2rVrqNMgPgII+FCAxo4PF52S3SkwefJk6devnzuTd2nWL7zwgqitcFwIIIAAAgi4SUAda66ON+dyTqBFixaycuVK5wISCQEEELhBgMbODRh8iYDOAunp6dKgQQPZvHmzzml6Kje1JWv9+vXy2GOPeaouikEAAQQQ8K7AhQsXjC1YZ8+e9W6RmlVWuHBhYwtWyZIlNcuMdBBAwC8CNHb8stLU6QmBEydOSJUqVSQlJcUT9bihiPvvv18OHjwo+fPnd0O65IgAAggg4HOBbt26ybx583yu4Gz5s2bNkh49ejgblGgIIIDADQI0dm7A4EsE3CAwceJEGTBggBtS9UyOL730kqitcFwIIIAAAgjoLLBq1Spp2bKlzil6LremTZtKfHy85+qiIAQQcJcAjR13rRfZIiBqS1ZMTIxs27YNDYcEsmXLZpxKVq9ePYciEgYBBBBAAIHABC5evCiVK1eW06dPBzaQu00LFCxY0NiCVapUKdNzMBABBBCwQoDGjhWKzIGAwwLHjh2T6OhouXz5ssOR/RuuXLlycuDAAQkPD/cvApUjgAACCGgr0LNnT5k9e7a2+XkxsenTp0uvXr28WBo1IYCAywRo7LhswUgXgR8Fxo8fL4MGDfrxW/51QODll18WtRWOCwEEEEAAAZ0EVq9eLc2aNdMpJc/n0rBhQ1m7dq2ogxa4EEAAgVAL0NgJ9QoQHwGTAmlpaVK3bl3ZuXOnyRkYFqiA2pKlTiVT7lwIIIAAAgjoIHDp0iVjC9apU6d0SMcXORQoUMA4WKFMmTK+qJciEUBAfwEaO/qvERkicEuBI0eOSLVq1SQ1NfWW9/CGtQIVKlSQffv2Sd68ea2dmNkQQAABBBAwIdC7d2+ZMWOGiZEMMSswdepU6dOnj9nhjEMAAQQsF6CxYzkpEyLgrMDYsWNl6NChzgb1ebRXX31V1FY4LgQQQAABBEIpsG7dOmnSpIlkZGSEMg1fxa5fv75s2LCBLVi+WnWKRUB/ARo7+q8RGSKQqcD169eldu3asnv37kzv403rBLJnzy5bt26VmjVrWjcpMyGAAAIIIBCAQFJSkkRGRsrJkycDGMWtwQjky5fP2IJVtmzZYKZhLAIIIGC5AI0dy0mZEAHnBRISEqRGjRpy9epV54P7NGKlSpVk7969kjt3bp8KUDYCCCCAQCgF4uLiZNq0aaFMwXex3377benXr5/v6qZgBBDQX4DGjv5rRIYIZElg9OjRMmLEiCzdy03WCAwZMkTGjBljzWTMggACCCCAQBYFNm7cKLGxsWzByqKXFbfFxMTIpk2bRB2kwIUAAgjoJkBjR7cVIR8ETApcu3ZNHnnkEdm/f7/JGRgWqECOHDlk+/btxqelAh3L/QgggAACCJgRSE5OlqioKElMTDQznDEmBMLDw43fr8qXL29iNEMQQAAB+wVo7NhvTAQEHBNQTR3V3FFNHi5nBNTzDdTzjXLlyuVMQKIggAACCPhaQG0Fmjx5sq8NnC7+rbfekgEDBjgdlngIIIBAlgVo7GSZihsRcIfAyJEjZdSoUe5I1iNZDh8+HHOPrCVlIIAAAjoLbNmyRdSpTOnp6Tqn6anc6tSpI8qdLVieWlaKQcBzAjR2PLekFOR3AfUAZfUgZfVAZS5nBHLmzCk7d+6U6OhoZwISBQEEEEDAdwIpKSlStWpVOX78uO9qD1XBefLkkX379knFihVDlQJxEUAAgSwJ0NjJEhM3IeAugT179kitWrVEHYXO5YyA+mV7165dopo8XAgggAACCFgtoLYCTZw40eppmS8TgTfffFMGDRqUyR28hQACCOghQGNHj3UgCwQsFxg2bBgnNlmumvmEr732GieTZU7EuwgggAACJgS2bdsm6lQmtmCZwDM5RD2zULlnz57d5AwMQwABBJwToLHjnDWREHBUIDU1VapVqyZHjhxxNK6fg6kHKH/xxRfGaSV+dqB2BBBAAAHrBK5cuWJswTp27Jh1kzJTpgK5c+cW9enniIiITO/jTQQQQEAXARo7uqwEeSBgg4DaGqQe+peWlmbD7Ex5M4Hq1avLjh07RB2FzoUAAggggECwAmor0Pjx44OdhvEBCLzxxhsydOjQAEZwKwIIIBBaARo7ofUnOgK2CwwePFjGjRtnexwC/E+AXwj/Z8FXCCCAAALmBdSD+evWrcsfaMwTBjySP9AETMYABBDQQIDGjgaLQAoI2CmgPsKtTms6evSonWGY+wYBPsJ9AwZfIoAAAgiYEmBLtSm2oAapLdW7d++WyMjIoOZhMAIIIOC0AI0dp8WJh0AIBHjoovPoPHTReXMiIoAAAl4SUFuBxo4d66WStK+FQxC0XyISRACBWwjQ2LkFDC8j4DWBV155RSZMmOC1srSuh2NStV4ekkMAAQS0FVAP7q1Vq5Zcv35d2xy9lljVqlVFPZswZ86cXiuNehBAwAcCNHZ8sMiUiIASSElJMU7VOH78OCAOCeTJk0f27dsnFStWdCgiYRBAAAEE3C5w9epVqVGjhiQkJLi9FNfkr5o56nlGaus6FwIIIOBGARo7blw1ckbApMCWLVukfv36kp6ebnIGhgUqULt2bVHu2bNnD3Qo9yOAAAII+FBgxIgRMnr0aB9WHrqShw8fLqNGjQpdAkRGAAEEghSgsRMkIMMRcJtAv379ZPLkyW5L29X5vvXWWzJgwABX10DyCCCAAAL2C+zfv1/UM9quXbtmfzAiGALqQcnqgcnqwclcCCCAgFsFaOy4deXIGwGTAsnJyRIVFSWJiYkmZ2BYoALh4eGiflkvX758oEO5HwEEEEDAJwKqmaOaOuq/F1zOCOTIkUO2b99ubH1zJiJREEAAAXsEaOzY48qsCGgtsHHjRomNjZWMjAyt8/RScjExMbJp0ybJli2bl8qiFgQQQAABiwTUVqCRI0daNBvTZEVgyJAhMmbMmKzcyj0IIICA1gI0drReHpJDwD6BuLg4mTZtmn0BmPlXAm+//baorXBcCCCAAAII3CigHpSsHpisHpzM5YxApUqVZO/evZI7d25nAhIFAQQQsFGAxo6NuEyNgM4CSUlJxpasb775Ruc0PZVbvnz55ODBg1K2bFlP1UUxCCCAAALmBdSR5upoc3XEOZczAupAg61bt0rNmjWdCUgUBBBAwGYBGjs2AzM9AjoLrF+/Xho3bsyWLAcXSZ1KtmHDBgkLC3MwKqEQQAABBHQVGDt2rAwdOlTX9DyZ18CBA2XcuHGerI2iEEDAnwI0dvy57lSNwE8CvXv3lhkzZvz0PV/YLzBlyhRRW+G4EEAAAQT8LXDkyBGpVq2apKam+hvCweorVKgg+/btk7x58zoYlVAIIICAvQI0duz1ZXYEtBe4dOmSVK5cWU6dOqV9rl5JMH/+/KKep1CmTBmvlEQdCCCAAAIBCqSlpUndunVl586dAY7kdrMC6gCDLVu2SJ06dcxOwTgEEEBASwEaO1ouC0kh4KzA6tWrpVmzZs4G9Xm0hg0bytq1a9mS5fOfA8pHAAH/CowfP14GDRrkX4AQVN6/f3+ZMGFCCCITEgEEELBXgMaOvb7MjoBrBHr27CmzZ892Tb5eSPS9994TtRWOCwEEEEDAXwLHjh2TqlWrypUrV/xVeAirLVeunBw4cEDCw8NDmAWhEUAAAXsEaOzY48qsCLhO4OLFi8aWrNOnT7sud7cmXLBgQTl06JCUKlXKrSWQNwIIIIBAgALp6ekSExMj27ZtC3Akt5sVUFuwNm7cKPXq1TM7BeMQQAABrQVo7Gi9PCSHgLMCq1atkpYtWzob1OfRmjZtKvHx8T5XoHwEEEDAPwITJ06UAQMG+KdgDSrt27evTJo0SYNMSAEBBBCwR4DGjj2uzIqAawW6desm8+bNc23+bkz8/fffF7UVjgsBBBBAwNsCx48fN7ZgpaSkeLtQjaorW7asHDx4UPLly6dRVqSCAAIIWCtAY8daT2ZDwPUCFy5cMLZkfffdd66vxS0FFC5c2NiSVbJkSbekTJ4IIIAAAgEKqC1Y9evXN05lCnAot5sUCAsLk88++0waNGhgcgaGIYAAAu4QoLHjjnUiSwQcFVi+fLm0bdvW0Zh+D/b444+L2grHhQACCCDgTYHJkydLv379vFmcplW98MILMm3aNE2zIy0EEEDAOgEaO9ZZMhMCnhLo0qWLLFy40FM16V7MBx98IGorHBcCCCCAgLcEEhMTJSoqSpKTk71VmMbVlC5dWhISEqRAgQIaZ0lqCCCAgDUCNHascWQWBDwncP78eYmIiJBz5855rjZdCypSpIixJatEiRK6pkheCCCAAAIBCmRkZEhsbKxxKlOAQ7ndpIDagrVmzRpp1KiRyRkYhgACCLhLgMaOu9aLbBFwVGDp0qXSoUMHR2P6PVjr1q1FbYXjQgABBBDwhoDaChQXF+eNYlxSxXPPPSczZsxwSbakiQACCAQvQGMneENmQMDTAh07dpQlS5Z4ukbdiluwYIF07txZt7TIBwEEEEAgQIGTJ09KZGSkJCUlBTiS280KlCpVytiCVahQIbNTMA4BBBBwnQCNHdctGQkj4KyA2oqltmSprVlczggULVrU2JJ19913OxOQKAgggAAClguoLViNGzeW9evXWz43E95a4NNPP5VmzZrd+gbeQQABBDwoQGPHg4tKSQhYLbBo0SI+QWI16m3me+KJJ0RtheNCAAEEEHCngNoK1Lt3b3cm79Ksu3fvLrNnz3Zp9qSNAAIImBegsWPejpEI+EqgXbt2smzZMl/VHOpiFy9ezDOOQr0IxEcAAQRMCJw6dUoqV64sly5dMjGaIWYE7rnnHjl8+LAULlzYzHDGIIAAAq4WoLHj6uUjeQScEzh79qyxJevChQvOBfV5pGLFihlbsu666y6fS1A+Aggg4C4BtRVo9erV7kra5dmuWLFCWrZs6fIqSB8BBBAwJ0Bjx5wboxDwpcD8+fOla9euvqw9VEU/+eSTorbCcSGAAAIIuENAbQXq2bOnO5L1SJZPP/20zJs3zyPVUAYCCCAQuACNncDNGIGArwVatWolK1eu9LWB08V/9NFH0rZtW6fDEg8BBBBAIECB06dPG1uwLl68GOBIbjcrULx4cWMLVpEiRcxOwTgEEEDA9QI0dly/hBSAgLMCZ86cMbZk8Uurc+7ql9ZDhw7JnXfe6VxQIiGAAAIIBCygtgKtWrUq4HEMMC/AHz/M2zESAQS8I0BjxztrSSUIOCYwZ84c6dGjh2PxCCTCx8z5KUAAAQT0FlBbgbp166Z3kh7LrlOnTrJw4UKPVUU5CCCAQOACNHYCN2MEAgj8V6B58+YSHx+PhYMCPBjSQWxCIYAAAgEIcMBAAFgW3aoOGFCnYBUtWtSiGZkGAQQQcK8AjR33rh2ZIxBSAXWUa2RkpHz//fchzcNPwdVRrmpL1h133OGnsqkVAQQQ0F5APQdt+fLl2ufppQQXL14sHTp08FJJ1IIAAgiYFqCxY5qOgQggMHPmTOnVqxcQDgp0795d1IkrXAgggAACegiorUBdunTRIxmfZNG+fXtZsmSJT6qlTAQQQOD2AjR2bm/EHQggcAuBjIwMadKkiaxbt+4Wd/CyHQKffvqpNGvWzI6pmRMBBBBAIACBc+fOGQcKnD9/PoBR3BqMgNp6pbZgqa1YXAgggAAC/ydAY4efBAQQCErg5MmTxpaspKSkoOZhcNYF7r33XmNLVqFChbI+iDsRQAABBCwXUFuBli5davm8THhrgQULFkjnzp1vfQPvIIAAAj4UoLHjw0WnZASsFnj33XelT58+Vk/LfJkIPPfcczJjxoxM7uAtBBBAAAE7BdRWoI4dO9oZgrl/IdCmTRtZtmzZL17lWwQQQAABGjv8DCCAQNACaktWbGysbNy4Mei5mCBrAmFhYbJ69Wpp3Lhx1gZwFwIIIICAZQJq61VERISorVhczggUKVLE2IJVvHhxZwISBQEEEHCRAI0dFy0WqSKgs8DXX39tbMlKTk7WOU1P5Va6dGlJSEiQAgUKeKouikEAAQR0F1BbgRYtWqR7mp7Kb+7cudK1a1dP1UQxCCCAgFUCNHaskmQeBBCQd955R/r27YuEgwIvvPCCTJs2zcGIhEIAAQT8LaCONVfHm3M5J9CiRQtZuXKlcwGJhAACCLhMgMaOyxaMdBHQWSA9PV0aNGggmzdv1jlNT+WmtmStX79eHnvsMU/VRTEIIICAjgIXLlwwtmCdPXtWx/Q8mVPhwoWNAwNKlizpyfooCgEEELBCgMaOFYrMgQACPwmcOHFCqlSpIikpKT+9xhf2Ctx///1y8OBByZ8/v72BmB0BBBDwuYDaCjR//nyfKzhb/qxZs6RHjx7OBiUaAggg4DIBGjsuWzDSRcANAhMnTpQBAwa4IVXP5PjSSy/J5MmTPVMPhSCAAAK6CaxatUpatmypW1qezqdp06YSHx/v6RopDgEEELBCgMaOFYrMgQACPxNQW7Lq1asnW7du/dnrfGOfQLZs2YxTyZQ7FwIIIICAtQIXL140tmCdOXPG2omZ7ZYCBQsWNLZglSpV6pb38AYCCCCAwP8J0NjhJwEBBGwROHbsmERHR8vly5dtmZ9Jfy1Qrlw5OXDggISHh//6TV5BAAEEEDAtoLYCzZkzx/R4BgYuMH36dOnVq1fgAxmBAAII+FCAxo4PF52SEXBKYPz48TJo0CCnwhHnvwIvv/yyqK1wXAgggAAC1giorUDNmze3ZjJmyZJAw4YNZe3ataIOCOBCAAEEELi9AI2d2xtxBwIImBRIS0uTunXrys6dO03OwLBABdSWLHUqmXLnQgABBBAITuD777+XyMhIOXXqVHATMTrLAgUKFDAOBChTpkyWx3AjAggg4HcBGjt+/wmgfgRsFjhy5IhUq1ZNUlNTbY7E9D8KVKhQQfbt2yd58+b98SX+RQABBBAwIaC2As2cOdPESIaYFZg6dar06dPH7HDGIYAAAr4UoLHjy2WnaAScFRg7dqwMHTrU2aA+j/bqq6+K2grHhQACCCBgTmDdunXSpEkTycjIMDcBowIWaNCggXz22WdswQpYjgEIIOB3ARo7fv8JoH4EHBC4fv261K5dW3bv3u1ANEIogezZs8vf/vY3qVWrFiAIIIAAAgEKJCUlGVuwTp48GeBIbjcrkC9fPmMLVtmyZc1OwTgEEEDAtwI0dny79BSOgLMCCQkJUqNGDbl69aqzgX0c7aGHHpK9e/dKnjx5fKxA6QgggEDgAnFxcTJt2rTABzLCtMCkSZOkb9++psczEAEEEPCzAI0dP68+tSPgsMDo0aNlxIgRDkf1d7jf/e53orbCcSGAAAIIZE1g48aNEhsbyxasrHFZcldMTIxs2rRJ1AEAXAgggAACgQvQ2AncjBEIIGBS4Nq1a1KzZk3jwb4mp2BYgAI5cuSQ7du3G5+WCnAotyOAAAK+E0hOTpaoqChJTEz0Xe2hKjg8PFz2798v5cuXD1UKxEUAAQRcL0Bjx/VLSAEIuEtA/fL2yCOPiGrycDkjULlyZdmzZ4/kypXLmYBEQQABBFwq0K9fP5k8ebJLs3dn2hMmTJD+/fu7M3myRgABBDQRoLGjyUKQBgJ+Ehg5cqSMGjXKTyWHvNbf//73orbCcSGAAAII3Fxg8+bNok5lSk9Pv/kNvGq5QJ06dWTLli1swbJclgkRQMBvAjR2/Lbi1IuABgLqAcoPP/ywcfqFBun4IoWcOXPKzp07JTo62hf1UiQCCCAQiEBKSopUqVJFTpw4Ecgw7g1CQD3YX32Kt0KFCkHMwlAEEEAAASVAY4efAwQQCImA2hqkjuJWR6FzOSOg/k/LF198IarJw4UAAggg8D+BAQMGyMSJE//3Al/ZLjBu3DgZOHCg7XEIgAACCPhBgMaOH1aZGhHQVGDYsGEyZswYTbPzZlp/+MMfRG2F40IAAQQQ+D+Bbdu2iTqViS1Yzv1EqIMUtm7dKtmzZ3cuKJEQQAABDwvQ2PHw4lIaAroLpKamSvXq1eXw4cO6p+qZ/NQDlNWndtSpL1wIIICA3wUuX75sbFE9duyY3ykcqz937tyyd+9eqVSpkmMxCYQAAgh4XYDGjtdXmPoQ0Fxg165doh6emJaWpnmm3kmvWrVqxvN21FHoXAgggICfBQYNGiTjx4/3M4Hjtb/xxhsy/TZMPQAAQABJREFUdOhQx+MSEAEEEPCyAI0dL68utSHgEoHBgweL2mvP5ZzA66+/LmorHBcCCCDgVwH1QPm6devyhwUHfwDUp3R37Ngh/GHBQXRCIYCALwRo7PhimSkSAb0Frly5YnwU/ujRo3on6qHs1Efh1QOsIyIiPFQVpSCAAAJZE1BbgdWnF48cOZK1AdwVtIDaCrx7926JjIwMei4mQAABBBD4uQCNnZ978B0CCIRIYPv27cbDK9mS5dwCPPLII6IeGsrDK50zJxICCOghoLYCjR07Vo9kfJLFa6+9JiNGjPBJtZSJAAIIOCtAY8dZb6IhgEAmAq+88opMmDAhkzt4y2qBN998U9QzJrgQQAABvwioT43Url1brl+/7peSQ15n1apVRT1TL2fOnCHPhQQQQAABLwrQ2PHiqlITAi4VSElJEfXL3/Hjx11agfvSzpMnj+zbt08qVqzovuTJGAEEEAhQ4OrVq1KjRg1JSEgIcCS3mxVQzRzV1FH/fedCAAEEELBHgMaOPa7MigACJgW2bNki9evXl/T0dJMzMCxQAfWXa+XOlqxA5bgfAQTcJqC2Ao0ePdptabs63+HDh8uoUaNcXQPJI4AAAroL0NjRfYXIDwEfCvz2t7+VSZMm+bDy0JX81ltvyYABA0KXAJERQAABmwX2798v6tli165dszkS0/8ooB6UrLa+qQcncyGAAAII2CdAY8c+W2ZGAAGTAsnJyRIVFSWJiYkmZ2BYoAJ58+aVAwcOSPny5QMdyv0IIICA9gKqmaOaOqq5w+WMgDrSXB1tro4450IAAQQQsFeAxo69vsyOAAImBTZt2iSPPfaYZGRkmJyBYYEK/OY3v5HPP/9csmXLFuhQ7kcAAQS0FlBbgUaOHKl1jl5LbsiQITJmzBivlUU9CCCAgJYCNHa0XBaSQgABJfDiiy/K1KlTwXBQ4O2335Z+/fo5GJFQCCCAgL0C6kHJ6oHJ6sHJXM4IVKpUSfbu3Su5c+d2JiBREEAAAZ8L0Njx+Q8A5SOgs0BSUpKxJeubb77ROU1P5ZYvXz5jS9YDDzzgqbooBgEE/CmgjjSvVauW7Nmzx58AIahaPYh/69atUrNmzRBEJyQCCCDgTwEaO/5cd6pGwDUC69evl8aNG7Mly8EVU6eSbdiwQcLCwhyMSigEEEDAegG1FWjYsGHWT8yMtxQYOHCgjBs37pbv8wYCCCCAgPUCNHasN2VGBBCwWOD555+X6dOnWzwr02UmMGXKFImLi8vsFt5DAAEEtBY4cuSIVKtWTVJTU7XO00vJVahQwXhAdZ48ebxUFrUggAAC2gvQ2NF+iUgQAQQuXboklStXllOnToHhkED+/PlFPZeiTJkyDkUkDAIIIGCdQFpamtSpU0d27dpl3aTMlKmAevD+li1bDPdMb+RNBBBAAAHLBWjsWE7KhAggYIfA6tWrpVmzZnZMzZy3EIiNjZV169axJesWPryMAAL6CqitQIMHD9Y3QQ9m1r9/f5kwYYIHK6MkBBBAQH8BGjv6rxEZIoDA/xfo2bOnzJ49Gw8HBd577z3p3bu3gxEJhQACCAQncPToUYmOjpYrV64ENxGjsyxQrlw548H74eHhWR7DjQgggAAC1gnQ2LHOkpkQQMBmgYsXLxpbsk6fPm1zJKb/UaBgwYLGlqz77rvvx5f4FwEEENBWID09XWJiYmTbtm3a5ui1xNQWrI0bN0q9evW8Vhr1IIAAAq4RoLHjmqUiUQQQUAKffPKJtGjRAgwHBZo0aSJqKxwXAgggoLuA2gr0yiuv6J6mp/Lr27evTJo0yVM1UQwCCCDgNgEaO25bMfJFAAHp1q2bzJs3DwkHBd5//31RW+G4EEAAAV0Fjh8/LlWrVpWUlBRdU/RcXmXLlpWDBw9Kvnz5PFcbBSGAAAJuEqCx46bVIlcEEDAELly4YGzJ+u677xBxSKBw4cJy6NAhKVmypEMRCYMAAghkXUBtwapfv75xKlPWR3FnMAJhYWHy2WefSYMGDYKZhrEIIIAAAhYI0NixAJEpEEDAeYGPP/5Y2rRp43xgH0d8/PHHZdWqVT4WoHQEENBVYPLkydKvXz9d0/NkXn369JGpU6d6sjaKQgABBNwmQGPHbStGvggg8JNAly5dZOHChT99zxf2C3zwwQfGVjj7IxEBAQQQyJpAYmKiREVFSXJyctYGcFfQAqVLlzYerF+gQIGg52ICBBBAAIHgBWjsBG/IDAggECKB8+fPG1uy/vnPf4YoA/+FLVKkiLElq0SJEv4rnooRQEA7gYyMDImNjTVOZdIuOY8mpLZgrVmzRho1auTRCikLAQQQcJ8AjR33rRkZI4DADQIffvihtG/f/oZX+NJugdatW8vy5cvtDsP8CCCAwG0Fpk2bJnFxcbe9jxusE+jVq5dMnz7dugmZCQEEEEAgaAEaO0ETMgECCIRaoGPHjrJkyZJQp+Gr+H/5y19EbYXjQgABBEIl8M033xhbsJKSkkKVgu/ilipVyvjUZsGCBX1XOwUjgAACOgvQ2NF5dcgNAQSyJHDu3DmJiIgQtTWLyxmBO++8Uw4fPix33323MwGJggACCNwgoLZgNW7cWNavX3/Dq3xpt0B8fLw0bdrU7jDMjwACCCAQoACNnQDBuB0BBPQUWLRokXTu3FnP5Dya1RNPPCFLly71aHWUhQACOgvMmDFDevfurXOKnsutR48eMmvWLM/VRUEIIICAFwRo7HhhFakBAQQMgXbt2smyZcvQcFDgr3/9q6itcFwIIICAUwKnTp0yHpx/6dIlp0L6Pk7JkiWNLViFCxf2vQUACCCAgI4CNHZ0XBVyQgABUwJnz541ftn/97//bWo8gwIXuOuuu4wtWepfLgQQQMAJgWbNmsnq1audCEWM/y+wcuVKadGiBR4IIIAAApoK0NjRdGFICwEEzAnMnz9funbtam4wo0wJPPnkk6K2wnEhgAACdgvMnj1bevbsaXcY5r9BQP03de7cuTe8wpcIIIAAAroJ0NjRbUXIBwEEghZo1aqVqL8ucjknoI6dV1vhuBBAAAG7BE6fPm18KvPixYt2hWDeXwgUL17c+FRmkSJFfvEO3yKAAAII6CRAY0en1SAXBBCwRODMmTPGL///+c9/LJmPSW4voH75P3TokKjTsrgQQAABOwRatmwpq1atsmNq5ryFgHpuXZs2bW7xLi8jgAACCOgiQGNHl5UgDwQQsFRgzpw5ok7w4HJO4KmnnhK1FY4LAQQQsFpg3rx50q1bN6unZb5MBDp16iQLFy7M5A7eQgABBBDQRYDGji4rQR4IIGC5QPPmzSU+Pt7yeZnw1gIff/yxqK1wXAgggIBVAt99953xKcwLFy5YNSXz3EagWLFixhasokWL3uZO3kYAAQQQ0EGAxo4Oq0AOCCBgi8A//vEP4/8MfP/997bMz6S/FrjnnnuMLVl33HHHr9/kFQQQQMCEQNu2bWX58uUmRjLErMCSJUukffv2ZoczDgEEEEDAYQEaOw6DEw4BBJwVmDlzpvTq1cvZoD6P9swzz4jaCseFAAIIBCugtgJ16dIl2GkYH4CAauioxg4XAggggIB7BGjsuGetyBQBBEwIZGRkSJMmTWTdunUmRjPErMAnn3wiaiscFwIIIGBW4Ny5cxIRESHnz583OwXjAhRQW68OHz4saisWFwIIIICAewRo7LhnrcgUAQRMCpw8eVIiIyMlKSnJ5AwMC1Tg3nvvNbZkFSpUKNCh3I8AAggYAh06dJClS5ei4aCA+oSUemgyFwIIIICAuwRo7LhrvcgWAQRMCrz77rvSp08fk6MZZkbg2WefFbUVjgsBBBAIVEBtBerYsWOgw7g/CAF1rLk63pwLAQQQQMB9AjR23LdmZIwAAiYE1Jashg0byoYNG0yMZogZgbCwMFm9erU0btzYzHDGIICATwXU1iu1BUttxeJyRqBIkSLGFqzixYs7E5AoCCCAAAKWCtDYsZSTyRBAQGeBr7/+WqKiouSHH37QOU1P5Va6dGlJSEiQAgUKeKouikEAAfsEOnfuLIsWLbIvADP/SmDu3LnStWvXX73OCwgggAAC7hCgseOOdSJLBBCwSOCdd96Rvn37WjQb02RF4Pnnnxe1FY4LAQQQuJ2A2grUrl27293G+xYKtGjRQlauXGnhjEyFAAIIIOC0AI0dp8WJhwACIRVIT0+XBg0ayObNm0Oah5+Cqy1Z69evl8cee8xPZVMrAggEKHDhwgVjC9bZs2cDHMntZgUKFy5sPOi+ZMmSZqdgHAIIIICABgI0djRYBFJAAAFnBU6cOCFVqlSRlJQUZwP7ONr9998vBw8elPz58/tYgdIRQCAzAbUVaP78+ZndwnsWC8yaNUt69Ohh8axMhwACCCDgtACNHafFiYcAAloI/PnPf5b+/ftrkYtfknjppZdk8uTJfimXOhFAIAABtRWoVatWAYzg1mAFmjZtKvHx8cFOw3gEEEAAAQ0EaOxosAikgAACzguoLVn16tWTrVu3Oh/cpxGzZctmnEr26KOP+lSAshFA4GYCFy9eNLZgnTlz5mZv85oNAoUKFTIebF+qVCkbZmdKBBBAAAGnBWjsOC1OPAQQ0Ebg2LFjEh0dLZcvX9YmJ68nUq5cOTlw4ICEh4d7vVTqQwCBLAqorUBz5szJ4t3cZoXA9OnTpVevXlZMxRwIIIAAAhoI0NjRYBFIAQEEQifwpz/9SQYOHBi6BHwY+eWXX5aJEyf6sHJKRgCBXwqorUDNmzf/5ct8b6NAo0aNZM2aNaIebM+FAAIIIOANARo73lhHqkAAAZMCaWlpUrduXdm5c6fJGRgWqIDakqVOJVPuXAgg4F+B77//XiIjI+XUqVP+RXC48gIFChhbsEqXLu1wZMIhgAACCNgpQGPHTl3mRgABVwj8/e9/N7ZkpaamuiJfLyT54IMPyv79+yVv3rxeKIcaEEDAhIDaCjRz5kwTIxliVmDq1KnSp08fs8MZhwACCCCgqQCNHU0XhrQQQMBZgT/+8Y8yZMgQZ4P6PNqrr74q48eP97kC5SPgT4F169ZJkyZNJCMjw58AIai6QYMG8tlnn7EFKwT2hEQAAQTsFqCxY7cw8yOAgCsErl+/LrVr15bdu3e7Il8vJJk9e3b529/+JrVq1fJCOdSAAAJZFEhKSjK2YJ08eTKLI7gtWIF8+fLJwYMHpWzZssFOxXgEEEAAAQ0FaOxouCikhAACoRE4dOiQVK9eXa5evRqaBHwY9aGHHpK9e/dKnjx5fFg9JSPgTwG1Fejdd9/1Z/EhqnrSpEnSt2/fEEUnLAIIIICA3QI0duwWZn4EEHCVwOjRo2XEiBGuytntyf7ud7+TsWPHur0M8kcAgSwIbNy4UWJjY9mClQUrq26pV6+eKHf14HouBBBAAAFvCtDY8ea6UhUCCJgUuHbtmtSsWVP27dtncgaGBSqQI0cO2bZtmzz88MOBDuV+BBBwkUBycrKxBevrr792UdbuTjU8PFwOHDgg5cqVc3chZI8AAgggkKkAjZ1MeXgTAQT8KKB+CVZNBtXk4XJGoHLlyrJnzx7JlSuXMwGJggACjguorUDvvPOO43H9HHDChAnSv39/PxNQOwIIIOALARo7vlhmikQAgUAF/vCHP8hrr70W6DDuD0Lg97//vaitcFwIIOA9gc2bN4s6lSk9Pd17xWlaUZ06dWTLli1swdJ0fUgLAQQQsFKAxo6VmsyFAAKeEVAPUFaf2lGniHA5I5AzZ07ZuXOnREdHOxOQKAgg4IhASkqKVKlSRU6cOOFIPIKI8UD6/fv3S4UKFeBAAAEEEPCBAI0dHywyJSKAgDkBtTVIHcWtjkLnckZA/Z+/L774QlSThwsBBLwhoLYC/fnPf/ZGMS6pYty4cTJw4ECXZEuaCCCAAALBCtDYCVaQ8Qgg4GmBYcOGyZgxYzxdo27FqW1wI0eO1C0t8kEAARMCW7duFXUqE1uwTOCZHKIOAFDu2bNnNzkDwxBAAAEE3CZAY8dtK0a+CCDgqEBqaqpUr15dDh8+7GhcPwdTD1BWn9qJioryMwO1I+B6gcuXLxtbK48dO+b6WtxSQO7cuWXv3r1SqVIlt6RMnggggAACFgjQ2LEAkSkQQMDbArt27RL1EMq0tDRvF6pRddWqVTOet6OOQudCAAF3CgwaNEjGjx/vzuRdmrX6hOmQIUNcmj1pI4AAAgiYFaCxY1aOcQgg4CuBwYMHi3pmAZdzAq+//rqorXBcCCDgPgH1IPS6devSEHdw6WrUqCHbt28XGuIOohMKAQQQ0ESAxo4mC0EaCCCgt8CVK1eMLQVHjx7VO1EPZae2FKgHWEdERHioKkpBwPsCagur+tTdkSNHvF+sJhWqLay7d++WyMhITTIiDQQQQAABJwVo7DipTSwEEHC1gPpLaExMDH+BdnAV1ZHzyp2HgDqITigEghQYOnSojB07NshZGB6IwKhRo2T48OGBDOFeBBBAAAEPCdDY8dBiUgoCCNgv8Morr8iECRPsD0SEnwT++Mc/itoKx4UAAvoLqE+N1K5dW65fv65/sh7JsGrVqqKeBZczZ06PVEQZCCCAAAKBCtDYCVSM+xFAwNcC6pSXKlWqyPHjx33t4GTxefLkkX379knFihWdDEssBBAIUODq1auinvOSkJAQ4EhuNyugmjmqqaOaO1wIIIAAAv4VoLHj37WncgQQMCmwZcsWqV+/vqSnp5ucgWGBCqhPACh3tmQFKsf9CDgnMGLECBk9erRzAYkkyvy1115DAgEEEEDA5wI0dnz+A0D5CCBgTuC3v/2tTJo0ydxgRpkS+NOf/iRqKxwXAgjoJ6A+VVezZk25du2afsl5NCP1oGS19U09OJkLAQQQQMDfAjR2/L3+VI8AAiYFkpOTjS1ZX331lckZGBaoQN68eWX//v3y4IMPBjqU+xFAwEYB1cx55JFHjP992hiGqW8QUEea79ixQ6pXr37Dq3yJAAIIIOBXARo7fl156kYAgaAFNm3aJI899phkZGQEPRcTZE3gN7/5jXz++eeSLVu2rA3gLgQQsF1Ancg0cuRI2+MQ4H8C6uSxN954438v8BUCCCCAgK8FaOz4evkpHgEEghV48cUXZerUqcFOw/gABP785z+L2grHhQACoRc4ePCgPPzww6IenMzljEClSpVk7969kjt3bmcCEgUBBBBAQHsBGjvaLxEJIoCAzgI//PCDqOccfPPNNzqn6anc8uXLJwcOHJAHHnjAU3VRDAJuE1BHmteqVUv27NnjttRdm696gPy2bduMrW+uLYLEEUAAAQQsF6CxYzkpEyKAgN8E1q9fL40bN2ZLloMLr04l27Bhg4SFhTkYlVAIIHCjwJgxY2TYsGE3vsTXNgsMHDhQxo0bZ3MUpkcAAQQQcJsAjR23rRj5IoCAlgLPP/+8TJ8+XcvcvJrUlClTJC4uzqvlURcCWgscPnzYeHBvamqq1nl6KbkKFSoYD6jOkyePl8qiFgQQQAABCwRo7FiAyBQIIIDApUuXjC1Z3377LRgOCeTPn18SEhKkTJkyDkUkDAIIKIG0tDSpU6eO7Nq1CxCHBNQD47ds2WK4OxSSMAgggAACLhKgseOixSJVBBDQW2DNmjXStGlTvZP0WHaxsbGybt06tmR5bF0pR28BtRVo8ODBeifpsez69+8vEyZM8FhVlIMAAgggYJUAjR2rJJkHAQQQ+K/As88+K7NmzcLCQYH33ntPevfu7WBEQiHgX4GjR49KdHS0XLlyxb8IDldevnx5YwtWeHi4w5EJhwACCCDgFgEaO25ZKfJEAAFXCFy8eFEqV64sp0+fdkW+XkiyYMGCxpas++67zwvlUAMC2gqoLVgxMTGyfft2bXP0WmJqC9amTZsMd6/VRj0IIIAAAtYJ0NixzpKZEEAAAUPgk08+kRYtWqDhoECTJk0kPj6eLVkOmhPKfwJqK9Arr7ziv8JDWHHfvn1l0qRJIcyA0AgggAACbhCgseOGVSJHBBBwncAzzzwjc+fOdV3ebk74/fffl549e7q5BHJHQFuBr776SqKioiQlJUXbHL2WWNmyZeXgwYOSL18+r5VGPQgggAACFgvQ2LEYlOkQQAABJXDhwgVjS9Z3330HiEMChQsXlkOHDknJkiUdikgYBPwhkJGRIQ0aNJDPP//cHwVrUGVYWJh89tlnhrsG6ZACAggggIDmAjR2NF8g0kMAAfcKfPzxx9KmTRv3FuDCzB9//HFZtWqVCzMnZQT0FZgyZYq89NJL+ibowcz69OkjU6dO9WBllIQAAgggYIcAjR07VJkTAQQQ+P8CTz31lCxYsAAPBwU++OAD6datm4MRCYWAdwW+/vprYwvWDz/84N0iNausTJkyxhasAgUKaJYZ6SCAAAII6CpAY0fXlSEvBBDwhMD58+eNLVn//Oc/PVGPG4q444475PDhw1KiRAk3pEuOCGgroLZgNWrUyNgSpG2SHktMbcFau3atNGzY0GOVUQ4CCCCAgJ0CNHbs1GVuBBBA4L8CH374obRv3x4LBwVat24ty5cvdzAioRDwnsB7770nL7zwgvcK07iiXr16yfTp0zXOkNQQQAABBHQUoLGj46qQEwIIeE6gY8eOsmTJEs/VpXNBf/nLX6RLly46p0huCGgr8O2330pkZKRcunRJ2xy9llipUqWMB8AXLFjQa6VRDwIIIICAzQI0dmwGZnoEEEBACZw7d87YkvWvf/0LEIcE7rzzTmNL1t133+1QRMIg4A0BtQWrWbNmsmbNGm8U5JIq4uPjpWnTpi7JljQRQAABBHQSoLGj02qQCwIIeFrgr3/9q3Tq1MnTNepW3BNPPCFLly7VLS3yQUBrgffff1+ee+45rXP0WnI9evSQWbNmea0s6kEAAQQQcEiAxo5D0IRBAAEElEC7du1k2bJlYDgooBpqaiscFwII3F7gH//4h/Hpwu+///72N3OHJQIlS5Y0tmAVLlzYkvmYBAEEEEDAfwI0dvy35lSMAAIhFDh79qzxf5r+/e9/hzALf4W+6667jC1Z6l8uBBDIXODxxx+XTz/9NPObeNdSgZUrV0qLFi0snZPJEEAAAQT8JUBjx1/rTbUIIKCBgHqo79NPP61BJv5J4cknn5RFixb5p2AqRcCEwAcffCDdu3c3MZIhZgW6du0qc+fONTuccQgggAACCBgCNHb4QUAAAQRCINCqVStRf6Xlck5AHTuvtsJxIYDArwW+++47iYiIkP/85z+/fpNXbBEoXry48WnCIkWK2DI/kyKAAAII+EeAxo5/1ppKEUBAI4EzZ84YW7L4P1HOLYo6Hevw4cOiTsviQgCBnwu0bt1aVqxY8fMX+c5WAfW8tTZt2tgag8kRQAABBPwhQGPHH+tMlQggoKEA2x6cX5SnnnpK5s+f73xgIiKgscCCBQtE/W+DyzmBzp07i3LnQgABBBBAwAoBGjtWKDIHAgggYFKAB5WahAti2McffyxqKxwXAgiI/POf/zS2YPFAd+d+GooVK2Z8erBo0aLOBSUSAggggICnBWjseHp5KQ4BBHQX4Ghh51fonnvuMY4WvuOOO5wPTkQENBN44okn5KOPPtIsK2+ns2TJEmnfvr23i6Q6BBBAAAFHBWjsOMpNMAQQQODXAjNnzpRevXr9+g1esU3gmWeekTlz5tg2PxMj4AaBxYsXizoxjss5gQ4dOohy50IAAQQQQMBKARo7VmoyFwIIIGBCICMjQ5o2bSpr1641MZohZgU++eQTad68udnhjEPA1QL/+te/jC1Y6l8uZwTU1iv1AHe1FYsLAQQQQAABKwVo7FipyVwIIICASYGTJ09KZGSkJCUlmZyBYYEK3HvvvcaWrEKFCgU6lPsRcL2A+qQOnxxxdhkXLlwonTp1cjYo0RBAAAEEfCFAY8cXy0yRCCDgBoF3331X+vTp44ZUPZPjs88+K2orHBcCfhJQz9RRz9bhck6gbdu2PMvIOW4iIYAAAr4ToLHjuyWnYAQQ0FVAbclq2LChbNiwQdcUPZdXWFiYrF69Who3buy52igIgZsJqNOvIiIijNOwbvY+r1kvUKRIEWMLVvHixa2fnBkRQAABBBD4rwCNHX4MEEAAAY0Evv76a4mKipIffvhBo6y8ncp9990nCQkJUrBgQW8XSnUI/FfgqaeekgULFmDhoMC8efPk6aefdjAioRBAAAEE/CZAY8dvK069CCCgvcA777wjffv21T5PLyX4/PPPi9oKx4WAlwVWrFghrVu39nKJ2tXWsmVLUe5cCCCAAAII2ClAY8dOXeZGAAEETAikp6fLY489Jp9//v/au/foK6syceAP4AUU71lpZhplElfBCxKKonhPTZ00ddIRJpmkxMTEwsTUggkKSkxMTBx10kknnTQvgZCIGKGAsGhRLB2W5bhcLpJQ8AL85j3zq6xUznm/3/Oe9/J5/+HL9+y9n+f5bFZr+XT2fuekmG1KGoHkSNbPf/7zmnua+eYQyLvA6tWra0ewnn/++bynWpr8dtxxx9oRrN133700NSmEAAECBPIpoLGTz32RFQECFRf47W9/G3369IlXX3214hLZlb/33nvHkiVLomvXrtkFFYlARgLnnntuzJgxI6NowiQCP/zhDyNx9xAgQIAAgWYLaOw0W9j6BAgQSCkwefLkuOiii1LONi2NwAUXXBDJUTgPgTIJ3H///XH88ceXqaTc13LsscdG4u4hQIAAAQJZCGjsZKEsBgECBFIIJEeyDj300HjsscdSzDYljUDHjh1rbyUbPHhwmunmEMidwMsvvxw9e/aM5557Lne5lTWhHXbYoXYh+wc/+MGylqguAgQIEMiZgMZOzjZEOgQIEHirwIoVK6Jv376xbt26t/7az00U6NatW+1I1jbbbNPEKJYmkI3A8OHDY/r06dkEE6Um8IMf/CASdw8BAgQIEMhKQGMnK2lxCBAgkFJg4sSJcckll6ScbVoagQsvvDCSo3AeAkUWePDBByM5ErRp06Yil1Go3IcOHRqJe3Ihu4cAAQIECGQloLGTlbQ4BAgQSCmwYcOGGDRoUMyfPz/lCqY1KpAcyUreSpa4ewgUUWDNmjXRq1evWLVqVRHTL2TO2223Xe0I1oc+9KFC5i9pAgQIECiugMZOcfdO5gQIVEhg+fLl0a9fv1i/fn2Fqm5tqfvss08sWrQounTp0tpERCeQQmDEiBExbdq0FDNNSSvw/e9/PxJ3DwECBAgQyFpAYydrcfEIECCQUmD8+PFx2WWXpZxtWhqBiy++OJKjcB4CRRKYOXNmJEeCHMHKbtcOP/zwSNwdwcrOXCQCBAgQ+IuAxs5fLPxEgACBXAu8+eabcfDBB8evfvWrXOdZpuQ6deoUc+fOjQEDBpSpLLWUWGDt2rW1I1jPPvtsiavMV2nbbrtt7cL1D3/4w/lKTDYECBAgUBkBjZ3KbLVCCRAog8DSpUujf//+8frrr5ehnELU0L1793jyySejc+fOhchXktUWGDlyZEydOrXaCBlX/93vfje+8IUvZBxVOAIECBAg8BcBjZ2/WPiJAAEChRC4+uqr4/LLLy9ErmVJcsyYMfHNb36zLOWoo6QCyYXfyZEgR7Cy2+BDDz00HnnkkUguXPcQIECAAIFWCWjstEpeXAIECKQUeOONN+Kggw6Kp556KuUKpjUqsMUWW8S8efPigAMOaHSq8QQyEXjllVeiT58+sXLlykziCRKxzTbbxOLFi+MjH/kIDgIECBAg0FIBjZ2W8gtOgACBdALJf0wkTYakyePJRqBnz561+4223nrrbAKKQqABgVGjRsWUKVMamGFoWwW+/e1vx0UXXdTWZcwnQIAAAQJtFtDYaTOhBQgQINAagXHjxsWVV17ZmuAVjTp27Ni46qqrKlq9svMqkFzwPXjw4Ni4cWNeUyxdXgMHDoxHH33UEazS7ayCCBAgUEwBjZ1i7pusCRAgULtAOfnWzpIlS2hkJLDlllvG/Pnzo1+/fhlFFIbAuwusW7cu+vbtGytWrHj3gT5tN4EuXbrUjsJ+7GMfa7c1LUSAAAECBNoioLHTFj1zCRAg0GKB5G1NyX07yavQPdkIJPeYLFiwIJImj4dAqwVGjx4dkyZNanUalYr/r//6r3HJJZdUqmbFEiBAgEC+BTR28r0/siNAgMBmBZLjQddcc81mxxnQfgLJMbgrrrii/Ra0EoEUAsm3xwYNGhQbNmxIMduUNAJJI/2xxx6LTp06pZluDgECBAgQaIqAxk5TWC1KgACB7ARee+216N+/fyxbtiy7oBWPtNVWW9W+tdO7d++KSyi/VQLr16+vHQlcvnx5q1KoXNzk4vTkW5If//jHK1e7ggkQIEAg3wIaO/neH9kRIECgLoFf/vKXkVzm6f+5r4urXQYl9+w88cQTkbwK3UMga4ExY8bEhAkTsg5b6Xjf+MY34rLLLqu0geIJECBAIJ8CGjv53BdZESBAoGEB/6HXMFmbJ1x99dXx1a9+tc3rWIBAIwLJHU9JI9fdWo2otW3s/vvvH48//rhGbtsYzSZAgACBJglo7DQJ1rIECBDIWiA5mrHffvvFr3/966xDVzZecjRj4cKF0aNHj8oaKDxbgeToZdJkWLp0abaBKxwtOXr5q1/9Knr16lVhBaUTIECAQJ4FNHbyvDtyI0CAQIMCyf+jfMghhziS1aBbW4Ynr5yfN2+e/ye/LYjm1i3gsvS6qdpt4Ne//vW4/PLL2209CxEgQIAAgfYW0Nhpb1HrESBAoMUCF198cXz7299ucRbVCj9+/Pi49NJLq1W0ajMXSC7uTd7K5AhWdvTJtyCTu7S23HLL7IKKRIAAAQIEGhTQ2GkQzHACBAjkXWDdunXRp0+f+M1vfpP3VEuTX+fOnWtvy+nevXtpalJIvgRef/31OPDAA2Px4sX5SqzE2STNnORi+r59+5a4SqURIECAQBkENHbKsItqIECAwN8IzJ07NwYPHhwbN278m0/8tVkCAwYMiMS9U6dOzQph3QoLjBs3Lq688soKC2Rf+te+9jXm2bOLSIAAAQIpBDR2UqCZQoAAgSIIXHjhhfHd7363CKmWJseJEydGchTOQ6A9BZJv6SR3Ob3xxhvtuay13kWgd+/ekbx9LLk42UOAAAECBPIuoLGT9x2SHwECBFIKvPLKK7UjWStXrky5gmmNCnTp0iUWLVoU++yzT6NTjSfwtgJJMyf5Nlhyv44nG4Etttgi5s+fH/37988moCgECBAgQKCNAho7bQQ0nQABAnkWmD17dgwZMiQ2bdqU5zRLldugQYNizpw50bFjx1LVpZjWCFx99dXeyJQx/Ve+8pW45pprMo4qHAECBAgQSC+gsZPezkwCBAgUQuCCCy6I6667rhC5liXJyZMnR3IUzkOgLQJLly6N/fffP1577bW2LGNuAwI9evSIhQsXxtZbb93ALEMJECBAgEBrBTR2WusvOgECBJousHbt2ujVq1c8++yzTY8lwP8JbLvttrW3F3Xr1g0JgVQCySvNBw4cWLvnJdUCJjUskFx8Pm/evNrbxxqebAIBAgQIEGihgMZOC/GFJkCAQFYCM2fOjKFDhzqSlRX4/8ZJ3kr2yCOPRIcOHTKMKlRZBMaPHx+XXXZZWcopRB1f/vKXY8KECYXIVZIECBAgQOCtAho7b9XwMwECBEoscP7558cNN9xQ4grzV9q1114byVE4D4FGBJYvXx79+vWL9evXNzLN2DYI7LvvvvHUU09F586d27CKqQQIECBAoDUCGjutcReVAAECmQusWbOmdiRr1apVmceuasCuXbvG008/HXvttVdVCdTdoMCGDRsiuYA7eSuTJxuB5AjWL37xi9rRt2wiikKAAAECBNpXQGOnfT2tRoAAgVwLPPjgg3Hsscc6kpXhLh1xxBHx8MMPO5KVoXmRQ02aNClGjx5d5BIKl/uXvvSlSNw9BAgQIECgqAIaO0XdOXkTIEAgpcCwYcPipptuSjnbtDQC119/fSRH4TwE3k1gxYoV0bdv31i3bt27DfNZOwp89KMfjUWLFsU222zTjqtaigABAgQIZCugsZOtt2gECBBoucAf/vCH6NmzZ/zud79reS5VSWD77bevHcnac889q1KyOhsU2LhxY+3C7blz5zY40/C0Ah07dozZs2fHIYccknYJ8wgQIECAQC4ENHZysQ2SIECAQLYC9913X5xwwgnZBq14tKOPPjp+9rOfOZJV8X8H71T+lClTYtSoUe/0sd83QeCLX/xiJO4eAgQIECBQdAGNnaLvoPwJECCQUuCcc86JW265JeVs09II3HjjjZEchfMQeKvAypUro3fv3vHqq6++9dd+bqLAhz/84ViyZElsu+22TYxiaQIECBAgkI2Axk42zqIQIEAgdwKrV6+OHj16xPPPP5+73Mqa0A477BBLly6NPfbYo6wlqqtBgU2bNsXhhx8ec+bMaXCm4WkFOnToELNmzYrDDjss7RLmESBAgACBXAlo7ORqOyRDgACBbAXuueeeOPnkk7MNWvFoxx13XCRH4TwEEoGpU6fGyJEjYWQo8C//8i9x3XXXZRhRKAIECBAg0FwBjZ3m+lqdAAECuRc466yz4vbbb899nmVK8Oabb47kKJyn2gLPPPNM7QjW2rVrqw2RYfV77bVX7QjWdtttl2FUoQgQIECAQHMFNHaa62t1AgQI5F7gpZdeqh3JeuGFF3Kfa1kS3GmnnWLZsmWx2267laUkdTQokBzBGjp0aMycObPBmYanFUiOYD300ENx5JFHpl3CPAIECBAgkEsBjZ1cboukCBAgkK3AXXfdFaeddlq2QSse7cQTT4zkKJynmgLTpk2LESNGVLP4FlX9z//8z3HDDTe0KLqwBAgQIECgeQIaO82ztTIBAgQKJXD66afHnXfeWaici57sbbfdFmeeeWbRy5B/gwKrVq2KXr16xZo1axqcaXhagQ9+8IO1i8u33377tEuYR4AAAQIEciugsZPbrZEYAQIEshV48cUXa0eykj892QjssssutSNZ73vf+7IJKErLBZIjWMccc0ztSFDLk6lQAj/72c9q7hUqWakECBAgUCEBjZ0KbbZSCRAgsDmBO+64I84444zNDfN5OwqccsopkRyF81RDYPr06TF8+PBqFJuTKv/pn/4pbrrpppxkIw0CBAgQIND+Aho77W9qRQIECBRa4NRTT42777670DUULfmkofbpT3+6aGnLt0GB5557Lnr27Bkvv/xygzMNTyvwgQ98oHYEa8cdd0y7hHkECBAgQCD3Aho7ud8iCRIgQCBbgeTtWD169IjkbVmebAR23XXX2pGs5E9PeQWOP/74uP/++8tbYA4r+6//+q844YQTcpiZlAgQIECAQPsJaOy0n6WVCBAgUBqB5FLfs88+uzT1FKGQ5Bs7yTd3POUUmDFjRpx77rnlLC6nVf3jP/5j3HLLLTnNTloECBAgQKD9BDR22s/SSgQIECiVwEknnRT33ntvqWrKezHJXTvJnTuecgn8/ve/rx3BWr16dbkKy3E1u+22W+0I1s4775zjLKVGgAABAgTaR0Bjp30crUKAAIHSCfiP0ey3NHk71rJlyyJ5W5anPAKapNnv5X/+53/GySefnH1gEQkQIECAQAsENHZagC4kAQIEiiLg+Ej2O3XWWWfFrbfemn1gEZsi4FhjU1jfddHPfOYzcfvtt7/rGB8SIECAAIEyCWjslGk31UKAAIEmCLjwtQmom1nynnvuiRNPPHEzo3ycdwEXkWe/Q+9973tr33p7z3vek31wEQkQIECAQIsENHZaBC8sAQIEiiLgFc3Z71RyP0hyJGunnXbKPriI7SZw6qmnxt13391u61lo8wL/8R//EaeddtrmBxpBgAABAgRKJKCxU6LNVAoBAgSaJTB9+vQYPnx4s5a37tsInHPOOXHzzTe/zSd+VQSB5A1nZ5xxRhFSLU2O//AP/xB33nlnaepRCAECBAgQqFdAY6deKeMIECBQYYFNmzbFMcccEw899FCFFbIv/b777ovjjjsu+8AitkngxRdfjB49ekTypycbgeToVfItt+QolocAAQIECFRNQGOnajuuXgIECKQUWLVqVe2VzX/84x9TrmBaowJ77LFH7ZXNO+ywQ6NTjW+hwOmnn+6bIxn7//u//7tvSGVsLhwBAgQI5EdAYyc/eyETAgQI5F5g2rRpMWLEiNznWaYEhw0bFjfeeGOZSip1LXfddZc7XjLe4U996lPuMsrYXDgCBAgQyJeAxk6+9kM2BAgQyLVAciTryCOPjFmzZuU6zzIl16FDh3jggQfiqKOOKlNZpazlpZdeqh3BSt6G5clGYOedd64dwXr/+9+fTUBRCBAgQIBADgU0dnK4KVIiQIBAngWeeeaZ6N27d6xduzbPaZYqtz333DOefvrp2H777UtVV9mKOeuss+L2228vW1m5ruff/u3f4uyzz851jpIjQIAAAQLNFtDYabaw9QkQIFBCgalTp8bIkSNLWFl+Szr//PPj+uuvz2+CFc/snnvuiZNPPrniCtmW/8lPfjLuvffebIOKRoAAAQIEciigsZPDTZESAQIE8i6wcePGGDJkSMyZMyfvqZYmv+RI1sMPPxxHHHFEaWoqSyGrV6+uHcF6/vnny1JS7uvYaaedaheL77777rnPVYIECBAgQKDZAho7zRa2PgECBEoq8Nvf/jb69OkTr776akkrzF9Ze++9dyxZsiS6du2av+QqnNE555wTt9xyS4UFsi/9hz/8YZx77rnZBxaRAAECBAjkUEBjJ4ebIiUCBAgURWDy5Mlx0UUXFSXdUuR5wQUXxLXXXluKWspQxH333RcnnHBCGUopTA3HHnts3H///YXJV6IECBAgQKDZAho7zRa2PgECBEoskBzJOvTQQ+Oxxx4rcZX5Ki05kvXII4/E4MGD85VYBbP5wx/+EL169YrnnnuugtW3puQddtihdpH4Bz/4wdYkICoBAgQIEMihgMZODjdFSgQIECiSwIoVK6Jv376xbt26IqVd6Fy7desWixcvjm233bbQdRQ9+WHDhsVNN91U9DIKlf8PfvCDGD58eKFyliwBAgQIEGi2gMZOs4WtT4AAgQoITJw4MS655JIKVJqfEi+88MJIjsJ5WiPw4IMPRnIkaNOmTa1JoIJRhw4dGol78q01DwECBAgQIPAXAY2dv1j4iQABAgRSCmzYsCEGDRoU8+fPT7mCaY0KdOzYsfZWssTdk63AmjVrakewVq1alW3gCkfbbrvtakewPvShD1VYQekECBAgQODtBTR23t7FbwkQIECgQYHly5dHv379Yv369Q3ONDytwD777BOLFi2KLl26pF3CvBQC559/ftxwww0pZpqSVuD73/9+jBgxIu108wgQIECAQKkFNHZKvb2KI0CAQLYC48ePj8suuyzboBWPdvHFF0dyFM6TjcDMmTMjORLkCFY23kmUIUOGxM9//nNHsLIjF4kAAQIECiagsVOwDZMuAQIE8izw5ptvxsCBA2PBggV5TrNUuXXq1Cnmzp0bAwYMKFVdeSxm7dq1tSNYzz77bB7TK2VOXbt2jSVLlsTee+9dyvoURYAAAQIE2kNAY6c9FK1BgAABAn8WWLp0afTv3z9ef/31P//OD80V6N69ezz55JPRuXPn5gaq+OojR46MqVOnVlwh2/K/973vReLuIUCAAAECBN5ZQGPnnW18QoAAAQIpBa6++uq4/PLLU842LY3ApZdeGslROE9zBGbPnl07EuQIVnN8327VQw89NB555JFILgr3ECBAgAABAu8soLHzzjY+IUCAAIGUAm+88UYcdNBB8dRTT6VcwbRGBbbYYouYN29eHHDAAY1ONX4zAq+88kr06dMnVq5cuZmRPm4vgW222SYWL14cH/nIR9prSesQIECAAIHSCmjslHZrFUaAAIHWCiT/UZY0GZImjycbgZ49e8avfvWr2HrrrbMJWJEoo0aNiilTplSk2nyU+Z3vfCcSdw8BAgQIECCweQGNnc0bGUGAAAECKQXGjRsXV155ZcrZpqUR+OpXvxrJUThP+wgkF1MPHjw4Nm7c2D4LWmWzAp/4xCfiF7/4hSNYm5UygAABAgQI/J+Axo5/CQQIECDQNIHkAuXkWzvJW2082QgkR7KeeOKJ6NevXzYBSxxl3bp10bdv31ixYkWJq8xXaV26dKkd4fzYxz6Wr8RkQ4AAAQIEciygsZPjzZEaAQIEyiCQvK0puW8neRW6JxuB5D6YX/7yl7HVVltlE7CkUUaPHh2TJk0qaXX5LOtb3/pWJO4eAgQIECBAoH4BjZ36rYwkQIAAgZQCY8eOjWuuuSblbNPSCFxxxRWRHIXzpBN4/PHH45BDDokNGzakW8CshgWSBvBjjz0WnTp1aniuCQQIECBAoMoCGjtV3n21EyBAICOB1157Lfr37x/Lli3LKKIwW265ZSxYsKD2NicajQmsX78+9ttvv/j1r3/d2ESjUwskF34n3+77+Mc/nnoNEwkQIECAQFUFNHaquvPqJkCAQMYCSZPh4IMP9g2IDN2Te3aS+3aSe3c89QuMGTMmJkyYUP8EI9ss8I1vfCMuu+yyNq9jAQIECBAgUEUBjZ0q7rqaCRAg0CIB/8GcPfxVV10VyVE4T30CGpD1ObXnqP333z+So28akO2pai0CBAgQqJKAxk6VdlutBAgQaLGAIy7Zb0ByxOVXv/pV9OzZM/vgBYvoyGD2G5Zc8J38++zVq1f2wUUkQIAAAQIlEdDYKclGKoMAAQJFEXApbfY7lbxyft68eb4RsRl6l3xvBqgJH3/961+Pyy+/vAkrW5IAAQIECFRHQGOnOnutUgIECORGwGuks9+K8ePHx6WXXpp94IJETC7uTd7K9OabbxYk4+KnmVxQndwBlVz07SFAgAABAgTSC2jspLczkwABAgRSCqxbty769u0bK1asSLmCaY0KdO7cufbWoe7duzc6tfTjX3/99Ui+1bRkyZLS15qXApNmzi9/+cva/w7kJSd5ECBAgACBogpo7BR15+RNgACBggvMnTs3Bg8eHBs3bix4JcVJf8CAAZG4d+rUqThJZ5DpuHHj4sorr8wgkhB/Evja177G/E8Y/iRAgAABAm0U0NhpI6DpBAgQIJBeYNSoUTFlypT0C5jZsMDEiRPj4osvbnheWScsXry49m2dN954o6wl5q6u3r17R/L2seTiZA8BAgQIECDQdgGNnbYbWoEAAQIEUgq88sor0adPn1i5cmXKFUxrVKBLly6xaNGi2GeffRqdWrrxSTMnuVfnqaeeKl1teS0oeaX5/Pnzo3///nlNUV4ECBAgQKBwAho7hdsyCRMgQKBcArNnz44hQ4bEpk2bylVYjqsZNGhQzJkzJzp27JjjLJuf2tVXX+2NTM1n/qsIX/nKV+Kaa675q9/5CwECBAgQINA2AY2dtvmZTYAAAQLtIDBy5MiYOnVqO6xkiXoFJk+eHBdeeGG9w0s3bunSpbVvjSQXJ3uyEejRo0csXLgwtt5662wCikKAAAECBCoioLFTkY1WJgECBPIssHbt2ujVq1c8++yzeU6zVLlts802tbdAdevWrVR11VNM8krzgQMH1u55qWe8MW0XSC7snjdvXhx44IFtX8wKBAgQIECAwF8JaOz8FYe/ECBAgECrBGbOnBlDhw51JCvDDUjeSvbII49Ehw4dMoza+lDjx4+Pyy67rPWJVCiDL3/5yzFhwoQKVaxUAgQIECCQnYDGTnbWIhEgQIDAZgTOP//8uOGGGzYzysftKXDttdfGBRdc0J5L5nqt5cuXR79+/WL9+vW5zrNMye277761C6o7d+5cprLUQoAAAQIEciOgsZObrZAIAQIECKxZs6Z2JGvVqlUwMhLo2rVr7UjW3nvvnVHE1oXZsGFDJBdHJ29l8mQjkBzBevTRR+Pggw/OJqAoBAgQIECgggIaOxXcdCUTIEAgzwIPPvhgHHvssY5kZbhJRxxxRDz88MOlP5I1ceLEuOSSSzKUFepLX/pSTJo0CQQBAgQIECDQRAGNnSbiWpoAAQIE0gkMGzYsbrrppnSTzUolcP3110dyFK6sz4oVK6Jv376xbt26spaYu7o++tGPxuLFi6NLly65y01CBAgQIECgTAIaO2XaTbUQIECgJAIvv/xy9OzZM5577rmSVJT/Mrbffvt4+umnY88998x/sg1muHHjxjj00EPjsccea3Cm4WkFOnbsGLNnz45DDjkk7RLmESBAgAABAnUKaOzUCWUYAQIECGQrcN9998UJJ5yQbdCKRzvqqKPigQceKN2RrMmTJ8dFF11U8d3NtvwvfvGLMWXKlGyDikaAAAECBCoqoLFT0Y1XNgECBIogcM4558Qtt9xShFRLk+ONN94YyVG4sjy//e1vo0+fPvHqq6+WpaTc1/HhD3+4diH3tttum/tcJUiAAAECBMogoLFThl1UAwECBEoqsHr16ujRo0c8//zzJa0wf2XtsMMOsXTp0thjjz3yl1yDGSVHsIYMGRJz5sxpcKbhaQU6dOgQs2bNisMOOyztEuYRIECAAAECDQpo7DQIZjgBAgQIZCtw7733xkknnZRt0IpHO+644yI5Clf059prr40vfOELRS+jUPl//vOfj6lTpxYqZ8kSIECAAIGiC2jsFH0H5U+AAIEKCJx11llx++23V6DS/JR48803R3IUrqjPM888E7179461a9cWtYTC5b3XXnvVLuDu2rVr4XKXMAECBAgQKLKAxk6Rd0/uBAgQqIjASy+9VDuS9cILL1Sk4taXudNOO9WOZO2+++6tT6bBDDZt2hRHHnlk7UhQg1MNTymQHMF66KGHau4plzCNAAECBAgQSCmgsZMSzjQCBAgQyFbgrrvuitNOOy3boBWPduKJJ8Y999xTOIVp06bFiBEjCpd3kRP+3Oc+F4m7hwABAgQIEMheQGMne3MRCRAgQCClwOmnnx533nlnytmmpRG49dZbIzkKV5Tnv//7v6NXr17xxz/+sSgpFz7PPffcs3YEa/vtty98LQogQIAAAQJFFNDYKeKuyZkAAQIVFXjxxRdrR7KSPz3ZCOyyyy6xbNmyeN/73pdNwDZESY5gHXPMMbUjQW1YxtQGBR544IE4+uijG5xlOAECBAgQINBeAho77SVpHQIECBDIROCOO+6IM844I5NYgvyfwCmnnBLJUbi8P9OnT4/hw4fnPc1S5XfeeedF4u4hQIAAAQIEWiegsdM6e5EJECBAIKXAqaeeGnfffXfK2aalEfjRj34UyVG4vD7PPfdc9OzZM15++eW8pli6vD7wgQ/ULtjecccdS1ebgggQIECAQJEENHaKtFtyJUCAAIGaQPJ2rB49ekTytixPNgK77rpr7UhW8mcen+OPPz7uv//+PKZW2px++tOfRuLuIUCAAAECBForoLHTWn/RCRAgQCClwG233RZnn312ytmmpRH49Kc/HclRuLw9M2bMiHPPPTdvaZU6n89+9rORuHsIECBAgACB1gto7LR+D2RAgAABAikFTjrppLj33ntTzjYtjcCPf/zjSI7C5eX5/e9/XzuCtXr16rykVPo8dtttt9oRrJ133rn0tSqQAAECBAgUQUBjpwi7JEcCBAgQeFsB/1H/tixN/WXydqzkLVnJ27Ly8GjuZb8LP/nJTyJx9xAgQIAAAQL5ENDYycc+yIIAAQIEUgo4hpMSrg3TzjzzzEiOwrX6cRwv+x34zGc+E7fffnv2gUUkQIAAAQIE3lFAY+cdaXxAgAABAkURcHFu9jt1zz33xIknnph94P8f8X/+539qR7BcoJ3dFiTf1lq6dGm85z3vyS6oSAQIECBAgMBmBTR2NktkAAECBAjkXcCrrrPfoeSeleRI1k477ZR98O73wFkAACmpSURBVP+N6JX32bPn7X6l7AVEJECAAAEC+RTQ2MnnvsiKAAECBBoUmD59egwfPrzBWYa3RaBVb0ZK3sx1xhlntCV1cxsUOOWUU+Kuu+5qcJbhBAgQIECAQBYCGjtZKItBgAABAk0X2LRpUxxzzDHx0EMPNT2WAH8R+OlPfxrJUbisnhdffDF69OgRyZ+ebASSi7KTb2clR7E8BAgQIECAQP4ENHbytycyIkCAAIGUAqtWrYpevXrFmjVrUq5gWqMCe+yxR+3elR122KHRqanGn3766XHnnXemmmtSOoHkkurkwmwPAQIECBAgkE8BjZ187ousCBAgQCClwLRp02LEiBEpZ5uWRuC8886L5Chcs5/kKNBpp53W7DDWf4tAckF2clG2hwABAgQIEMivgMZOfvdGZgQIECCQQiA5kjV06NCYOXNmitmmpBHo0KFD/OxnP4ujjz46zfS65iRvv0qOYL3wwgt1jTeo7QLJxdjJEazkomwPAQIECBAgkF8BjZ387o3MCBAgQCClwDPPPBO9e/eOtWvXplzBtEYF9txzz3j66adj++23b3RqXePPOuusuP322+saa1D7CMyYMSOSC7I9BAgQIECAQL4FNHbyvT+yI0CAAIGUAlOnTo2RI0emnG1aGoHPfe5zkRyFa+8nOQp08sknt/ey1nsXgeRC7ORibA8BAgQIECCQfwGNnfzvkQwJECBAIIVAciTr8MMPjzlz5qSYbUoageRI1sMPPxxHHHFEmulvO2f16tW1I1jPP//8237ul+0vkFyEvXTp0kguxvYQIECAAAEC+RfQ2Mn/HsmQAAECBFIKrFy5snYk69VXX025gmmNCuy11161I1ldu3ZtdOrbjj/nnHPilltuedvP/LI5AslF2MmF2B4CBAgQIECgGAIaO8XYJ1kSIECAQEqBKVOmxKhRo1LONi2NwAUXXBDXXnttmql/Nee+++6LE0444a9+5y/NFUguwE4uwk6+feUhQIAAAQIEiiGgsVOMfZIlAQIECKQU2LhxYwwePDjmzp2bcgXTGhVImgKzZs2Kww47rNGpfx7/hz/8IXr27Bm/+93v/vw7PzRXILn4OrkAO7kI20OAAAECBAgUR0Bjpzh7JVMCBAgQSCmwYsWK6Nu3b6xbty7lCqY1KtCtW7dYvHhxbLvtto1OrY0fNmxY3HTTTanmmpRO4Prrr4/zzz8/3WSzCBAgQIAAgZYJaOy0jF5gAgQIEMhSYNKkSTF69OgsQ1Y+1oUXXhiTJ09u2OHBBx+MY445puF5JqQXSC68Ti6+dgQrvaGZBAgQIECgVQIaO62SF5cAAQIEMhXYsGFDDBo0KObPn59p3CoH69ixY+2tZIl7vc+aNWuiV69esWrVqnqnGNdGgeSi6+QIVnLxtYcAAQIECBAonoDGTvH2TMYECBAgkFJg+fLl0a9fv1i/fn3KFUxrVGCfffaJRYsWRZcuXeqamhwFuuGGG+oaa1D7CCQXXScXXnsIECBAgACBYgpo7BRz32RNgAABAikFJkyYEGPGjEk527Q0AhdffHFMnDhxs1NnzpwZQ4cOjU2bNm12rAHtI5BcLP7II484gtU+nFYhQIAAAQItEdDYaQm7oAQIECDQKoE333wzBg4cGAsWLGhVCpWL26lTp3j00Ufj4IMPfsfa165dWzuC9eyzz77jGB+0r0BysXVywXVy0bWHAAECBAgQKK6Axk5x907mBAgQIJBSYOnSpbH//vvHa6+9lnIF0xoV2HfffeOpp56Kzp07v+3U5CjQdddd97af+WVzBJKLrZMLrj0ECBAgQIBAsQU0doq9f7InQIAAgZQCV199dVx++eUpZ5uWRuDSSy+N8ePH/93U2bNnx5AhQxzB+juZ5v0iudB6zpw5kVxw7SFAgAABAgSKLaCxU+z9kz0BAgQIpBR44403YsCAAfHkk0+mXMG0RgWSI1mPP/54HHDAAX+e+sorr0SfPn1i5cqVf/6dH5orkFxknVxonVxs7SFAgAABAgSKL6CxU/w9VAEBAgQIpBRI7hdJmgxJk8eTjUCPHj1i4cKFsfXWW9cCJkeBvvvd72YTXJSaQHKRdXKhtYcAAQIECBAoh4DGTjn2URUECBAgkFJg3LhxceWVV6acbVoaga9+9auRHIWbO3duJG9l2rhxY5plzEkhkFxgnVxknXx7ykOAAAECBAiUQ0Bjpxz7qAoCBAgQSCnw+uuvx4EHHlh7O1DKJUxrUGCLLbaovWL7vPPOi9/85jcNzjY8rUBycXVy9LB79+5plzCPAAECBAgQyKGAxk4ON0VKBAgQIJCtQPIfuwcddFAkr0L3ECirQHJxdXKBtYcAAQIECBAol4DGTrn2UzUECBAgkFJg7Nixcc0116ScbRqBfAskd0nNmzcvkm9LeQgQIECAAIFyCWjslGs/VUOAAAECKQVee+212H///WPp0qUpVzCNQD4Fkouqkwurk4urPQQIECBAgED5BDR2yrenKiJAgACBlAILFiyIgQMHOpKV0s+0fAokF1UnF1Z7CBAgQIAAgXIKaOyUc19VRYAAAQIpBcaMGRMTJkxIOds0AvkS6NevXzzxxBOOYOVrW2RDgAABAgTaVUBjp105LUaAAAECRRdYv359JP8xvHz58qKXIv+KC2y11VaRfAutd+/eFZdQPgECBAgQKLeAxk6591d1BAgQIJBCYP78+TFo0KDYsGFDitmmEMiHwLhx4+KKK67IRzKyIECAAAECBJomoLHTNFoLEyBAgECRBUaPHh2TJk0qcglyr7BAnz59at/W2XLLLSusoHQCBAgQIFANAY2dauyzKgkQIECgQYF169ZF3759Y8WKFQ3ONJxAawWSZk7yrbPkSKGHAAECBAgQKL+Axk7591iFBAgQIJBSYO7cuTF48ODYuHFjyhVMI5C9wNixY+Oqq67KPrCIBAgQIECAQEsENHZawi4oAQIECBRFYNSoUTFlypSipCvPigv07NkzFi5cGMnFyR4CBAgQIECgGgIaO9XYZ1USIECAQEqBV155JZL7SlauXJlyBdMIZCOwxRZbxLx58+KAAw7IJqAoBAgQIECAQC4ENHZysQ2SIECAAIE8C8yZMycOP/zw2LRpU57TlFvFBcaMGRPf/OY3K66gfAIECBAgUD0BjZ3q7bmKCRAgQCCFwMiRI2Pq1KkpZppCoPkC3bt3jyeffDI6d+7c/GAiECBAgAABArkS0NjJ1XZIhgABAgTyKrB27dro3bt3PPPMM3lNUV4VFejUqVMkF30PGDCgogLKJkCAAAEC1RbQ2Kn2/queAAECBBoQmDlzZgwdOtSRrAbMDG2+wOjRo+Nb3/pW8wOJQIAAAQIECORSQGMnl9siKQIECBDIq8CIESNi2rRpeU1PXhUT2GeffWLRokXRpUuXilWuXAIECBAgQOBPAho7f5LwJwECBAgQqENgzZo10atXr1i1alUdow0h0DyBjh07xi9+8Yv4xCc+0bwgViZAgAABAgRyL6Cxk/stkiABAgQI5E3goYceimOOOcaRrLxtTMXyufDCC2Py5MkVq1q5BAgQIECAwN8KaOz8rYi/EyBAgACBOgSGDx8e06dPr2OkIQTaX6Bbt26xZMmS2Gabbdp/cSsSIECAAAEChRLQ2CnUdkmWAAECBPIi8PLLL0fPnj3jueeey0tK8qiIQHIEa9asWTF48OCKVKxMAgQIECBA4N0ENHbeTcdnBAgQIEDgXQTuv//+OP74499lhI8ItL/ABRdcENdee237L2xFAgQIECBAoJACGjuF3DZJEyBAgEBeBM4999yYMWNGXtKRR8kF9t5779oRrK5du5a8UuURIECAAAEC9Qpo7NQrZRwBAgQIEHgbgdWrV0ePHj3i+eeff5tP/YpA+wl06NAhfv7zn8eQIUPab1ErESBAgAABAoUX0Ngp/BYqgAABAgRaLXDvvffGSSed1Oo0xC+5wPnnnx/XX399yatUHgECBAgQINCogMZOo2LGEyBAgACBtxE4++yz47bbbnubT/yKQNsF9txzz1i6dGlst912bV/MCgQIECBAgECpBDR2SrWdiiFAgACBVgm89NJLtSNZL7zwQqtSELekAskRrAceeCCOOuqoklaoLAIECBAgQKAtAho7bdEzlwABAgQIvEXg7rvvjlNPPfUtv/EjgbYLDBs2LG688ca2L2QFAgQIECBAoJQCGjul3FZFESBAgECrBE4//fS48847WxVe3JIJ7LHHHrUjWDvssEPJKlMOAQIECBAg0F4CGjvtJWkdAgQIECDwvwIvvvhi7UhW8qeHQFsF7rvvvjjuuOPauoz5BAgQIECAQIkFNHZKvLlKI0CAAIHWCCTf2Em+ueMh0BaBc845J26++ea2LGEuAQIECBAgUAEBjZ0KbLISCRAgQCB7geSuneTOHQ+BNAK777577QjWTjvtlGa6OQQIECBAgECFBDR2KrTZSiVAgACB7ASSt2P16NEjkrdleQg0KnDPPffEiSee2Og04wkQIECAAIEKCmjsVHDTlUyAAAEC2QjcfvvtcdZZZ2UTTJTSCCT/Zm699dbS1KMQAgQIECBAoLkCGjvN9bU6AQIECFRc4KSTTop777234grKr1fgfe97Xyxbtix22WWXeqcYR4AAAQIECFRcQGOn4v8AlE+AAAECzRV4/vnna0eyVq9e3dxAVi+FwF133RWnnHJKKWpRBAECBAgQIJCNgMZONs6iECBAgECFBWbMmBHnnntuhQWUXo9A8ia1H/3oR/UMNYYAAQIECBAg8GcBjZ0/U/iBAAECBAg0T+D444+P+++/v3kBrFxogV133bV2BCv500OAAAECBAgQaERAY6cRLWMJECBAgEBKgeeeey569uwZL7/8csoVTCuzwB133BGf/vSny1yi2ggQIECAAIEmCWjsNAnWsgQIECBA4G8Fpk+fHsOHD//bX/t7xQVOPfXU+PGPf1xxBeUTIECAAAECaQU0dtLKmUeAAAECBBoU2LRpUxx77LHx4IMPNjjT8LIKJG+/St6ClbwNy0OAAAECBAgQSCOgsZNGzRwCBAgQIJBSYNWqVdGrV69Ys2ZNyhVMK5PAbbfdFmeeeWaZSlILAQIECBAgkLGAxk7G4MIRIECAAIFp06bFiBEjQFRc4KSTToqf/OQnFVdQPgECBAgQINBWAY2dtgqaT4AAAQIEGhRIjmQNHTo0Zs6c2eBMw8sisNNOO9WOYO22225lKUkdBAgQIECAQIsENHZaBC8sAQIECFRb4Nlnn60dyVq7dm21ISpa/YwZM+Kzn/1sRatXNgECBAgQINCeAho77alpLQIECBAg0IDA1KlTY+TIkQ3MMLQMAscff3z89Kc/LUMpaiBAgAABAgRyIKCxk4NNkAIBAgQIVFMgOZJ1+OGHx5w5c6oJUMGqd9xxx1i6dGl84AMfqGD1SiZAgAABAgSaIaCx0wxVaxIgQIAAgToFVq5cGX369IlXXnmlzhmGFVlg+vTpcd555xW5BLkTIECAAAECORPQ2MnZhkiHAAECBKonMGXKlBg1alT1Cq9YxUcffXT87Gc/iw4dOlSscuUSIECAAAECzRTQ2GmmrrUJECBAgEAdAhs3bozBgwfH3Llz6xhtSBEFtt9++3j66adjzz33LGL6ciZAgAABAgRyLKCxk+PNkRoBAgQIVEdgxYoV0bdv31i3bl11iq5QpdOmTYvPfe5zFapYqQQIECBAgEBWAho7WUmLQ4AAAQIENiMwadKkGD169GZG+bhoAkcccUQ8/PDDjmAVbePkS4AAAQIECiKgsVOQjZImAQIECJRfYMOGDTFo0KCYP39++YutSIVdu3atHcHaa6+9KlKxMgkQIECAAIGsBTR2shYXjwABAgQIvIvA8uXLo1+/frF+/fp3GeWjoghMnTo1Pv/5zxclXXkSIECAAAECBRTQ2CngpkmZAAECBMotMGHChBgzZky5i6xAdYcddljMmjXLEawK7LUSCRAgQIBAKwU0dlqpLzYBAgQIEHgbgTfffDMGDhwYCxYseJtP/aoIAttuu20sXrw4unXrVoR05UiAAAECBAgUWEBjp8CbJ3UCBAgQKK/AsmXLon///vHaa6+Vt8gSVzZlypT44he/WOIKlUaAAAECBAjkRUBjJy87IQ8CBAgQIPA3Atdcc02MHTv2b37rr3kXSC7AnjNnTnTs2DHvqcqPAAECBAgQKIGAxk4JNlEJBAgQIFBOgeRI1kEHHRRPPvlkOQssYVVdunSJRYsWxT777FPC6pREgAABAgQI5FFAYyePuyInAgQIECDw/wWSe1oOPPDAeP3115kUQGDixIlx8cUXFyBTKRIgQIAAAQJlEdDYKctOqoMAAQIESitw5ZVXxrhx40pbX1kKO/jgg+PRRx+NTp06laUkdRAgQIAAAQIFENDYKcAmSZEAAQIEqi3wxhtvxAEHHFB7y1K1JfJbfefOneOpp56KfffdN79JyowAAQIECBAopYDGTim3VVEECBAgUDaB5J6dAQMGRNLk8eRPYPz48XHppZfmLzEZESBAgAABAqUX0Ngp/RYrkAABAgTKInD55ZfH1VdfXZZySlNHcgfSvHnzHMEqzY4qhAABAgQIFEtAY6dY+yVbAgQIEKiwwGuvvRb7779/LF26tMIK+Sp96623joULF0aPHj3ylZhsCBAgQIAAgcoIaOxUZqsVSoAAAQJlEFiwYEEMHDgwklehe1ovkHyD6qtf/WrrE5EBAQIECBAgUFkBjZ3Kbr3CCRAgQKCoApdddlkkd7p4WivQr1+/eOKJJ2KLLbZobSKiEyBAgAABApUW0Nip9PYrngABAgSKKLB+/fpImgrLly8vYvqlyHmrrbaK5NtTvXv3LkU9iiBAgAABAgSKK6CxU9y9kzkBAgQIVFhg/vz5MWjQoNiwYUOFFVpX+rhx4+KKK65oXQIiEyBAgAABAgT+v4DGjn8KBAgQIECgoAKjR4+OSZMmFTT74qbdp0+f2rd1ttxyy+IWIXMCBAgQIECgNAIaO6XZSoUQIECAQNUE1q1bF3379o0VK1ZUrfSW1Zs0c5J7dfbbb7+W5SAwAQIECBAgQOCtAho7b9XwMwECBAgQKJjA3LlzY/DgwbFx48aCZV7MdMeOHRtXXXVVMZOXNQECBAgQIFBKAY2dUm6roggQIECgSgKjRo2KKVOmVKnkltTas2fPWLhwYSQXJ3sIECBAgAABAnkR0NjJy07IgwABAgQIpBR49dVXa29nWrlyZcoVTNucQPJK88cffzz233//zQ31OQECBAgQIEAgUwGNnUy5BSNAgAABAs0RmDNnTgwZMsSRrObwxpgxY+Kb3/xmk1a3LAECBAgQIEAgvYDGTno7MwkQIECAQK4ERo4cGVOnTs1VTmVIpnv37vHkk09G586dy1COGggQIECAAIGSCWjslGxDlUOAAAEC1RVYu3Zt7UjWM888U12Edq68U6dOkVxQPWDAgHZe2XIECBAgQIAAgfYR0NhpH0erECBAgACBXAjMmjUrjjzyyNi0aVMu8il6EqNHj45vfetbRS9D/gQIECBAgECJBTR2Sry5SiNAgACBagqMGDEipk2bVs3i27HqffbZJxYtWhRdunRpx1UtRYAAAQIECBBoXwGNnfb1tBoBAgQIEGi5wJo1a6JXr16xatWqludS1AQ6duwYv/jFL+ITn/hEUUuQNwECBAgQIFARAY2dimy0MgkQIECgWgIPPfRQHHPMMY5kpdz2UaNGxXe+852Us00jQIAAAQIECGQnoLGTnbVIBAgQIEAgU4Hhw4fH9OnTM41ZhmAf+chHYvHixbHNNtuUoRw1ECBAgAABAiUX0Ngp+QYrjwABAgSqK/Dyyy9Hz54947nnnqsuQoOVJ0ewkguoBw8e3OBMwwkQIECAAAECrRHQ2GmNu6gECBAgQCATgfvvvz+OP/74TGKVIcjIkSPje9/7XhlKUQMBAgQIECBQEQGNnYpstDIJECBAoLoC5557bsyYMaO6AHVWvvfee8eSJUuia9eudc4wjAABAgQIECDQegGNndbvgQwIECBAgEBTBVavXl07kvX73/++qXGKvHiHDh3i5z//eQwZMqTIZcidAAECBAgQqKCAxk4FN13JBAgQIFA9gXvvvTdOOumk6hVeZ8UjRoyI73//+3WONowAAQIECBAgkB8BjZ387IVMCBAgQIBAUwXOPvvsuO2225oao4iLf+hDH4qnn346tttuuyKmL2cCBAgQIECg4gIaOxX/B6B8AgQIEKiOwEsvvRQ9evSIF154oTpFb6bS5AjWAw88EEcdddRmRvqYAAECBAgQIJBPAY2dfO6LrAgQIECAQFME7r777jj11FObsnYRFx02bFjceOONRUxdzgQIECBAgACBmoDGjn8IBAgQIECgYgJnnHFG3HHHHRWr+u/L3WOPPWLp0qWxww47/P2HfkOAAAECBAgQKIiAxk5BNkqaBAgQIECgvQRefPHF2pGs5M8qP/fdd18cd9xxVSZQOwECBAgQIFACAY2dEmyiEggQIECAQKMCd955Z5x++umNTivN+HPOOSduvvnm0tSjEAIECBAgQKC6Aho71d17lRMgQIBAxQVOO+20uOuuuyqnsPvuu9eOYO20006Vq13BBAgQIECAQPkENHbKt6cqIkCAAAECdQkkb8dK3pKVvC2rSs+9994bn/zkJ6tUsloJECBAgACBEgto7JR4c5VGgAABAgQ2J3D77bfHWWedtblhpfk8qfXWW28tTT0KIUCAAAECBAho7Pg3QIAAAQIEKi5w8sknxz333FN6hfe///21I1i77LJL6WtVIAECBAgQIFAdAY2d6uy1SgkQIECAwNsKPP/887UjWatXr37bz8vyy7vvvjs+9alPlaUcdRAgQIAAAQIEagIaO/4hECBAgAABAnHLLbdE8qaosj7JG8B+9KMflbU8dREgQIAAAQIVFtDYqfDmK50AAQIECLxV4IQTToj77rvvrb8qxc/vfe97a0ewdt1111LUowgCBAgQIECAwFsFNHbequFnAgQIECBQYYHf/e530bNnz/jDH/5QKoU77rgjPv3pT5eqJsUQIECAAAECBP4koLHzJwl/EiBAgAABAnHTTTfFsGHDSiNx6qmnxo9//OPS1KMQAgQIECBAgMDfCmjs/K2IvxMgQIAAgQoLbNq0KY499th48MEHC6+QvP1q2bJl8b73va/wtSiAAAECBAgQIPBOAho77yTj9wQIECBAoKICq1atil69esWaNWsKLXDbbbfFmWeeWegaJE+AAAECBAgQ2JyAxs7mhHxOgAABAgQqKHDDDTfE+eefX9jKTzrppPjJT35S2PwlToAAAQIECBCoV0Bjp14p4wgQIECAQIUEkiNZQ4cOjZkzZxau6p133rn2FqzddtutcLlLmAABAgQIECDQqIDGTqNixhMgQIAAgYoIPPvss7UjWWvXri1UxTNmzIjPfvazhcpZsgQIECBAgACBtAIaO2nlzCNAgAABAhUQuO666+KCCy4oTKXHH398/PSnPy1MvhIlQIAAAQIECLRVQGOnrYLmEyBAgACBEgskR7KGDBkSs2fPzn2VO+64Y+0I1gc+8IHc5ypBAgQIECBAgEB7CWjstJekdQgQIECAQEkFVq5cGX369IlXXnkl1xVOnz49zjvvvFznKDkCBAgQIECAQHsLaOy0t6j1CBAgQIBACQWmTJkSo0aNym1lRx99dDzwwAO5zU9iBAgQIECAAIFmCWjsNEvWugQIECBAoEQCGzdujMGDB8fcuXNzV9X2228fTz/9dOy55565y01CBAgQIECAAIFmC2jsNFvY+gQIECBAoCQCK1asiL59+8a6detyVdG0adPic5/7XK5ykgwBAgQIECBAICsBjZ2spMUhQIAAAQIlEJg0aVKMHj06N5UceeSR8dBDD0WHDh1yk5NECBAgQIAAAQJZCmjsZKktFgECBAgQKLjAhg0b4pBDDonHH3+85ZV07dq1dgRrr732ankuEiBAgAABAgQItEpAY6dV8uISIECAAIGCCvz617+O/fbbL9avX9/SCqZOnRqf//znW5qD4AQIECBAgACBVgto7LR6B8QnQIAAAQIFFJgwYUKMGTOmZZkfdthhMWvWLEewWrYDAhMgQIAAAQJ5EdDYyctOyIMAAQIECBRIIDmSdfDBB8eCBQsyz3rbbbeNxYsXR7du3TKPLSABAgQIECBAIG8CGjt52xH5ECBAgACBgggsW7Ys+vfvH6+99lqmGU+ZMiW++MUvZhpTMAIECBAgQIBAXgU0dvK6M/IiQIAAAQIFELjmmmti7NixmWWaXNw8e/bs6NixY2YxBSJAgAABAgQI5FlAYyfPuyM3AgQIECCQc4E333wzDjrooHjyySebnmmXLl1qR7A++tGPNj2WAAQIECBAgACBogho7BRlp+RJgAABAgRyKrBkyZI44IAD4vXXX29qhpMmTYovfelLTY1hcQIECBAgQIBA0QQ0doq2Y/IlQIAAAQI5FLjyyitj3LhxTcssuaj50UcfjU6dOjUthoUJECBAgAABAkUU0Ngp4q7JmQABAgQI5EzgjTfeqH1rJ3lbVXs/nTt3jqeeeir23Xff9l7aegQIECBAgACBwgto7BR+CxVAgAABAgTyIZA0X5L7dpImT3s+EyZMiC9/+cvtuaS1CBAgQIAAAQKlEdDYKc1WKoQAAQIECLRe4PLLL4+rr7663RI58MADY968eY5gtZuohQgQIECAAIGyCWjslG1H1UOAAAECBFookFyg3L9//1i6dGmbs9h6661j4cKF0aNHjzavZQECBAgQIECAQFkFNHbKurPqIkCAAAECLRJYsGBBDBw4MJJXobflueaaa+IrX/lKW5YwlwABAgQIECBQegGNndJvsQIJECBAgED2ApdddlmMHz8+deDkWz/z58+PLbbYIvUaJhIgQIAAAQIEqiCgsVOFXVYjAQIECBDIWGD9+vXRr1+/WL58ecORt9pqq0i+9dO7d++G55pAgAABAgQIEKiagMZO1XZcvQQIECBAICOB5Bs3gwYNig0bNjQUcdy4cXHFFVc0NMdgAgQIECBAgEBVBTR2qrrz6iZAgAABAhkIXHLJJTFx4sS6I/Xp06f2bZ0tt9yy7jkGEiBAgAABAgSqLKCxU+XdVzsBAgQIEGiywLp166Jv376xYsWKzUZKmjlPPPFE7LfffpsdawABAgQIECBAgMD/CWjs+JdAgAABAgQINFXgsccei0MPPTQ2btz4rnHGjh0bV1111buO8SEBAgQIECBAgMBfC2js/LWHvxEgQIAAAQJNELjoooti8uTJ77hyz549Y+HChZFcnOwhQIAAAQIECBCoX0Bjp34rIwkQIECAAIGUAq+++mok9+f89re//bsVkleaP/7447H//vv/3Wd+QYAAAQIECBAg8O4CGjvv7uNTAgQIECBAoJ0E5syZE0OGDPm7I1ljxoyJb37zm+0UxTIECBAgQIAAgWoJaOxUa79VS4AAAQIEWirwhS98Ia699to/59C9e/d46qmnYuutt/7z7/xAgAABAgQIECBQv4DGTv1WRhIgQIAAAQJtFFi7dm307t07nnnmmejUqVPMnTs3BgwY0MZVTSdAgAABAgQIVFdAY6e6e69yAgQIECDQEoFZs2bFkUceGRdffHF861vfakkOghIgQIAAAQIEyiKgsVOWnVQHAQIECBAokMDEiRPjggsuiC5duhQoa6kSIECAAAECBPInoLGTvz2REQECBAgQIECAAAECBAgQIECgLgGNnbqYDCJAgAABAgQIECBAgAABAgQI5E9AYyd/eyIjAgQIECBAgAABAgQIECBAgEBdAho7dTEZRIAAAQIECBAgQIAAAQIECBDIn4DGTv72REYECBAgQIAAAQIECBAgQIAAgboENHbqYjKIAAECBAgQIECAAAECBAgQIJA/AY2d/O2JjAgQIECAAAECBAgQIECAAAECdQlo7NTFZBABAgQIECBAgAABAgQIECBAIH8CGjv52xMZESBAgAABAgQIECBAgAABAgTqEtDYqYvJIAIECBAgQIAAAQIECBAgQIBA/gQ0dvK3JzIiQIAAAQIECBAgQIAAAQIECNQloLFTF5NBBAgQIECAAAECBAgQIECAAIH8CWjs5G9PZESAAAECBAgQIECAAAECBAgQqEtAY6cuJoMIECBAgAABAgQIECBAgAABAvkT0NjJ357IiAABAgQIECBAgAABAgQIECBQl4DGTl1MBhEgQIAAAQIECBAgQIAAAQIE8iegsZO/PZERAQIECBAgQIAAAQIECBAgQKAuAY2dupgMIkCAAAECBAgQIECAAAECBAjkT0BjJ397IiMCBAgQIECAAAECBAgQIECAQF0CGjt1MRlEgAABAgQIECBAgAABAgQIEMifgMZO/vZERgQIECBAgAABAgQIECBAgACBugQ0dupiMogAAQIECBAgQIAAAQIECBAgkD8BjZ387YmMCBAgQIAAAQIECBAgQIAAAQJ1CWjs1MVkEAECBAgQIECAAAECBAgQIEAgfwIaO/nbExkRIECAAAECBAgQIECAAAECBOoS0Nipi8kgAgQIECBAgAABAgQIECBAgED+BDR28rcnMiJAgAABAgQIECBAgAABAgQI1CWgsVMXk0EECBAgQIAAAQIECBAgQIAAgfwJaOzkb09kRIAAAQIECBAgQIAAAQIECBCoS0Bjpy4mgwgQIECAAAECBAgQIECAAAEC+RPQ2MnfnsiIAAECBAgQIECAAAECBAgQIFCXgMZOXUwGESBAgAABAgQIECBAgAABAgTyJ6Cxk789kREBAgQIECBAgAABAgQIECBAoC4BjZ26mAwiQIAAAQIECBAgQIAAAQIECORPQGMnf3siIwIECBAgQIAAAQIECBAgQIBAXQIaO3UxGUSAAAECBAgQIECAAAECBAgQyJ+Axk7+9kRGBAgQIECAAAECBAgQIECAAIG6BDR26mIyiAABAgQIECBAgAABAgQIECCQPwGNnfztiYwIECBAgAABAgQIECBAgAABAnUJaOzUxWQQAQIECBAgQIAAAQIECBAgQCB/Aho7+dsTGREgQIAAAQIECBAgQIAAAQIE6hLQ2KmLySACBAgQIECAAAECBAgQIECAQP4ENHbytycyIkCAAAECBAgQIECAAAECBAjUJaCxUxeTQQQIECBAgAABAgQIECBAgACB/Alo7ORvT2REgAABAgQIECBAgAABAgQIEKhLQGOnLiaDCBAgQIAAAQIECBAgQIAAAQL5E9DYyd+eyIgAAQIECBAgQIAAAQIECBAgUJeAxk5dTAYRIECAAAECBAgQIECAAAECBPInoLGTvz2REQECBAgQIECAAAECBAgQIECgLgGNnbqYDCJAgAABAgQIECBAgAABAgQI5E9AYyd/eyIjAgQIECBAgAABAgQIECBAgEBdAho7dTEZRIAAAQIECBAgQIAAAQIECBDIn4DGTv72REYECBAgQIAAAQIECBAgQIAAgboENHbqYjKIAAECBAgQIECAAAECBAgQIJA/AY2d/O2JjAgQIECAAAECBAgQIECAAAECdQlo7NTFZBABAgQIECBAgAABAgQIECBAIH8CGjv52xMZESBAgAABAgQIECBAgAABAgTqEtDYqYvJIAIECBAgQIAAAQIECBAgQIBA/gQ0dvK3JzIiQIAAAQIECBAgQIAAAQIECNQloLFTF5NBBAgQIECAAAECBAgQIECAAIH8CWjs5G9PZESAAAECBAgQIECAAAECBAgQqEtAY6cuJoMIECBAgAABAgQIECBAgAABAvkT0NjJ357IiAABAgQIECBAgAABAgQIECBQl4DGTl1MBhEgQIAAAQIECBAgQIAAAQIE8iegsZO/PZERAQIECBAgQIAAAQIECBAgQKAuAY2dupgMIkCAAAECBAgQIECAAAECBAjkT0BjJ397IiMCBAgQIECAAAECBAgQIECAQF0CGjt1MRlEgAABAgQIECBAgAABAgQIEMifgMZO/vZERgQIECBAgAABAgQIECBAgACBugQ0dupiMogAAQIECBAgQIAAAQIECBAgkD8BjZ387YmMCBAgQIAAAQIECBAgQIAAAQJ1CWjs1MVkEAECBAgQIECAAAECBAgQIEAgfwIaO/nbExkRIECAAAECBAgQIECAAAECBOoS0Nipi8kgAgQIECBAgAABAgQIECBAgED+BP4fJ4Ts9h0dlfkAAAAASUVORK5CYII=;" vertex="1" parent="1">
          <mxGeometry x="47.419999999999995" y="275" width="25.16" height="30" as="geometry" />
        </mxCell>
      </root>
    </mxGraphModel>
  </diagram>
</mxfile>
